<?xml version="1.0" encoding="utf-8"?>
<!-- Generator: Adobe Illustrator 26.1.0, SVG Export Plug-In . SVG Version: 6.00 Build 0)  -->
<svg version="1.1" id="Layer_1" xmlns="http://www.w3.org/2000/svg" xmlns:xlink="http://www.w3.org/1999/xlink" x="0px" y="0px"
	 viewBox="0 0 20.54 16.83" style="enable-background:new 0 0 20.54 16.83;" xml:space="preserve">
<style type="text/css">
	.st0{fill:url(#SVGID_1_);}
	.st1{opacity:0.3;}
	.st2{fill:#FFD800;}
	.st3{fill:#FFED00;}
	.st4{fill-rule:evenodd;clip-rule:evenodd;fill:#FFFF00;}
	.st5{fill:#FFFF00;}
	.st6{fill:#FC00C1;}
	.st7{fill:none;stroke:#FFFF00;stroke-width:2;stroke-miterlimit:10;}
	.st8{fill:none;stroke:#FFFF00;stroke-width:2;stroke-linecap:round;stroke-miterlimit:10;}
	.st9{fill:url(#SVGID_00000061468268449015657100000017223138897296153999_);}
	.st10{opacity:0.7;}
	.st11{fill:#1C1C1C;}
	.st12{fill:#F703BE;}
	.st13{fill:#FFFFFF;}
	.st14{opacity:0.7;fill:#FFFF00;}
	.st15{opacity:0.8;fill:#FF2C8E;}
	.st16{clip-path:url(#SVGID_00000158000075531925976900000010090414060582546312_);}
	.st17{fill:none;stroke:#FFFF00;stroke-miterlimit:10;}
	.st18{fill:none;stroke:#FFFF00;stroke-miterlimit:10;stroke-dasharray:8.041,8.041;}
	.st19{fill:none;stroke:#FFFFFF;stroke-miterlimit:10;}
	.st20{fill:none;stroke:#FFFF00;stroke-miterlimit:10;stroke-dasharray:8.1071,8.1071;}
	.st21{fill:none;stroke:#FFFF00;stroke-miterlimit:10;stroke-dasharray:8;}
	.st22{fill:none;stroke:#FC00C1;stroke-miterlimit:10;}
	.st23{fill:none;stroke:#FC00C1;stroke-width:3;stroke-miterlimit:10;}
	.st24{fill:#282828;stroke:#FC00C1;stroke-miterlimit:10;}
	.st25{fill:none;stroke:#FFFFFF;stroke-width:2;stroke-miterlimit:10;}
	.st26{fill:none;}
</style>
<g>
	<path class="st6" d="M9.94,8.2c0.09,0.08,0.21,0.12,0.33,0.12S10.5,8.29,10.6,8.2l8.39-7.33c0.16-0.14,0.21-0.36,0.14-0.55
		S18.87,0,18.66,0H1.88C1.67,0,1.48,0.13,1.41,0.32S1.39,0.74,1.55,0.88L9.94,8.2z M17.33,1l-7.06,6.16L3.21,1H17.33z"/>
	<path class="st6" d="M20.24,1.71c-0.18-0.08-0.39-0.05-0.54,0.08l-9.44,8.24L0.83,1.79C0.68,1.66,0.47,1.63,0.29,1.71
		C0.11,1.79,0,1.97,0,2.17v14.16c0,0.28,0.22,0.5,0.5,0.5h19.54c0.28,0,0.5-0.22,0.5-0.5V2.17C20.54,1.97,20.42,1.79,20.24,1.71z
		 M19.54,15.83H1V3.27l8.94,7.8c0.19,0.16,0.47,0.16,0.66,0l8.94-7.8V15.83z"/>
</g>
</svg>
