<?xml version="1.0" encoding="utf-8"?>
<!-- Generator: Adobe Illustrator 26.1.0, SVG Export Plug-In . SVG Version: 6.00 Build 0)  -->
<svg version="1.1" id="Layer_1" xmlns="http://www.w3.org/2000/svg" xmlns:xlink="http://www.w3.org/1999/xlink" x="0px" y="0px"
	 viewBox="0 0 348.03 255" style="enable-background:new 0 0 348.03 255;" xml:space="preserve">
<style type="text/css">
	.st0{fill:#141414;}
	.st1{fill:url(#SVGID_1_);}
	.st2{fill:#FFFF00;}
	.st3{fill:#2D2D2D;}
	.st4{fill:url(#SVGID_00000047050036329111609370000016279494111518435994_);}
	.st5{fill:#F4E203;}
	.st6{fill:#FFD800;}
	.st7{fill:#FFED00;}
	.st8{fill-rule:evenodd;clip-rule:evenodd;fill:#FFFF00;}
	.st9{fill:none;stroke:#FFFF00;stroke-width:2;stroke-miterlimit:10;}
	.st10{fill:none;stroke:#FFFF00;stroke-width:2;stroke-linecap:round;stroke-miterlimit:10;}
	.st11{opacity:0.7;}
	.st12{fill:#1C1C1C;}
	.st13{opacity:0.7;fill:#FFFF00;}
	.st14{fill:url(#SVGID_00000086663383468433636180000003196922022200809881_);}
	.st15{opacity:0.3;}
	.st16{fill:#FFFFFF;}
	.st17{fill:none;stroke:#FFFF00;stroke-miterlimit:10;}
	.st18{fill:none;stroke:#FFFF00;stroke-miterlimit:10;stroke-dasharray:8;}
	.st19{fill:none;stroke:#FFFF00;stroke-miterlimit:10;stroke-dasharray:8.1071,8.1071;}
	.st20{fill:none;stroke:#FC00C1;stroke-miterlimit:10;}
	.st21{fill:#FC00C1;}
	.st22{fill:none;stroke:#FC00C1;stroke-width:3;stroke-miterlimit:10;}
	.st23{fill:none;stroke:#3FFF00;stroke-miterlimit:10;}
	.st24{fill:#3FFF00;}
	.st25{clip-path:url(#SVGID_00000160178028651340084730000013868679911916333472_);}
</style>
<g>
	<path class="st2" d="M213.45,156.39H107.19v-39.91l20.19-19.49c4.33-4.02,8.51-8.04,12.53-12.07l9.74-9.75
		c2.63-2.63,5.71-5.87,8.09-8.97c10.41-13.54-0.22-21.27-12.27-21.43c-11.14-0.15-21.35,0.85-30.63,2.55l-4.87,0.93l-2.32-39.68
		C123.74,2.86,140.56,0,158.12,0c17.55,0,31.32,3.98,41.3,11.95c9.98,7.97,14.97,19.03,14.97,33.18c0,14.15-2.32,25.25-6.96,33.3
		c-4.64,8.04-13.31,16.47-25.99,25.29l-15.55,10.91h47.57V156.39z"/>
	<g>
		<g>
			<path class="st2" d="M125.61,217.81h-6.95v-13.84l-10.57-20.39h7.7l6.29,13.64l6.29-13.64h7.7l-10.47,20.39V217.81z"/>
			<path class="st2" d="M139.86,217.81v-34.23h22.15v6.04h-15.2v8h12.18v5.94H146.8v8.21h15.2v6.04H139.86z"/>
			<path class="st2" d="M164.88,217.81l7.7-34.23h13.19l7.7,34.23h-6.95l-1.36-6.19h-11.98l-1.36,6.19H164.88z M177.97,189.31
				l-3.47,16.26h9.36l-3.47-16.26H177.97z"/>
			<path class="st2" d="M204.99,206.33v11.48h-6.95v-34.23h13.29c8.05,0,12.08,3.76,12.08,11.28c0,4.46-1.68,7.75-5.03,9.87
				l4.88,13.09h-7.6l-3.98-11.48H204.99z M215.11,198.88c0.81-1.01,1.21-2.33,1.21-3.98c0-1.64-0.43-2.95-1.28-3.93
				c-0.86-0.97-2.09-1.46-3.7-1.46h-6.34v10.87h6.44C213.08,200.39,214.31,199.89,215.11,198.88z"/>
			<path class="st2" d="M239.78,189.01c-3.66,0-5.49,1.21-5.49,3.62c0,1.07,0.45,1.9,1.36,2.47c0.91,0.57,3.03,1.39,6.37,2.47
				c3.34,1.07,5.68,2.29,7.02,3.65c1.34,1.36,2.01,3.45,2.01,6.27c0,3.59-1.09,6.31-3.27,8.16c-2.18,1.85-5.03,2.77-8.56,2.77
				c-2.62,0-5.82-0.4-9.61-1.21l-1.81-0.35l0.7-5.39c4.5,0.6,7.94,0.91,10.32,0.91c3.56,0,5.34-1.48,5.34-4.43
				c0-1.07-0.41-1.91-1.23-2.52c-0.82-0.6-2.46-1.26-4.91-1.96c-3.89-1.11-6.64-2.42-8.23-3.95c-1.59-1.53-2.39-3.65-2.39-6.37
				c0-3.42,1.04-5.97,3.12-7.65c2.08-1.68,4.93-2.52,8.56-2.52c2.48,0,5.64,0.34,9.47,1.01l1.81,0.35l-0.55,5.49
				C245.07,189.28,241.73,189.01,239.78,189.01z"/>
		</g>
		<g>
			<path class="st2" d="M278.34,215.58c-1.42,1.89-3.86,2.83-7.31,2.83s-5.9-0.94-7.31-2.83c-1.42-1.89-2.13-4.84-2.13-8.86
				c0-4.02,0.71-7,2.13-8.96c1.42-1.95,3.86-2.93,7.31-2.93s5.9,0.98,7.31,2.93c1.42,1.95,2.13,4.94,2.13,8.96
				C280.47,210.74,279.76,213.7,278.34,215.58z M267.33,212.64c0.66,1.17,1.89,1.76,3.7,1.76s3.04-0.59,3.7-1.76
				c0.66-1.17,0.99-3.14,0.99-5.89c0-2.76-0.33-4.76-1-6.01c-0.67-1.25-1.9-1.87-3.68-1.87s-3.01,0.62-3.68,1.87
				c-0.67,1.25-1,3.25-1,6.01C266.34,209.5,266.67,211.46,267.33,212.64z"/>
			<path class="st2" d="M284.42,218.01v-22.76h14.53v4.02h-9.91v6.7h8.1v4.02h-8.1v8.03H284.42z"/>
		</g>
		<g>
			<path class="st2" d="M118.61,254.49v-28.88h18.69v5.1h-12.83v6.75h10.28v5.01h-10.28v6.92h12.83v5.1H118.61z"/>
			<path class="st2" d="M145.87,225.61l5.35,10.62l5.48-10.62h6.07l-8.32,14.74l8.32,14.14h-6.5l-5.35-9.98l-5.48,9.98h-6.07
				l8.32-13.85l-8.32-15.03H145.87z"/>
			<path class="st2" d="M176.92,246.08h-4.76v8.41h-5.86v-28.88h10.62c6.85,0,10.28,3.34,10.28,10.02c0,3.37-0.87,5.95-2.61,7.75
				C182.84,245.18,180.29,246.08,176.92,246.08z M172.16,241.07h4.71c2.92,0,4.37-1.81,4.37-5.44c0-1.78-0.35-3.06-1.06-3.84
				c-0.71-0.78-1.81-1.17-3.31-1.17h-4.71V241.07z"/>
			<path class="st2" d="M191.31,254.49v-28.88H210v5.1h-12.83v6.75h10.28v5.01h-10.28v6.92H210v5.1H191.31z"/>
			<path class="st2" d="M220.7,244.81v9.68h-5.86v-28.88h11.21c6.79,0,10.19,3.17,10.19,9.51c0,3.77-1.42,6.54-4.25,8.32l4.12,11.04
				h-6.41l-3.35-9.68H220.7z M229.24,238.52c0.68-0.85,1.02-1.97,1.02-3.36c0-1.39-0.36-2.49-1.08-3.31
				c-0.72-0.82-1.76-1.23-3.12-1.23h-5.35v9.17h5.44C227.53,239.8,228.56,239.37,229.24,238.52z"/>
			<path class="st2" d="M241.17,254.49v-28.88h5.86v28.88H241.17z"/>
			<path class="st2" d="M253.32,254.49v-28.88h18.69v5.1h-12.83v6.75h10.28v5.01h-10.28v6.92h12.83v5.1H253.32z"/>
			<path class="st2" d="M276.85,254.49v-28.88h9.9l6.97,23.78h0.42v-23.78H300v28.88h-9.64l-7.22-23.78h-0.43v23.78H276.85z"/>
			<path class="st2" d="M324.59,254.02c-3,0.65-5.71,0.98-8.11,0.98c-2.41,0-4.33-0.3-5.78-0.89c-1.44-0.59-2.58-1.54-3.4-2.85
				c-0.82-1.3-1.39-2.83-1.7-4.59c-0.31-1.76-0.47-3.96-0.47-6.63c0-5.58,0.79-9.46,2.36-11.66c1.57-2.19,4.47-3.29,8.69-3.29
				c2.43,0,5.25,0.38,8.45,1.15l-0.17,4.67c-2.8-0.43-5.13-0.64-6.99-0.64s-3.18,0.25-3.97,0.74c-0.79,0.5-1.38,1.44-1.76,2.82
				c-0.38,1.39-0.57,3.75-0.57,7.09c0,3.34,0.39,5.66,1.17,6.94c0.78,1.29,2.34,1.93,4.67,1.93c2.34,0,4.82-0.2,7.45-0.59
				L324.59,254.02z"/>
			<path class="st2" d="M329.34,254.49v-28.88h18.69v5.1H335.2v6.75h10.28v5.01H335.2v6.92h12.83v5.1H329.34z"/>
		</g>
	</g>
	<path class="st2" d="M342.23,3.48v46.41h-65.66L275.4,60.1c6.65-2.32,13.53-3.48,20.65-3.48c17.94,0,31.09,3.64,39.45,10.91
		c8.35,7.27,12.53,20.11,12.53,38.52c0,35.58-19.34,53.37-58.01,53.37c-7.27,0-16.01-0.74-26.22-2.2
		c-10.21-1.47-18.56-2.98-25.06-4.52l-9.98-2.32l3.95-37.82c20.88,3.1,38.28,4.64,52.21,4.64c7.89,0,11.83-2.12,11.83-6.38
		c0-4.25-3.71-6.38-11.14-6.38c-4.95,0-10.21,0.7-15.78,2.09l-2.78,0.7l-34.34-4.18l3.25-99.54H342.23z"/>
	<path class="st2" d="M0,131.56V99.87h24.83V75.39h31.69v24.48h24.83v31.69H56.52v24.83H24.83v-24.83H0z"/>
</g>
</svg>
