<?xml version="1.0" encoding="utf-8"?>
<!-- Generator: Adobe Illustrator 26.1.0, SVG Export Plug-In . SVG Version: 6.00 Build 0)  -->
<svg version="1.1" id="Layer_1" xmlns="http://www.w3.org/2000/svg" xmlns:xlink="http://www.w3.org/1999/xlink" x="0px" y="0px"
	 viewBox="0 0 20.43 17.61" style="enable-background:new 0 0 20.43 17.61;" xml:space="preserve">
<style type="text/css">
	.st0{fill:url(#SVGID_1_);}
	.st1{opacity:0.3;}
	.st2{fill:#FFD800;}
	.st3{fill:#FFED00;}
	.st4{fill-rule:evenodd;clip-rule:evenodd;fill:#FFFF00;}
	.st5{fill:#FFFF00;}
	.st6{fill:#FC00C1;}
	.st7{fill:none;stroke:#FFFF00;stroke-width:2;stroke-miterlimit:10;}
	.st8{fill:none;stroke:#FFFF00;stroke-width:2;stroke-linecap:round;stroke-miterlimit:10;}
	.st9{fill:url(#SVGID_00000094603901313218290970000011278496744473346971_);}
	.st10{opacity:0.7;}
	.st11{fill:#1C1C1C;}
	.st12{fill:#F703BE;}
	.st13{fill:#FFFFFF;}
	.st14{opacity:0.7;fill:#FFFF00;}
	.st15{opacity:0.8;fill:#FF2C8E;}
	.st16{clip-path:url(#SVGID_00000134953579931168657540000009518599960709298052_);}
	.st17{fill:none;stroke:#FFFF00;stroke-miterlimit:10;}
	.st18{fill:none;stroke:#FFFF00;stroke-miterlimit:10;stroke-dasharray:8.041,8.041;}
	.st19{fill:none;stroke:#FFFFFF;stroke-miterlimit:10;}
	.st20{fill:none;stroke:#FFFF00;stroke-miterlimit:10;stroke-dasharray:8.1071,8.1071;}
	.st21{fill:none;stroke:#FFFF00;stroke-miterlimit:10;stroke-dasharray:8;}
	.st22{fill:none;stroke:#FC00C1;stroke-miterlimit:10;}
	.st23{fill:none;stroke:#FC00C1;stroke-width:3;stroke-miterlimit:10;}
	.st24{fill:#282828;stroke:#FC00C1;stroke-miterlimit:10;}
	.st25{fill:none;stroke:#FFFFFF;stroke-width:2;stroke-miterlimit:10;}
	.st26{fill:none;}
</style>
<path class="st6" d="M19.93,1.7h-3.66V0.68c0-0.38-0.31-0.68-0.68-0.68h-1.63c-0.38,0-0.68,0.31-0.68,0.68V1.7H7.25V0.68
	C7.25,0.31,6.95,0,6.57,0H4.93C4.56,0,4.25,0.31,4.25,0.68V1.7H0.5C0.22,1.7,0,1.92,0,2.2v14.92c0,0.28,0.22,0.5,0.5,0.5h19.43
	c0.28,0,0.5-0.22,0.5-0.5V2.2C20.43,1.92,20.2,1.7,19.93,1.7z M4.25,2.7v0.65c0,0.38,0.31,0.68,0.68,0.68h1.64
	c0.38,0,0.68-0.31,0.68-0.68V2.7h6.01v0.65c0,0.38,0.31,0.68,0.68,0.68h1.63c0.38,0,0.68-0.31,0.68-0.68V2.7h3.16v3.62H1V2.7H4.25z
	 M1,16.61v-9.3h18.43v9.3H1z"/>
</svg>
