<?xml version="1.0" encoding="utf-8"?>
<!-- Generator: Adobe Illustrator 26.1.0, SVG Export Plug-In . SVG Version: 6.00 Build 0)  -->
<svg version="1.1" id="Layer_1" xmlns="http://www.w3.org/2000/svg" xmlns:xlink="http://www.w3.org/1999/xlink" x="0px" y="0px"
	 viewBox="0 0 13.53 23.93" style="enable-background:new 0 0 13.53 23.93;" xml:space="preserve">
<style type="text/css">
	.st0{fill:url(#SVGID_1_);}
	.st1{opacity:0.3;}
	.st2{fill:#FFD800;}
	.st3{fill:#FFED00;}
	.st4{fill-rule:evenodd;clip-rule:evenodd;fill:#FFFF00;}
	.st5{fill:#FFFF00;}
	.st6{fill:#FC00C1;}
	.st7{fill:none;stroke:#FFFF00;stroke-width:2;stroke-miterlimit:10;}
	.st8{fill:none;stroke:#FFFF00;stroke-width:2;stroke-linecap:round;stroke-miterlimit:10;}
	.st9{fill:url(#SVGID_00000000919774354089316300000003470758319794961292_);}
	.st10{opacity:0.7;}
	.st11{fill:#1C1C1C;}
	.st12{fill:#F703BE;}
	.st13{fill:#FFFFFF;}
	.st14{opacity:0.7;fill:#FFFF00;}
	.st15{opacity:0.8;fill:#FF2C8E;}
	.st16{clip-path:url(#SVGID_00000023274754259118303950000000901993665653017517_);}
	.st17{fill:none;stroke:#FFFF00;stroke-miterlimit:10;}
	.st18{fill:none;stroke:#FFFF00;stroke-miterlimit:10;stroke-dasharray:8.041,8.041;}
	.st19{fill:none;stroke:#FFFFFF;stroke-miterlimit:10;}
	.st20{fill:none;stroke:#FFFF00;stroke-miterlimit:10;stroke-dasharray:8.1071,8.1071;}
	.st21{fill:none;stroke:#FFFF00;stroke-miterlimit:10;stroke-dasharray:8;}
	.st22{fill:none;stroke:#FC00C1;stroke-miterlimit:10;}
	.st23{fill:none;stroke:#FC00C1;stroke-width:3;stroke-miterlimit:10;}
	.st24{fill:#282828;stroke:#FC00C1;stroke-miterlimit:10;}
	.st25{fill:none;stroke:#FFFFFF;stroke-width:2;stroke-miterlimit:10;}
	.st26{fill:none;}
</style>
<g>
	<path class="st6" d="M13.03,0H0.5C0.22,0,0,0.22,0,0.5v22.93c0,0.28,0.22,0.5,0.5,0.5h12.53c0.28,0,0.5-0.22,0.5-0.5V0.5
		C13.53,0.22,13.31,0,13.03,0z M12.53,1v18.03H1V1H12.53z M1,22.93v-2.9h11.53v2.9H1z"/>
	<path class="st6" d="M3.67,3.01h5.97c0.28,0,0.5-0.22,0.5-0.5s-0.22-0.5-0.5-0.5H3.67c-0.28,0-0.5,0.22-0.5,0.5
		S3.39,3.01,3.67,3.01z"/>
	<path class="st6" d="M7.01,20.64c-0.49,0-0.89,0.4-0.89,0.89c0,0.49,0.4,0.89,0.89,0.89s0.89-0.4,0.89-0.89
		C7.9,21.03,7.5,20.64,7.01,20.64z"/>
</g>
</svg>
