<?xml version="1.0" encoding="utf-8"?>
<!-- Generator: Adobe Illustrator 26.1.0, SVG Export Plug-In . SVG Version: 6.00 Build 0)  -->
<svg version="1.1" id="Layer_1" xmlns="http://www.w3.org/2000/svg" xmlns:xlink="http://www.w3.org/1999/xlink" x="0px" y="0px"
	 viewBox="0 0 193.01 25.26" style="enable-background:new 0 0 193.01 25.26;" xml:space="preserve">
<style type="text/css">
	.st0{fill:url(#SVGID_1_);}
	.st1{opacity:0.3;}
	.st2{fill:#FFD800;}
	.st3{fill:#FFED00;}
	.st4{fill-rule:evenodd;clip-rule:evenodd;fill:#FFFF00;}
	.st5{fill:#FFFF00;}
	.st6{fill:none;stroke:#FFFF00;stroke-width:2;stroke-miterlimit:10;}
	.st7{fill:none;stroke:#FFFF00;stroke-width:2;stroke-linecap:round;stroke-miterlimit:10;}
	.st8{fill:url(#SVGID_00000036967215662639823500000005470790784728713364_);}
	.st9{opacity:0.7;}
	.st10{fill:#1C1C1C;}
	.st11{opacity:0.7;fill:#FFFF00;}
	.st12{fill:#1E1E1E;}
	.st13{fill:#FFFFFF;}
	.st14{clip-path:url(#SVGID_00000096043557681535757500000000826246563845054856_);}
	.st15{fill:none;stroke:#FFFF00;stroke-miterlimit:10;}
	.st16{fill:none;stroke:#FFFF00;stroke-miterlimit:10;stroke-dasharray:8.041,8.041;}
	.st17{fill:none;stroke:#FFFFFF;stroke-miterlimit:10;}
	.st18{fill:none;stroke:#FFFF00;stroke-miterlimit:10;stroke-dasharray:8.1071,8.1071;}
	.st19{fill:none;stroke:#FFFF00;stroke-miterlimit:10;stroke-dasharray:8;}
	.st20{fill:none;stroke:#FC00C1;stroke-miterlimit:10;}
	.st21{fill:#FC00C1;}
	.st22{fill:none;stroke:#FC00C1;stroke-width:3;stroke-miterlimit:10;}
	.st23{fill:#282828;stroke:#FC00C1;stroke-miterlimit:10;}
	.st24{fill:none;stroke:#FFFFFF;stroke-width:2;stroke-miterlimit:10;}
	.st25{fill:none;}
</style>
<g>
	<rect class="st11" width="193.01" height="25.26"/>
	<g>
		<path class="st12" d="M25.39,6.39c-2,0-3,0.75-3,2.26c0,0.84,0.23,1.42,0.69,1.73c0.46,0.31,1.39,0.63,2.8,0.94
			c1.41,0.31,2.4,0.72,2.99,1.22c0.59,0.5,0.88,1.32,0.88,2.47c0,2.84-1.47,4.26-4.42,4.26c-0.97,0-2.19-0.11-3.66-0.34l-0.72-0.1
			l0.16-1.28c1.81,0.24,3.19,0.36,4.14,0.36c1.97,0,2.96-0.93,2.96-2.78c0-0.75-0.22-1.28-0.65-1.61c-0.43-0.33-1.24-0.6-2.43-0.83
			c-1.56-0.33-2.67-0.76-3.32-1.29c-0.65-0.53-0.98-1.41-0.98-2.65c0-2.48,1.49-3.72,4.46-3.72c0.97,0,2.14,0.1,3.5,0.3l0.68,0.1
			l-0.14,1.3C27.47,6.51,26.16,6.39,25.39,6.39z"/>
		<path class="st12" d="M35.89,8.89c0.44,0,1.19,0.08,2.24,0.24l0.48,0.06l-0.06,1.22c-1.07-0.12-1.85-0.18-2.36-0.18
			c-1.13,0-1.9,0.27-2.31,0.81c-0.41,0.54-0.61,1.54-0.61,3s0.19,2.48,0.57,3.05c0.38,0.57,1.17,0.86,2.37,0.86l2.36-0.18l0.06,1.24
			c-1.24,0.19-2.17,0.28-2.78,0.28c-1.56,0-2.64-0.4-3.23-1.2c-0.59-0.8-0.89-2.15-0.89-4.05s0.32-3.23,0.96-4
			S34.39,8.89,35.89,8.89z"/>
		<path class="st12" d="M40.87,19.09v-10h1.48v1.36c1.16-0.8,2.38-1.33,3.66-1.58v1.52c-0.56,0.11-1.14,0.27-1.75,0.5
			c-0.61,0.23-1.07,0.43-1.39,0.6l-0.5,0.26v7.34H40.87z"/>
		<path class="st12" d="M47.15,14.07c0-1.83,0.33-3.15,0.98-3.96c0.65-0.81,1.76-1.22,3.31-1.22s2.65,0.41,3.3,1.22
			s0.97,2.13,0.97,3.96c0,1.83-0.31,3.15-0.92,3.98c-0.61,0.83-1.73,1.24-3.36,1.24c-1.63,0-2.75-0.41-3.36-1.24
			C47.45,17.23,47.15,15.9,47.15,14.07z M48.69,14.04c0,1.46,0.18,2.48,0.53,3.07s1.09,0.88,2.22,0.88c1.13,0,1.86-0.29,2.21-0.87
			s0.52-1.6,0.52-3.07c0-1.47-0.19-2.48-0.58-3.03c-0.39-0.55-1.1-0.83-2.15-0.83c-1.05,0-1.77,0.28-2.16,0.83
			C48.88,11.58,48.69,12.58,48.69,14.04z"/>
		<path class="st12" d="M58.27,19.09V4.73h1.5v14.36H58.27z"/>
		<path class="st12" d="M62.89,19.09V4.73h1.5v14.36H62.89z"/>
		<path class="st12" d="M76.97,10.39h-3.18v4.78c0,1.15,0.08,1.9,0.25,2.26c0.17,0.36,0.56,0.54,1.19,0.54l1.78-0.12l0.1,1.24
			c-0.89,0.15-1.57,0.22-2.04,0.22c-1.04,0-1.76-0.25-2.16-0.76c-0.4-0.51-0.6-1.47-0.6-2.9v-5.26h-1.42v-1.3h1.42V6.03h1.48v3.06
			h3.18V10.39z"/>
		<path class="st12" d="M78.36,14.07c0-1.83,0.33-3.15,0.98-3.96s1.76-1.22,3.31-1.22c1.55,0,2.65,0.41,3.3,1.22
			s0.97,2.13,0.97,3.96c0,1.83-0.31,3.15-0.92,3.98c-0.61,0.83-1.73,1.24-3.36,1.24c-1.63,0-2.75-0.41-3.36-1.24
			C78.67,17.23,78.36,15.9,78.36,14.07z M79.91,14.04c0,1.46,0.18,2.48,0.53,3.07s1.09,0.88,2.22,0.88c1.13,0,1.86-0.29,2.21-0.87
			c0.35-0.58,0.52-1.6,0.52-3.07c0-1.47-0.19-2.48-0.58-3.03c-0.39-0.55-1.1-0.83-2.15-0.83c-1.05,0-1.77,0.28-2.16,0.83
			C80.1,11.58,79.91,12.58,79.91,14.04z"/>
		<path class="st12" d="M95.68,10.39v8.7h-1.5v-8.7h-1.26v-1.3h1.26v-0.9c0-1.41,0.2-2.38,0.6-2.89c0.4-0.51,1.1-0.77,2.1-0.77
			l2.02,0.14l-0.02,1.24c-0.75-0.03-1.36-0.04-1.85-0.04s-0.83,0.16-1.04,0.48c-0.21,0.32-0.31,0.94-0.31,1.86v0.88h2.9v1.3H95.68z"
			/>
		<path class="st12" d="M100.38,6.83V5.09h1.5v1.74H100.38z M100.38,19.09v-10h1.5v10H100.38z"/>
		<path class="st12" d="M106.26,19.09h-1.5v-10h1.48v0.7c1.08-0.6,2.11-0.9,3.1-0.9c1.33,0,2.23,0.36,2.69,1.08
			c0.46,0.72,0.69,2,0.69,3.84v5.28h-1.48v-5.24c0-1.39-0.14-2.34-0.41-2.85c-0.27-0.51-0.86-0.77-1.75-0.77
			c-0.43,0-0.88,0.06-1.35,0.19c-0.47,0.13-0.84,0.25-1.09,0.37l-0.38,0.18V19.09z"/>
		<path class="st12" d="M123.18,4.73v14.36h-1.48v-0.68c-1.03,0.59-2.04,0.88-3.04,0.88c-0.53,0-1-0.07-1.4-0.2
			c-0.4-0.13-0.77-0.37-1.12-0.72c-0.72-0.72-1.08-2.05-1.08-3.99c0-1.94,0.32-3.34,0.97-4.2c0.65-0.86,1.72-1.29,3.21-1.29
			c0.77,0,1.59,0.09,2.46,0.26V4.73H123.18z M117.98,17.81c0.24,0.09,0.55,0.14,0.93,0.14s0.81-0.06,1.28-0.19
			c0.47-0.13,0.84-0.25,1.11-0.37l0.4-0.18v-6.78c-0.85-0.16-1.65-0.24-2.38-0.24c-1.01,0-1.72,0.32-2.12,0.97s-0.6,1.65-0.6,3.01
			c0,1.55,0.23,2.59,0.7,3.12C117.52,17.55,117.74,17.72,117.98,17.81z"/>
		<path class="st12" d="M131.98,19.09h-1.5v-10h1.48v0.7c1-0.6,1.97-0.9,2.92-0.9c1.24,0,2.11,0.34,2.6,1.02
			c0.44-0.27,1.01-0.5,1.71-0.71s1.32-0.31,1.85-0.31c1.33,0,2.23,0.36,2.69,1.07c0.46,0.71,0.69,2,0.69,3.85v5.28h-1.5v-5.24
			c0-1.39-0.13-2.34-0.4-2.85c-0.27-0.51-0.83-0.77-1.7-0.77c-0.44,0-0.89,0.06-1.36,0.19c-0.47,0.13-0.83,0.25-1.08,0.37L138,10.97
			c0.17,0.44,0.26,1.41,0.26,2.92v5.2h-1.5v-5.16c0-1.44-0.13-2.42-0.39-2.93c-0.26-0.51-0.83-0.77-1.71-0.77
			c-0.43,0-0.86,0.06-1.31,0.19c-0.45,0.13-0.79,0.25-1.03,0.37l-0.34,0.18V19.09z"/>
		<path class="st12" d="M146.76,14.07c0-1.83,0.33-3.15,0.98-3.96s1.76-1.22,3.31-1.22c1.55,0,2.65,0.41,3.3,1.22
			s0.97,2.13,0.97,3.96c0,1.83-0.31,3.15-0.92,3.98c-0.61,0.83-1.73,1.24-3.36,1.24c-1.63,0-2.75-0.41-3.36-1.24
			C147.07,17.23,146.76,15.9,146.76,14.07z M148.3,14.04c0,1.46,0.18,2.48,0.53,3.07s1.09,0.88,2.22,0.88
			c1.13,0,1.86-0.29,2.21-0.87c0.35-0.58,0.52-1.6,0.52-3.07c0-1.47-0.19-2.48-0.58-3.03c-0.39-0.55-1.1-0.83-2.15-0.83
			c-1.05,0-1.77,0.28-2.16,0.83C148.5,11.58,148.3,12.58,148.3,14.04z"/>
		<path class="st12" d="M157.76,19.09v-10h1.48v1.36c1.16-0.8,2.38-1.33,3.66-1.58v1.52c-0.56,0.11-1.14,0.27-1.75,0.5
			c-0.61,0.23-1.07,0.43-1.39,0.6l-0.5,0.26v7.34H157.76z"/>
		<path class="st12" d="M171.28,17.85l0.58-0.06l0.04,1.18c-1.52,0.21-2.82,0.32-3.9,0.32c-1.44,0-2.46-0.42-3.06-1.25
			s-0.9-2.13-0.9-3.89c0-3.51,1.39-5.26,4.18-5.26c1.35,0,2.35,0.38,3.02,1.13c0.67,0.75,1,1.94,1,3.55l-0.08,1.14h-6.6
			c0,1.11,0.2,1.93,0.6,2.46c0.4,0.53,1.1,0.8,2.09,0.8C169.25,17.97,170.26,17.93,171.28,17.85z M170.74,13.51
			c0-1.23-0.2-2.09-0.59-2.6s-1.03-0.76-1.92-0.76s-1.55,0.27-2,0.8s-0.68,1.39-0.69,2.56H170.74z"/>
	</g>
</g>
</svg>
