<?xml version="1.0" encoding="utf-8"?>
<!-- Generator: Adobe Illustrator 26.1.0, SVG Export Plug-In . SVG Version: 6.00 Build 0)  -->
<svg version="1.1" id="Layer_1" xmlns="http://www.w3.org/2000/svg" xmlns:xlink="http://www.w3.org/1999/xlink" x="0px" y="0px"
	 viewBox="0 0 55 55" style="enable-background:new 0 0 55 55;" xml:space="preserve">
<style type="text/css">
	.st0{fill:url(#SVGID_1_);}
	.st1{fill:#F4E203;}
	.st2{fill:url(#SVGID_00000111158713926875541270000010289142738042047105_);}
	.st3{fill:#FC00C1;}
	.st4{fill:url(#SVGID_00000034091912587632284580000017628033843584800642_);}
	.st5{opacity:0.3;}
	.st6{fill:#FFD800;}
	.st7{fill:#FFED00;}
	.st8{fill-rule:evenodd;clip-rule:evenodd;fill:#FFFF00;}
	.st9{fill:#FFFF00;}
	.st10{fill:#161616;}
	.st11{fill:none;}
	.st12{fill:none;stroke:#FFFF00;stroke-width:0;stroke-linecap:round;stroke-linejoin:round;}
	.st13{fill:none;stroke:#D15D0F;stroke-width:0;stroke-linecap:round;stroke-linejoin:round;}
	.st14{fill:#D15D0F;}
	.st15{fill:url(#SVGID_00000029028239616066842270000005683739631255901074_);}
	.st16{fill:#06DCF2;}
	.st17{fill:url(#SVGID_00000181775945853026142780000001451321058160529578_);}
	.st18{fill:#9500FF;}
	.st19{fill:#474747;}
	.st20{fill:url(#SVGID_00000093896586892566918380000002220621279017362339_);}
	.st21{fill:none;stroke:#FFFF00;stroke-width:2;stroke-miterlimit:10;}
	.st22{fill:none;stroke:#FFFF00;stroke-width:2;stroke-linecap:round;stroke-miterlimit:10;}
	.st23{fill:none;stroke:#FFFFFF;stroke-width:1.5;stroke-miterlimit:10;}
	.st24{fill:none;stroke:#FDFA4C;stroke-width:1.5;stroke-miterlimit:10;}
	.st25{fill:url(#SVGID_00000169543513068458890950000012850113395895400891_);}
	.st26{opacity:0.3;fill:#FFFF00;}
	.st27{fill:none;stroke:#6D6D6D;stroke-width:10;stroke-linecap:round;stroke-miterlimit:10;}
	.st28{fill:#6D6D6D;}
	.st29{fill:url(#SVGID_00000054237537495197850830000002755046194926563252_);}
	.st30{fill:url(#SVGID_00000129924488959887146380000009772965603915681189_);}
	.st31{fill:none;stroke:#FC00C1;stroke-width:2;stroke-miterlimit:10;}
	.st32{fill:url(#SVGID_00000020369115403195141580000013136001799900492939_);}
	.st33{fill:url(#SVGID_00000173848245744720545690000001374695559947370380_);}
	.st34{opacity:0.5;fill:#FF2C8E;}
	.st35{fill:none;stroke:#FFFFFF;stroke-miterlimit:10;}
	.st36{fill:url(#SVGID_00000057129268779400666520000003894079318097862557_);}
	.st37{clip-path:url(#SVGID_00000069377362259007333500000008382541390015648411_);}
	.st38{fill:none;stroke:#FFFF00;stroke-miterlimit:10;}
	.st39{fill:none;stroke:#FFFF00;stroke-miterlimit:10;stroke-dasharray:8.1071,8.1071;}
	.st40{fill:none;stroke:#FFFF00;stroke-miterlimit:10;stroke-dasharray:8;}
	.st41{fill:none;stroke:#FC00C1;stroke-miterlimit:10;}
	.st42{fill:none;stroke:#FC00C1;stroke-width:3;stroke-miterlimit:10;}
	.st43{fill:#282828;stroke:#FC00C1;stroke-miterlimit:10;}
	.st44{fill:#FFFFFF;}
	.st45{fill:none;stroke:#FFFFFF;stroke-width:2;stroke-miterlimit:10;}
	.st46{clip-path:url(#SVGID_00000141430723387736131230000000678340145039365509_);}
	.st47{clip-path:url(#SVGID_00000006692599036270737040000004978670548102410143_);}
	.st48{fill:none;stroke:#FFFF00;stroke-miterlimit:10;stroke-dasharray:8.041,8.041;}
	.st49{clip-path:url(#SVGID_00000003814809368949563850000013929356213163163563_);}
	.st50{clip-path:url(#SVGID_00000104699489473689582070000003125334521230284440_);}
</style>
<g>
	<path class="st9" d="M27.51,55c-5.26,0-10.35-1.49-14.76-4.3l-9.8,3.13c-0.33,0.1-0.69,0.02-0.93-0.23
		c-0.24-0.25-0.33-0.61-0.21-0.94l3.16-9.43C1.71,38.61,0,33.18,0,27.5c0-7.47,2.96-14.47,8.32-19.69c0.36-0.35,0.94-0.34,1.3,0.02
		c0.35,0.36,0.34,0.94-0.02,1.3C4.59,14,1.83,20.53,1.83,27.5c0,5.45,1.69,10.65,4.89,15.04c0.17,0.24,0.22,0.55,0.13,0.83
		l-2.74,8.16l8.49-2.72c0.26-0.09,0.55-0.04,0.79,0.11c4.19,2.77,9.07,4.24,14.12,4.24c14.15,0,25.66-11.51,25.66-25.67
		c0-14.15-11.51-25.67-25.66-25.67c0,0,0,0-0.01,0c-3.97,0-7.77,0.88-11.3,2.62c-0.45,0.22-1,0.04-1.23-0.42s-0.04-1,0.42-1.23
		C19.18,0.95,23.25,0,27.49,0C42.67,0,55,12.34,55,27.5S42.67,55,27.51,55z"/>
	<path class="st9" d="M35.94,43.07L35.94,43.07c-1.85,0-4.44-0.72-8.14-2.25c-4.83-2-9.61-6.19-13.48-11.79l-0.14-0.2
		c-1.28-1.74-3.34-5.08-3.34-8.57c0-4.09,2.04-6.16,2.92-7.05c0.82-0.85,2.05-1.29,3.44-1.29c0.35,0,0.66,0.02,0.94,0.03
		c1.16,0.05,1.84,0.34,2.48,1.87l0.67,1.61c0.7,1.71,1.57,3.81,1.71,4.1c0.15,0.31,0.61,1.26,0.1,2.25
		c-0.27,0.58-0.54,0.89-0.9,1.31c-0.26,0.3-0.43,0.48-0.6,0.66c-0.2,0.22-0.41,0.43-0.61,0.69c-0.35,0.41-0.35,0.41-0.23,0.62
		c0.68,1.15,2.12,3.35,4.13,5.13c2.61,2.32,4.71,3.17,5.73,3.58l0.25,0.1c0.27,0.11,0.6,0.19,0.85-0.08
		c0.45-0.49,1.03-1.29,1.64-2.15l0.36-0.51c0.64-0.9,1.43-1.09,1.98-1.09c0.32,0,0.65,0.06,1,0.19c0.85,0.3,5.34,2.53,5.38,2.55
		l0.43,0.21c0.64,0.31,1.15,0.55,1.44,1.06c0.42,0.73,0.25,2.64-0.38,4.45c-0.76,2.16-3.61,3.85-5.89,4.34
		C37.2,42.97,36.66,43.07,35.94,43.07z M17.2,13.76c-0.87,0-1.65,0.26-2.06,0.68c-0.85,0.86-2.46,2.5-2.46,5.83
		c0,2.17,1.07,4.87,2.94,7.43l0.21,0.3c3.66,5.31,8.16,9.27,12.67,11.13c3.47,1.44,5.83,2.11,7.44,2.11l0,0
		c0.55,0,0.96-0.08,1.33-0.16c1.78-0.38,4.03-1.7,4.54-3.16c0.56-1.57,0.55-2.78,0.48-3.02c0,0.06-0.33-0.1-0.6-0.23l-0.46-0.22
		c-1.29-0.64-4.61-2.27-5.19-2.47c-0.15-0.06-0.27-0.08-0.37-0.08c-0.08,0-0.25,0-0.48,0.33l-0.37,0.51
		c-0.64,0.9-1.25,1.75-1.79,2.33c-0.69,0.74-1.88,0.94-2.9,0.52l-0.23-0.1c-1.02-0.41-3.41-1.38-6.26-3.91
		c-2.19-1.95-3.76-4.33-4.49-5.58c-0.78-1.34,0.01-2.26,0.39-2.7c0.24-0.3,0.47-0.55,0.71-0.8c0.15-0.16,0.31-0.33,0.47-0.51
		c0.41-0.47,0.55-0.63,0.73-1.01c0.05-0.1,0.08-0.25-0.11-0.65c-0.14-0.29-1.03-2.45-1.75-4.19l-0.66-1.61
		c-0.3-0.73-0.3-0.73-0.88-0.75C17.79,13.78,17.51,13.76,17.2,13.76z"/>
	<g>
		<circle class="st9" cx="11.92" cy="5.5" r="0.92"/>
	</g>
</g>
</svg>
