<?xml version="1.0" encoding="utf-8"?>
<!-- Generator: Adobe Illustrator 26.1.0, SVG Export Plug-In . SVG Version: 6.00 Build 0)  -->
<svg version="1.1" id="Layer_1" xmlns="http://www.w3.org/2000/svg" xmlns:xlink="http://www.w3.org/1999/xlink" x="0px" y="0px"
	 viewBox="0 0 55 55" style="enable-background:new 0 0 55 55;" xml:space="preserve">
<style type="text/css">
	.st0{fill:url(#SVGID_1_);}
	.st1{fill:#F4E203;}
	.st2{fill:url(#SVGID_00000011018720997158846180000011112876514077474458_);}
	.st3{fill:#FC00C1;}
	.st4{fill:url(#SVGID_00000119106265309300018300000001714136713288591776_);}
	.st5{opacity:0.3;}
	.st6{fill:#FFD800;}
	.st7{fill:#FFED00;}
	.st8{fill-rule:evenodd;clip-rule:evenodd;fill:#FFFF00;}
	.st9{fill:#FFFF00;}
	.st10{fill:#161616;}
	.st11{fill:none;}
	.st12{fill:none;stroke:#FFFF00;stroke-width:0;stroke-linecap:round;stroke-linejoin:round;}
	.st13{fill:none;stroke:#D15D0F;stroke-width:0;stroke-linecap:round;stroke-linejoin:round;}
	.st14{fill:#D15D0F;}
	.st15{fill:url(#SVGID_00000021120227014625842660000004101814495922664349_);}
	.st16{fill:#06DCF2;}
	.st17{fill:url(#SVGID_00000093897893740448380010000018428632901053463487_);}
	.st18{fill:#9500FF;}
	.st19{fill:#474747;}
	.st20{fill:url(#SVGID_00000127032345730578632050000000781296112996210866_);}
	.st21{fill:none;stroke:#FFFF00;stroke-width:2;stroke-miterlimit:10;}
	.st22{fill:none;stroke:#FFFF00;stroke-width:2;stroke-linecap:round;stroke-miterlimit:10;}
	.st23{fill:none;stroke:#FFFFFF;stroke-width:1.5;stroke-miterlimit:10;}
	.st24{fill:none;stroke:#FDFA4C;stroke-width:1.5;stroke-miterlimit:10;}
	.st25{fill:url(#SVGID_00000024681528211443085490000012505117659999462832_);}
	.st26{opacity:0.3;fill:#FFFF00;}
	.st27{fill:none;stroke:#6D6D6D;stroke-width:10;stroke-linecap:round;stroke-miterlimit:10;}
	.st28{fill:#6D6D6D;}
	.st29{fill:url(#SVGID_00000013887406377837115460000006632909320676683170_);}
	.st30{fill:url(#SVGID_00000110440480589887004020000005863875802901468572_);}
	.st31{fill:none;stroke:#FC00C1;stroke-width:2;stroke-miterlimit:10;}
	.st32{fill:url(#SVGID_00000039823690472697540250000002942490550204947087_);}
	.st33{fill:url(#SVGID_00000013174677776784098190000005364588868978891423_);}
	.st34{opacity:0.5;fill:#FF2C8E;}
	.st35{fill:none;stroke:#FFFFFF;stroke-miterlimit:10;}
	.st36{fill:url(#SVGID_00000016051130530562462850000002827979468226808982_);}
	.st37{clip-path:url(#SVGID_00000117643776989344570000000010740142869169021610_);}
	.st38{fill:none;stroke:#FFFF00;stroke-miterlimit:10;}
	.st39{fill:none;stroke:#FFFF00;stroke-miterlimit:10;stroke-dasharray:8.1071,8.1071;}
	.st40{fill:none;stroke:#FFFF00;stroke-miterlimit:10;stroke-dasharray:8;}
	.st41{fill:none;stroke:#FC00C1;stroke-miterlimit:10;}
	.st42{fill:none;stroke:#FC00C1;stroke-width:3;stroke-miterlimit:10;}
	.st43{fill:#282828;stroke:#FC00C1;stroke-miterlimit:10;}
	.st44{fill:#FFFFFF;}
	.st45{fill:none;stroke:#FFFFFF;stroke-width:2;stroke-miterlimit:10;}
	.st46{clip-path:url(#SVGID_00000178897662466914704670000012718711047540612282_);}
	.st47{clip-path:url(#SVGID_00000150069381036281830480000017195738546220176015_);}
	.st48{fill:none;stroke:#FFFF00;stroke-miterlimit:10;stroke-dasharray:8.041,8.041;}
	.st49{clip-path:url(#SVGID_00000161617599117076349980000018094705976093667773_);}
	.st50{clip-path:url(#SVGID_00000155118603470374674720000001340576145083531180_);}
</style>
<g>
	<g>
		<g>
			<path class="st9" d="M27.51,55C12.83,55,0,44.77,0,27.5c0-7.47,2.96-14.47,8.32-19.69c0.36-0.35,0.94-0.34,1.3,0.02
				c0.35,0.36,0.34,0.94-0.02,1.3C4.59,14,1.83,20.53,1.83,27.5c0,18.34,15.32,25.67,25.67,25.67c14.15,0,25.66-11.51,25.66-25.67
				c0-14.15-11.51-25.67-25.66-25.67c0,0,0,0-0.01,0c-3.97,0-7.77,0.88-11.3,2.62c-0.45,0.22-1,0.04-1.23-0.42s-0.04-1,0.42-1.23
				C19.18,0.95,23.25,0,27.49,0C42.67,0,55,12.34,55,27.5S42.67,55,27.51,55z"/>
			<g>
				<circle class="st9" cx="11.92" cy="5.5" r="0.92"/>
			</g>
		</g>
		<path class="st9" d="M42.02,40.2l-7.44-7.44c1.8-2.09,2.9-4.8,2.9-7.76c0-6.57-5.34-11.91-11.91-11.91S13.65,18.43,13.65,25
			S19,36.91,25.56,36.91c2.88,0,5.53-1.03,7.6-2.74l7.45,7.45c0.2,0.2,0.45,0.29,0.71,0.29s0.51-0.1,0.71-0.29
			C42.41,41.23,42.41,40.59,42.02,40.2z M15.65,25c0-5.47,4.45-9.91,9.91-9.91s9.91,4.45,9.91,9.91s-4.45,9.91-9.91,9.91
			S15.65,30.47,15.65,25z"/>
	</g>
</g>
</svg>
