<?xml version="1.0" encoding="utf-8"?>
<!-- Generator: Adobe Illustrator 26.1.0, SVG Export Plug-In . SVG Version: 6.00 Build 0)  -->
<svg version="1.1" id="Layer_1" xmlns="http://www.w3.org/2000/svg" xmlns:xlink="http://www.w3.org/1999/xlink" x="0px" y="0px"
	 viewBox="0 0 78 78" style="enable-background:new 0 0 78 78;" xml:space="preserve">
<style type="text/css">
	.st0{fill:#141414;}
	.st1{fill:url(#SVGID_1_);}
	.st2{fill:#FFFF00;}
	.st3{fill:#2D2D2D;}
	.st4{fill:url(#SVGID_00000108301593221355363080000005076507358901906321_);}
	.st5{fill:#F4E203;}
	.st6{fill:#FFD800;}
	.st7{fill:#FFED00;}
	.st8{fill-rule:evenodd;clip-rule:evenodd;fill:#FFFF00;}
	.st9{fill:none;stroke:#FFFF00;stroke-width:2;stroke-miterlimit:10;}
	.st10{fill:none;stroke:#FFFF00;stroke-width:2;stroke-linecap:round;stroke-miterlimit:10;}
	.st11{opacity:0.7;}
	.st12{fill:#1C1C1C;}
	.st13{opacity:0.7;fill:#FFFF00;}
	.st14{fill:url(#SVGID_00000060002977528108582620000000542551446686951069_);}
	.st15{opacity:0.3;}
	.st16{fill:#FFFFFF;}
	.st17{fill:none;stroke:#FFFF00;stroke-miterlimit:10;}
	.st18{fill:none;stroke:#FFFF00;stroke-miterlimit:10;stroke-dasharray:8;}
	.st19{fill:none;stroke:#FFFF00;stroke-miterlimit:10;stroke-dasharray:8.1071,8.1071;}
	.st20{fill:none;stroke:#FC00C1;stroke-miterlimit:10;}
	.st21{fill:#FC00C1;}
	.st22{fill:none;stroke:#FC00C1;stroke-width:3;stroke-miterlimit:10;}
	.st23{fill:none;stroke:#3FFF00;stroke-miterlimit:10;}
	.st24{fill:#3FFF00;}
	.st25{clip-path:url(#SVGID_00000028318937655242709010000007708446516786288298_);}
</style>
<g>
	<path class="st2" d="M38.99,0C32.97,0,27.2,1.34,21.83,3.98c-0.65,0.32-0.91,1.1-0.59,1.74c0.32,0.64,1.09,0.9,1.74,0.59
		C27.98,3.85,33.37,2.6,39,2.6c0,0,0.01,0,0.01,0C59.08,2.6,75.4,18.93,75.4,39c0,20.07-16.32,36.4-36.39,36.4
		c-8.75,0-19.99-3.69-27.66-12.17L25.9,48.69H41l16.94-16.94v9.92c0,0.78,0.63,1.42,1.42,1.42s1.42-0.63,1.42-1.42V27.02H46.12
		c-0.78,0-1.42,0.63-1.42,1.42c0,0.78,0.63,1.42,1.42,1.42h9.69L39.82,45.85h-15.1L9.54,61.03C5.35,55.5,2.6,48.24,2.6,39
		c0-9.89,3.91-19.15,11.01-26.07c0.51-0.5,0.52-1.32,0.03-1.84c-0.5-0.51-1.33-0.52-1.84-0.02C4.19,18.48,0,28.4,0,39
		c0,9.66,2.84,17.75,7.54,24.03l-0.13,0.13l1.02,1.02C15.71,73.09,26.92,78,39.01,78C60.51,78,78,60.5,78,39
		C78,17.5,60.51,0,38.99,0z"/>
	<path class="st2" d="M16.9,9.1c0.72,0,1.3-0.58,1.3-1.3c0-0.72-0.58-1.3-1.3-1.3c-0.72,0-1.3,0.58-1.3,1.3
		C15.6,8.52,16.18,9.1,16.9,9.1z"/>
</g>
</svg>
