<?xml version="1.0" encoding="utf-8"?>
<!-- Generator: Adobe Illustrator 26.1.0, SVG Export Plug-In . SVG Version: 6.00 Build 0)  -->
<svg version="1.1" id="Layer_1" xmlns="http://www.w3.org/2000/svg" xmlns:xlink="http://www.w3.org/1999/xlink" x="0px" y="0px"
	 viewBox="0 0 20.66 19.31" style="enable-background:new 0 0 20.66 19.31;" xml:space="preserve">
<style type="text/css">
	.st0{fill:url(#SVGID_1_);}
	.st1{opacity:0.3;}
	.st2{fill:#FFD800;}
	.st3{fill:#FFED00;}
	.st4{fill-rule:evenodd;clip-rule:evenodd;fill:#FFFF00;}
	.st5{fill:#FFFF00;}
	.st6{fill:#FC00C1;}
	.st7{fill:none;stroke:#FFFF00;stroke-width:2;stroke-miterlimit:10;}
	.st8{fill:none;stroke:#FFFF00;stroke-width:2;stroke-linecap:round;stroke-miterlimit:10;}
	.st9{fill:url(#SVGID_00000124877899009618900640000001133270362932746140_);}
	.st10{opacity:0.7;}
	.st11{fill:#1C1C1C;}
	.st12{fill:#F703BE;}
	.st13{fill:#FFFFFF;}
	.st14{opacity:0.7;fill:#FFFF00;}
	.st15{opacity:0.8;fill:#FF2C8E;}
	.st16{clip-path:url(#SVGID_00000099636076244078770850000007443004145180154283_);}
	.st17{fill:none;stroke:#FFFF00;stroke-miterlimit:10;}
	.st18{fill:none;stroke:#FFFF00;stroke-miterlimit:10;stroke-dasharray:8.041,8.041;}
	.st19{fill:none;stroke:#FFFFFF;stroke-miterlimit:10;}
	.st20{fill:none;stroke:#FFFF00;stroke-miterlimit:10;stroke-dasharray:8.1071,8.1071;}
	.st21{fill:none;stroke:#FFFF00;stroke-miterlimit:10;stroke-dasharray:8;}
	.st22{fill:none;stroke:#FC00C1;stroke-miterlimit:10;}
	.st23{fill:none;stroke:#FC00C1;stroke-width:3;stroke-miterlimit:10;}
	.st24{fill:#282828;stroke:#FC00C1;stroke-miterlimit:10;}
	.st25{fill:none;stroke:#FFFFFF;stroke-width:2;stroke-miterlimit:10;}
	.st26{fill:none;}
</style>
<path class="st6" d="M15.56,19.31L15.56,19.31c-1.15,0-2.75-0.44-5.05-1.39c-2.99-1.24-5.96-3.84-8.36-7.31l-0.09-0.12
	C1.28,9.41,0,7.33,0,5.17C0,2.64,1.27,1.35,1.81,0.8C2.32,0.28,3.08,0,3.94,0c0.22,0,0.41,0.01,0.59,0.02
	c0.72,0.03,1.14,0.21,1.54,1.16l0.41,1c0.44,1.06,0.97,2.36,1.06,2.54c0.09,0.19,0.38,0.78,0.06,1.4C7.43,6.48,7.26,6.67,7.04,6.93
	c-0.16,0.18-0.26,0.3-0.37,0.41C6.54,7.48,6.41,7.61,6.29,7.77C6.07,8.02,6.07,8.02,6.14,8.15c0.42,0.71,1.32,2.07,2.56,3.18
	c1.62,1.44,2.92,1.97,3.55,2.22l0.16,0.06c0.16,0.07,0.37,0.12,0.53-0.05c0.28-0.3,0.64-0.8,1.02-1.33l0.23-0.32
	c0.4-0.56,0.89-0.68,1.23-0.68c0.2,0,0.41,0.04,0.62,0.12c0.53,0.18,3.31,1.57,3.34,1.58l0.27,0.13c0.4,0.19,0.71,0.34,0.89,0.66
	c0.26,0.45,0.16,1.64-0.24,2.76c-0.47,1.34-2.24,2.39-3.65,2.69C16.35,19.25,16.01,19.31,15.56,19.31z M3.94,1.14
	c-0.54,0-1.03,0.16-1.28,0.42C2.14,2.09,1.14,3.1,1.14,5.17c0,1.34,0.67,3.02,1.82,4.61l0.13,0.19c2.27,3.29,5.06,5.75,7.86,6.9
	c2.15,0.89,3.62,1.31,4.61,1.31l0,0c0.34,0,0.59-0.05,0.83-0.1c1.11-0.24,2.5-1.06,2.82-1.96c0.35-0.97,0.34-1.72,0.3-1.87
	c0,0.04-0.21-0.06-0.37-0.14l-0.28-0.14c-0.8-0.4-2.86-1.41-3.22-1.53c-0.1-0.04-0.17-0.05-0.23-0.05c-0.05,0-0.16,0-0.3,0.2
	l-0.23,0.32c-0.4,0.56-0.78,1.09-1.11,1.45c-0.43,0.46-1.16,0.59-1.8,0.32l-0.14-0.06c-0.63-0.26-2.12-0.86-3.88-2.43
	C6.58,10.98,5.61,9.5,5.15,8.73C4.67,7.9,5.16,7.33,5.4,7.06c0.15-0.19,0.29-0.34,0.44-0.49c0.1-0.1,0.19-0.2,0.29-0.32
	c0.26-0.29,0.34-0.39,0.45-0.63c0.03-0.06,0.05-0.16-0.07-0.4C6.42,5.04,5.87,3.7,5.42,2.62l-0.41-1C4.83,1.17,4.83,1.17,4.47,1.16
	C4.3,1.15,4.13,1.14,3.94,1.14z"/>
</svg>
