<?xml version="1.0" encoding="utf-8"?>
<!-- Generator: Adobe Illustrator 26.1.0, SVG Export Plug-In . SVG Version: 6.00 Build 0)  -->
<svg version="1.1" id="Layer_1" xmlns="http://www.w3.org/2000/svg" xmlns:xlink="http://www.w3.org/1999/xlink" x="0px" y="0px"
	 viewBox="0 0 20.43 20.43" style="enable-background:new 0 0 20.43 20.43;" xml:space="preserve">
<style type="text/css">
	.st0{fill:url(#SVGID_1_);}
	.st1{opacity:0.3;}
	.st2{fill:#FFD800;}
	.st3{fill:#FFED00;}
	.st4{fill-rule:evenodd;clip-rule:evenodd;fill:#FFFF00;}
	.st5{fill:#FFFF00;}
	.st6{fill:#FC00C1;}
	.st7{fill:none;stroke:#FFFF00;stroke-width:2;stroke-miterlimit:10;}
	.st8{fill:none;stroke:#FFFF00;stroke-width:2;stroke-linecap:round;stroke-miterlimit:10;}
	.st9{fill:url(#SVGID_00000040555065503562953500000004582028361407251386_);}
	.st10{opacity:0.7;}
	.st11{fill:#1C1C1C;}
	.st12{fill:#F703BE;}
	.st13{fill:#FFFFFF;}
	.st14{opacity:0.7;fill:#FFFF00;}
	.st15{opacity:0.8;fill:#FF2C8E;}
	.st16{clip-path:url(#SVGID_00000034808480746830351560000017962446514813563541_);}
	.st17{fill:none;stroke:#FFFF00;stroke-miterlimit:10;}
	.st18{fill:none;stroke:#FFFF00;stroke-miterlimit:10;stroke-dasharray:8.041,8.041;}
	.st19{fill:none;stroke:#FFFFFF;stroke-miterlimit:10;}
	.st20{fill:none;stroke:#FFFF00;stroke-miterlimit:10;stroke-dasharray:8.1071,8.1071;}
	.st21{fill:none;stroke:#FFFF00;stroke-miterlimit:10;stroke-dasharray:8;}
	.st22{fill:none;stroke:#FC00C1;stroke-miterlimit:10;}
	.st23{fill:none;stroke:#FC00C1;stroke-width:3;stroke-miterlimit:10;}
	.st24{fill:#282828;stroke:#FC00C1;stroke-miterlimit:10;}
	.st25{fill:none;stroke:#FFFFFF;stroke-width:2;stroke-miterlimit:10;}
	.st26{fill:none;}
</style>
<g>
	<path class="st6" d="M10.21,0C4.58,0,0,4.58,0,10.21s4.58,10.21,10.21,10.21s10.21-4.58,10.21-10.21S15.84,0,10.21,0z M10.21,19.43
		C5.13,19.43,1,15.29,1,10.21S5.13,1,10.21,1s9.21,4.13,9.21,9.21S15.29,19.43,10.21,19.43z"/>
	<path class="st6" d="M18.12,9.71h-6.67c-0.14-0.34-0.4-0.6-0.74-0.74V4.69c0-0.28-0.22-0.5-0.5-0.5s-0.5,0.22-0.5,0.5v4.29
		c-0.49,0.2-0.84,0.68-0.84,1.24c0,0.74,0.6,1.34,1.34,1.34c0.56,0,1.04-0.35,1.24-0.84h6.67c0.28,0,0.5-0.22,0.5-0.5
		S18.4,9.71,18.12,9.71z"/>
</g>
</svg>
