<?xml version="1.0" encoding="utf-8"?>
<!-- Generator: Adobe Illustrator 26.1.0, SVG Export Plug-In . SVG Version: 6.00 Build 0)  -->
<svg version="1.1" id="Layer_1" xmlns="http://www.w3.org/2000/svg" xmlns:xlink="http://www.w3.org/1999/xlink" x="0px" y="0px"
	 viewBox="0 0 25.14 23.32" style="enable-background:new 0 0 25.14 23.32;" xml:space="preserve">
<style type="text/css">
	.st0{fill:#FC00C1;}
	.st1{fill:#FFD800;}
	.st2{fill:#FFED00;}
	.st3{fill-rule:evenodd;clip-rule:evenodd;fill:#FFFF00;}
	.st4{fill:#FFFF00;}
	.st5{fill:none;stroke:#FFFF00;stroke-miterlimit:10;}
	.st6{fill:none;stroke:#FFFF00;stroke-miterlimit:10;stroke-dasharray:8.1071,8.1071;}
	.st7{fill:none;stroke:#FFFF00;stroke-miterlimit:10;stroke-dasharray:8;}
	.st8{fill:none;stroke:#FC00C1;stroke-miterlimit:10;}
	.st9{fill:none;stroke:#FC00C1;stroke-width:3;stroke-miterlimit:10;}
</style>
<g>
	<g>
		<path class="st0" d="M19.39,23.32c-1.22,0-3.33-0.32-6.45-1.82c-4.11-1.98-8.12-6.07-10.11-9.04C1.12,9.92,0.21,7.83,0.05,6.09
			c-0.27-2.99,0.63-4.04,1.5-4.79c1.59-1.37,2.84-1.31,3.37-1.29C5.45,0.03,6.1,0.05,6.48,0.97l1.01,2.45
			c0.36,0.87,0.6,1.48,0.69,1.65C8.68,6.23,8.36,7.21,7.9,7.75C7.77,7.89,7.64,8.03,7.52,8.16C7.28,8.42,7.1,8.6,6.92,8.83
			c-0.24,0.28-0.49,0.97,0.01,1.84c0.64,1.07,1.69,2.69,3.44,4.25c2.32,2.06,3.33,2.41,4.62,2.84c0.75,0.25,1.5,0.13,1.9-0.3
			c0.15-0.19,0.31-0.42,0.46-0.63c0.77-1.1,1.65-2.34,3.89-1.5c0.54,0.2,2.42,1.06,3.24,1.59c0.94,0.62,0.68,1.72,0.31,3.26
			l-0.03,0.1c-0.98,2.09-2.53,2.57-4.16,2.93C20.27,23.25,19.9,23.32,19.39,23.32z M4.66,1C4.11,1,3.3,1.12,2.2,2.06l0,0
			C1.64,2.54,0.8,3.26,1.05,6c0.14,1.56,1.02,3.55,2.61,5.92c1.92,2.86,5.77,6.79,9.71,8.69c2.95,1.42,4.9,1.72,6.02,1.72
			c0.41,0,0.72-0.06,1.01-0.12c1.46-0.32,2.65-0.69,3.44-2.33c0.36-1.53,0.38-1.95,0.1-2.14c-0.77-0.51-2.58-1.32-3.04-1.49
			c-1.53-0.57-1.95,0.04-2.73,1.14c-0.16,0.23-0.33,0.47-0.52,0.71c-0.7,0.75-1.86,0.98-2.98,0.6c-1.34-0.45-2.5-0.84-4.97-3.04
			c-1.85-1.65-2.96-3.35-3.63-4.49C5.34,9.9,5.66,8.77,6.15,8.19c0.19-0.23,0.38-0.44,0.57-0.64c0.18-0.19,0.3-0.32,0.42-0.46
			c0.13-0.15,0.52-0.71,0.12-1.6C7.18,5.32,6.93,4.7,6.56,3.8L5.55,1.35C5.42,1.03,5.36,1.03,4.93,1.01C4.85,1.01,4.76,1,4.66,1z"/>
	</g>
</g>
</svg>
