<?xml version="1.0" encoding="utf-8"?>
<!-- Generator: Adobe Illustrator 26.1.0, SVG Export Plug-In . SVG Version: 6.00 Build 0)  -->
<svg version="1.1" id="Layer_1" xmlns="http://www.w3.org/2000/svg" xmlns:xlink="http://www.w3.org/1999/xlink" x="0px" y="0px"
	 viewBox="0 0 1920 1080" style="enable-background:new 0 0 1920 1080;" xml:space="preserve">
<style type="text/css">
	.st0{fill:url(#SVGID_1_);}
	.st1{fill:#282828;}
	.st2{fill:#0C0C0C;}
	.st3{fill:url(#SVGID_00000089550692340645382540000000425150929352019645_);}
	.st4{opacity:0.7;fill:#FFFF00;}
	.st5{fill:url(#SVGID_00000116952529819014181070000018185063171656909992_);}
	.st6{opacity:0.3;}
	.st7{fill:#FFD800;}
	.st8{fill:#FFED00;}
	.st9{fill-rule:evenodd;clip-rule:evenodd;fill:#FFFF00;}
	.st10{fill:#FFFF00;}
	.st11{fill:#FC00C1;}
	.st12{fill:none;stroke:#FFFF00;stroke-width:2;stroke-miterlimit:10;}
	.st13{fill:none;stroke:#FFFF00;stroke-width:2;stroke-linecap:round;stroke-miterlimit:10;}
	.st14{opacity:0.7;}
	.st15{fill:#1C1C1C;}
	.st16{fill:#FFFFFF;}
	.st17{fill:#FF33D9;}
	.st18{fill:none;stroke:#FFFF00;stroke-miterlimit:10;}
	.st19{fill:none;stroke:#FFFF00;stroke-miterlimit:10;stroke-dasharray:8,8;}
	.st20{fill:none;stroke:#FFFFFF;stroke-miterlimit:10;}
	.st21{fill:none;stroke:#FFFF00;stroke-miterlimit:10;stroke-dasharray:8.1071,8.1071;}
	.st22{fill:none;stroke:#FFFF00;stroke-miterlimit:10;stroke-dasharray:8;}
	.st23{fill:none;stroke:#FC00C1;stroke-miterlimit:10;}
	.st24{fill:none;stroke:#FC00C1;stroke-width:3;stroke-miterlimit:10;}
	.st25{fill:#282828;stroke:#FC00C1;stroke-miterlimit:10;}
	.st26{fill:none;stroke:#FFFFFF;stroke-width:2;stroke-miterlimit:10;}
	.st27{fill:none;}
	.st28{fill:none;stroke:#3FFF00;stroke-miterlimit:10;}
	.st29{fill:#3FFF00;}
	.st30{fill:none;stroke:#3FFF00;stroke-width:2;stroke-miterlimit:10;}
	.st31{fill:url(#SVGID_00000008827590951786199140000018330424482843660990_);}
	.st32{fill:none;stroke:#2CFF00;stroke-width:1.5;stroke-miterlimit:10;}
	.st33{fill:#2CFF00;}
	.st34{clip-path:url(#SVGID_00000158714806153507360950000001275245230599684767_);}
	.st35{fill:none;stroke:#FFFF00;stroke-width:1.3;stroke-miterlimit:10;}
	.st36{fill:none;stroke:#FFFF00;stroke-width:1.3;stroke-linecap:round;stroke-miterlimit:10;}
	.st37{fill:url(#SVGID_00000115494727038426563700000010591687235325583763_);}
	.st38{fill:none;stroke:#FFFF00;stroke-width:1.8;stroke-miterlimit:10;}
	.st39{fill:#161616;}
	.st40{opacity:0.9;fill:#0F0F0F;}
</style>
<g>
	<g>
		<polygon class="st1" points="191.11,201.49 159.89,201.49 144.27,228.54 159.89,255.58 191.11,255.58 206.73,228.54 		"/>
	</g>
	<g>
		<polygon class="st1" points="289.16,201.49 257.94,201.49 242.33,228.54 257.94,255.58 289.16,255.58 304.78,228.54 		"/>
	</g>
	<g>
		<polygon class="st1" points="93.14,201.49 61.91,201.49 46.3,228.54 61.91,255.58 93.14,255.58 108.75,228.54 		"/>
	</g>
	<g>
		<polygon class="st1" points="240.12,173.19 208.89,173.19 193.28,200.23 208.89,227.27 240.12,227.27 255.73,200.23 		"/>
	</g>
	<g>
		<polygon class="st1" points="338.19,173.19 306.96,173.19 291.35,200.23 306.96,227.27 338.19,227.27 353.8,200.23 		"/>
	</g>
	<g>
		<polygon class="st1" points="240.14,229.79 208.92,229.79 193.3,256.83 208.92,283.88 240.14,283.88 255.76,256.83 		"/>
	</g>
	<g>
		<polygon class="st1" points="142.09,173.19 110.87,173.19 95.25,200.23 110.87,227.27 142.09,227.27 157.71,200.23 		"/>
	</g>
	<g>
		<polygon class="st1" points="142.12,229.79 110.89,229.79 95.28,256.83 110.89,283.88 142.12,283.88 157.73,256.83 		"/>
	</g>
	<g>
		<polygon class="st1" points="44.1,173.19 12.87,173.19 -2.74,200.23 12.87,227.27 44.1,227.27 59.71,200.23 		"/>
	</g>
	<g>
		<polygon class="st1" points="44.12,229.79 12.89,229.79 -2.72,256.83 12.89,283.88 44.12,283.88 59.73,256.83 		"/>
	</g>
	<g>
		<polygon class="st1" points="240.16,286.4 208.93,286.4 193.32,313.44 208.93,340.48 240.16,340.48 255.77,313.44 		"/>
	</g>
	<g>
		<polygon class="st1" points="142.12,286.4 110.89,286.4 95.28,313.44 110.89,340.48 142.12,340.48 157.73,313.44 		"/>
	</g>
	<g>
		<polygon class="st1" points="289.16,258.09 257.94,258.09 242.33,285.14 257.94,312.18 289.16,312.18 304.78,285.14 		"/>
	</g>
	<g>
		<polygon class="st1" points="289.19,314.7 257.96,314.7 242.35,341.74 257.96,368.78 289.19,368.78 304.8,341.74 		"/>
	</g>
	<g>
		<polygon class="st1" points="191.14,258.09 159.91,258.09 144.3,285.14 159.91,312.18 191.14,312.18 206.75,285.14 		"/>
	</g>
	<g>
		<polygon class="st1" points="191.16,314.7 159.94,314.7 144.32,341.74 159.94,368.78 191.16,368.78 206.78,341.74 		"/>
	</g>
	<g>
		<polygon class="st1" points="44.11,286.4 12.88,286.4 -2.73,313.44 12.88,340.48 44.11,340.48 59.72,313.44 		"/>
	</g>
	<g>
		<polygon class="st1" points="93.11,258.09 61.89,258.09 46.27,285.14 61.89,312.18 93.11,312.18 108.73,285.14 		"/>
	</g>
	<g>
		<polygon class="st1" points="93.14,314.7 61.91,314.7 46.3,341.74 61.91,368.78 93.14,368.78 108.75,341.74 		"/>
	</g>
	<g>
		<polygon class="st1" points="485.19,201.49 453.96,201.49 438.35,228.54 453.96,255.58 485.19,255.58 500.8,228.54 		"/>
	</g>
	<g>
		<polygon class="st1" points="583.24,201.49 552.01,201.49 536.4,228.54 552.01,255.58 583.24,255.58 598.85,228.54 		"/>
	</g>
	<g>
		<polygon class="st1" points="387.21,201.49 355.99,201.49 340.37,228.54 355.99,255.58 387.21,255.58 402.83,228.54 		"/>
	</g>
	<g>
		<polygon class="st1" points="534.19,173.19 502.97,173.19 487.35,200.23 502.97,227.27 534.19,227.27 549.81,200.23 		"/>
	</g>
	<g>
		<polygon class="st1" points="534.22,229.79 502.99,229.79 487.38,256.83 502.99,283.88 534.22,283.88 549.83,256.83 		"/>
	</g>
	<g>
		<polygon class="st1" points="436.17,173.19 404.94,173.19 389.33,200.23 404.94,227.27 436.17,227.27 451.78,200.23 		"/>
	</g>
	<g>
		<polygon class="st1" points="436.19,229.79 404.97,229.79 389.35,256.83 404.97,283.88 436.19,283.88 451.81,256.83 		"/>
	</g>
	<g>
		<polygon class="st1" points="338.17,229.79 306.94,229.79 291.33,256.83 306.94,283.88 338.17,283.88 353.78,256.83 		"/>
	</g>
	<g>
		<polygon class="st1" points="534.24,286.4 503.01,286.4 487.4,313.44 503.01,340.48 534.24,340.48 549.85,313.44 		"/>
	</g>
	<g>
		<polygon class="st1" points="436.21,286.4 404.98,286.4 389.37,313.44 404.98,340.48 436.21,340.48 451.82,313.44 		"/>
	</g>
	<g>
		<polygon class="st1" points="583.24,258.09 552.01,258.09 536.4,285.14 552.01,312.18 583.24,312.18 598.85,285.14 		"/>
	</g>
	<g>
		<polygon class="st1" points="583.26,314.7 552.04,314.7 536.42,341.74 552.04,368.78 583.26,368.78 598.88,341.74 		"/>
	</g>
	<g>
		<polygon class="st1" points="485.22,258.09 453.99,258.09 438.38,285.14 453.99,312.18 485.22,312.18 500.83,285.14 		"/>
	</g>
	<g>
		<polygon class="st1" points="485.24,314.7 454.01,314.7 438.4,341.74 454.01,368.78 485.24,368.78 500.85,341.74 		"/>
	</g>
	<g>
		<polygon class="st1" points="338.19,286.4 306.96,286.4 291.35,313.44 306.96,340.48 338.19,340.48 353.8,313.44 		"/>
	</g>
	<g>
		<polygon class="st1" points="387.19,258.09 355.96,258.09 340.35,285.14 355.96,312.18 387.19,312.18 402.8,285.14 		"/>
	</g>
	<g>
		<polygon class="st1" points="387.21,314.7 355.99,314.7 340.37,341.74 355.99,368.78 387.21,368.78 402.83,341.74 		"/>
	</g>
	<g>
		<polygon class="st1" points="191.11,31.68 159.89,31.68 144.27,58.73 159.89,85.77 191.11,85.77 206.73,58.73 		"/>
	</g>
	<g>
		<polygon class="st1" points="289.16,31.68 257.94,31.68 242.33,58.73 257.94,85.77 289.16,85.77 304.78,58.73 		"/>
	</g>
	<g>
		<polygon class="st1" points="93.14,31.68 61.91,31.68 46.3,58.73 61.91,85.77 93.14,85.77 108.75,58.73 		"/>
	</g>
	<g>
		<polygon class="st1" points="240.12,3.38 208.89,3.38 193.28,30.42 208.89,57.47 240.12,57.47 255.73,30.42 		"/>
	</g>
	<g>
		<polygon class="st1" points="338.19,3.38 306.96,3.38 291.35,30.42 306.96,57.47 338.19,57.47 353.8,30.42 		"/>
	</g>
	<g>
		<polygon class="st1" points="240.14,59.98 208.92,59.98 193.3,87.03 208.92,114.07 240.14,114.07 255.76,87.03 		"/>
	</g>
	<g>
		<polygon class="st1" points="142.09,3.38 110.87,3.38 95.25,30.42 110.87,57.47 142.09,57.47 157.71,30.42 		"/>
	</g>
	<g>
		<polygon class="st1" points="142.12,59.98 110.89,59.98 95.28,87.03 110.89,114.07 142.12,114.07 157.73,87.03 		"/>
	</g>
	<g>
		<polygon class="st1" points="44.1,3.38 12.87,3.38 -2.74,30.42 12.87,57.47 44.1,57.47 59.71,30.42 		"/>
	</g>
	<g>
		<polygon class="st1" points="44.12,59.98 12.89,59.98 -2.72,87.03 12.89,114.07 44.12,114.07 59.73,87.03 		"/>
	</g>
	<g>
		<polygon class="st1" points="240.16,116.59 208.93,116.59 193.32,143.63 208.93,170.68 240.16,170.68 255.77,143.63 		"/>
	</g>
	<g>
		<polygon class="st1" points="142.12,116.59 110.89,116.59 95.28,143.63 110.89,170.68 142.12,170.68 157.73,143.63 		"/>
	</g>
	<g>
		<polygon class="st1" points="289.16,88.29 257.94,88.29 242.33,115.33 257.94,142.37 289.16,142.37 304.78,115.33 		"/>
	</g>
	<g>
		<polygon class="st1" points="289.19,144.89 257.96,144.89 242.35,171.93 257.96,198.98 289.19,198.98 304.8,171.93 		"/>
	</g>
	<g>
		<polygon class="st1" points="191.14,88.29 159.91,88.29 144.3,115.33 159.91,142.37 191.14,142.37 206.75,115.33 		"/>
	</g>
	<g>
		<polygon class="st1" points="191.16,144.89 159.94,144.89 144.32,171.93 159.94,198.98 191.16,198.98 206.78,171.93 		"/>
	</g>
	<g>
		<polygon class="st1" points="44.11,116.59 12.88,116.59 -2.73,143.63 12.88,170.68 44.11,170.68 59.72,143.63 		"/>
	</g>
	<g>
		<polygon class="st1" points="93.11,88.29 61.89,88.29 46.27,115.33 61.89,142.37 93.11,142.37 108.73,115.33 		"/>
	</g>
	<g>
		<polygon class="st1" points="93.14,144.89 61.91,144.89 46.3,171.93 61.91,198.98 93.14,198.98 108.75,171.93 		"/>
	</g>
	<g>
		<polygon class="st1" points="485.19,31.68 453.96,31.68 438.35,58.73 453.96,85.77 485.19,85.77 500.8,58.73 		"/>
	</g>
	<g>
		<polygon class="st1" points="583.24,31.68 552.01,31.68 536.4,58.73 552.01,85.77 583.24,85.77 598.85,58.73 		"/>
	</g>
	<g>
		<polygon class="st1" points="387.21,31.68 355.99,31.68 340.37,58.73 355.99,85.77 387.21,85.77 402.83,58.73 		"/>
	</g>
	<g>
		<polygon class="st1" points="534.19,3.38 502.97,3.38 487.35,30.42 502.97,57.47 534.19,57.47 549.81,30.42 		"/>
	</g>
	<g>
		<polygon class="st1" points="534.22,59.98 502.99,59.98 487.38,87.03 502.99,114.07 534.22,114.07 549.83,87.03 		"/>
	</g>
	<g>
		<polygon class="st1" points="436.17,3.38 404.94,3.38 389.33,30.42 404.94,57.47 436.17,57.47 451.78,30.42 		"/>
	</g>
	<g>
		<polygon class="st1" points="436.19,59.98 404.97,59.98 389.35,87.03 404.97,114.07 436.19,114.07 451.81,87.03 		"/>
	</g>
	<g>
		<polygon class="st1" points="338.17,59.98 306.94,59.98 291.33,87.03 306.94,114.07 338.17,114.07 353.78,87.03 		"/>
	</g>
	<g>
		<polygon class="st1" points="534.24,116.59 503.01,116.59 487.4,143.63 503.01,170.68 534.24,170.68 549.85,143.63 		"/>
	</g>
	<g>
		<polygon class="st1" points="436.21,116.59 404.98,116.59 389.37,143.63 404.98,170.68 436.21,170.68 451.82,143.63 		"/>
	</g>
	<g>
		<polygon class="st1" points="583.24,88.29 552.01,88.29 536.4,115.33 552.01,142.37 583.24,142.37 598.85,115.33 		"/>
	</g>
	<g>
		<polygon class="st1" points="583.26,144.89 552.04,144.89 536.42,171.93 552.04,198.98 583.26,198.98 598.88,171.93 		"/>
	</g>
	<g>
		<polygon class="st1" points="485.22,88.29 453.99,88.29 438.38,115.33 453.99,142.37 485.22,142.37 500.83,115.33 		"/>
	</g>
	<g>
		<polygon class="st1" points="485.24,144.89 454.01,144.89 438.4,171.93 454.01,198.98 485.24,198.98 500.85,171.93 		"/>
	</g>
	<g>
		<polygon class="st1" points="338.19,116.59 306.96,116.59 291.35,143.63 306.96,170.68 338.19,170.68 353.8,143.63 		"/>
	</g>
	<g>
		<polygon class="st1" points="387.19,88.29 355.96,88.29 340.35,115.33 355.96,142.37 387.19,142.37 402.8,115.33 		"/>
	</g>
	<g>
		<polygon class="st1" points="387.21,144.89 355.99,144.89 340.37,171.93 355.99,198.98 387.21,198.98 402.83,171.93 		"/>
	</g>
	<g>
		<polygon class="st1" points="191.11,541.42 159.89,541.42 144.27,568.46 159.89,595.5 191.11,595.5 206.73,568.46 		"/>
	</g>
	<g>
		<polygon class="st1" points="289.16,541.42 257.94,541.42 242.33,568.46 257.94,595.5 289.16,595.5 304.78,568.46 		"/>
	</g>
	<g>
		<polygon class="st1" points="93.14,541.42 61.91,541.42 46.3,568.46 61.91,595.5 93.14,595.5 108.75,568.46 		"/>
	</g>
	<g>
		<polygon class="st1" points="240.12,513.11 208.89,513.11 193.28,540.15 208.89,567.2 240.12,567.2 255.73,540.15 		"/>
	</g>
	<g>
		<polygon class="st1" points="338.19,513.11 306.96,513.11 291.35,540.15 306.96,567.2 338.19,567.2 353.8,540.15 		"/>
	</g>
	<g>
		<polygon class="st1" points="240.14,569.71 208.92,569.71 193.3,596.76 208.92,623.8 240.14,623.8 255.76,596.76 		"/>
	</g>
	<g>
		<polygon class="st1" points="142.09,513.11 110.87,513.11 95.25,540.15 110.87,567.2 142.09,567.2 157.71,540.15 		"/>
	</g>
	<g>
		<polygon class="st1" points="142.12,569.71 110.89,569.71 95.28,596.76 110.89,623.8 142.12,623.8 157.73,596.76 		"/>
	</g>
	<g>
		<polygon class="st1" points="44.1,513.11 12.87,513.11 -2.74,540.15 12.87,567.2 44.1,567.2 59.71,540.15 		"/>
	</g>
	<g>
		<polygon class="st1" points="44.12,569.71 12.89,569.71 -2.72,596.76 12.89,623.8 44.12,623.8 59.73,596.76 		"/>
	</g>
	<g>
		<polygon class="st1" points="240.16,626.32 208.93,626.32 193.32,653.36 208.93,680.41 240.16,680.41 255.77,653.36 		"/>
	</g>
	<g>
		<polygon class="st1" points="142.12,626.32 110.89,626.32 95.28,653.36 110.89,680.41 142.12,680.41 157.73,653.36 		"/>
	</g>
	<g>
		<polygon class="st1" points="289.16,598.02 257.94,598.02 242.33,625.06 257.94,652.1 289.16,652.1 304.78,625.06 		"/>
	</g>
	<g>
		<polygon class="st1" points="289.19,654.62 257.96,654.62 242.35,681.66 257.96,708.71 289.19,708.71 304.8,681.66 		"/>
	</g>
	<g>
		<polygon class="st1" points="191.14,598.02 159.91,598.02 144.3,625.06 159.91,652.1 191.14,652.1 206.75,625.06 		"/>
	</g>
	<g>
		<polygon class="st1" points="191.16,654.62 159.94,654.62 144.32,681.66 159.94,708.71 191.16,708.71 206.78,681.66 		"/>
	</g>
	<g>
		<polygon class="st1" points="44.11,626.32 12.88,626.32 -2.73,653.36 12.88,680.41 44.11,680.41 59.72,653.36 		"/>
	</g>
	<g>
		<polygon class="st1" points="93.11,598.02 61.89,598.02 46.27,625.06 61.89,652.1 93.11,652.1 108.73,625.06 		"/>
	</g>
	<g>
		<polygon class="st1" points="93.14,654.62 61.91,654.62 46.3,681.66 61.91,708.71 93.14,708.71 108.75,681.66 		"/>
	</g>
	<g>
		<polygon class="st1" points="485.19,541.42 453.96,541.42 438.35,568.46 453.96,595.5 485.19,595.5 500.8,568.46 		"/>
	</g>
	<g>
		<polygon class="st1" points="583.24,541.42 552.01,541.42 536.4,568.46 552.01,595.5 583.24,595.5 598.85,568.46 		"/>
	</g>
	<g>
		<polygon class="st1" points="387.21,541.42 355.99,541.42 340.37,568.46 355.99,595.5 387.21,595.5 402.83,568.46 		"/>
	</g>
	<g>
		<polygon class="st1" points="534.19,513.11 502.97,513.11 487.35,540.15 502.97,567.2 534.19,567.2 549.81,540.15 		"/>
	</g>
	<g>
		<polygon class="st1" points="534.22,569.71 502.99,569.71 487.38,596.76 502.99,623.8 534.22,623.8 549.83,596.76 		"/>
	</g>
	<g>
		<polygon class="st1" points="436.17,513.11 404.94,513.11 389.33,540.15 404.94,567.2 436.17,567.2 451.78,540.15 		"/>
	</g>
	<g>
		<polygon class="st1" points="436.19,569.71 404.97,569.71 389.35,596.76 404.97,623.8 436.19,623.8 451.81,596.76 		"/>
	</g>
	<g>
		<polygon class="st1" points="338.17,569.71 306.94,569.71 291.33,596.76 306.94,623.8 338.17,623.8 353.78,596.76 		"/>
	</g>
	<g>
		<polygon class="st1" points="534.24,626.32 503.01,626.32 487.4,653.36 503.01,680.41 534.24,680.41 549.85,653.36 		"/>
	</g>
	<g>
		<polygon class="st1" points="436.21,626.32 404.98,626.32 389.37,653.36 404.98,680.41 436.21,680.41 451.82,653.36 		"/>
	</g>
	<g>
		<polygon class="st1" points="583.24,598.02 552.01,598.02 536.4,625.06 552.01,652.1 583.24,652.1 598.85,625.06 		"/>
	</g>
	<g>
		<polygon class="st1" points="583.26,654.62 552.04,654.62 536.42,681.66 552.04,708.71 583.26,708.71 598.88,681.66 		"/>
	</g>
	<g>
		<polygon class="st1" points="485.22,598.02 453.99,598.02 438.38,625.06 453.99,652.1 485.22,652.1 500.83,625.06 		"/>
	</g>
	<g>
		<polygon class="st1" points="485.24,654.62 454.01,654.62 438.4,681.66 454.01,708.71 485.24,708.71 500.85,681.66 		"/>
	</g>
	<g>
		<polygon class="st1" points="338.19,626.32 306.96,626.32 291.35,653.36 306.96,680.41 338.19,680.41 353.8,653.36 		"/>
	</g>
	<g>
		<polygon class="st1" points="387.19,598.02 355.96,598.02 340.35,625.06 355.96,652.1 387.19,652.1 402.8,625.06 		"/>
	</g>
	<g>
		<polygon class="st1" points="387.21,654.62 355.99,654.62 340.37,681.66 355.99,708.71 387.21,708.71 402.83,681.66 		"/>
	</g>
	<g>
		<polygon class="st1" points="191.11,371.61 159.89,371.61 144.27,398.65 159.89,425.69 191.11,425.69 206.73,398.65 		"/>
	</g>
	<g>
		<polygon class="st1" points="289.16,371.61 257.94,371.61 242.33,398.65 257.94,425.69 289.16,425.69 304.78,398.65 		"/>
	</g>
	<g>
		<polygon class="st1" points="93.14,371.61 61.91,371.61 46.3,398.65 61.91,425.69 93.14,425.69 108.75,398.65 		"/>
	</g>
	<g>
		<polygon class="st1" points="240.12,343.3 208.89,343.3 193.28,370.35 208.89,397.39 240.12,397.39 255.73,370.35 		"/>
	</g>
	<g>
		<polygon class="st1" points="338.19,343.3 306.96,343.3 291.35,370.35 306.96,397.39 338.19,397.39 353.8,370.35 		"/>
	</g>
	<g>
		<polygon class="st1" points="240.14,399.91 208.92,399.91 193.3,426.95 208.92,453.99 240.14,453.99 255.76,426.95 		"/>
	</g>
	<g>
		<polygon class="st1" points="142.09,343.3 110.87,343.3 95.25,370.35 110.87,397.39 142.09,397.39 157.71,370.35 		"/>
	</g>
	<g>
		<polygon class="st1" points="142.12,399.91 110.89,399.91 95.28,426.95 110.89,453.99 142.12,453.99 157.73,426.95 		"/>
	</g>
	<g>
		<polygon class="st1" points="44.1,343.3 12.87,343.3 -2.74,370.35 12.87,397.39 44.1,397.39 59.71,370.35 		"/>
	</g>
	<g>
		<polygon class="st1" points="44.12,399.91 12.89,399.91 -2.72,426.95 12.89,453.99 44.12,453.99 59.73,426.95 		"/>
	</g>
	<g>
		<polygon class="st1" points="240.16,456.51 208.93,456.51 193.32,483.56 208.93,510.6 240.16,510.6 255.77,483.56 		"/>
	</g>
	<g>
		<polygon class="st1" points="142.12,456.51 110.89,456.51 95.28,483.56 110.89,510.6 142.12,510.6 157.73,483.56 		"/>
	</g>
	<g>
		<polygon class="st1" points="289.16,428.21 257.94,428.21 242.33,455.25 257.94,482.3 289.16,482.3 304.78,455.25 		"/>
	</g>
	<g>
		<polygon class="st1" points="289.19,484.81 257.96,484.81 242.35,511.86 257.96,538.9 289.19,538.9 304.8,511.86 		"/>
	</g>
	<g>
		<polygon class="st1" points="191.14,428.21 159.91,428.21 144.3,455.25 159.91,482.3 191.14,482.3 206.75,455.25 		"/>
	</g>
	<g>
		<polygon class="st1" points="191.16,484.81 159.94,484.81 144.32,511.86 159.94,538.9 191.16,538.9 206.78,511.86 		"/>
	</g>
	<g>
		<polygon class="st1" points="44.11,456.51 12.88,456.51 -2.73,483.56 12.88,510.6 44.11,510.6 59.72,483.56 		"/>
	</g>
	<g>
		<polygon class="st1" points="93.11,428.21 61.89,428.21 46.27,455.25 61.89,482.3 93.11,482.3 108.73,455.25 		"/>
	</g>
	<g>
		<polygon class="st1" points="93.14,484.81 61.91,484.81 46.3,511.86 61.91,538.9 93.14,538.9 108.75,511.86 		"/>
	</g>
	<g>
		<polygon class="st1" points="485.19,371.61 453.96,371.61 438.35,398.65 453.96,425.69 485.19,425.69 500.8,398.65 		"/>
	</g>
	<g>
		<polygon class="st1" points="583.24,371.61 552.01,371.61 536.4,398.65 552.01,425.69 583.24,425.69 598.85,398.65 		"/>
	</g>
	<g>
		<polygon class="st1" points="387.21,371.61 355.99,371.61 340.37,398.65 355.99,425.69 387.21,425.69 402.83,398.65 		"/>
	</g>
	<g>
		<polygon class="st1" points="534.19,343.3 502.97,343.3 487.35,370.35 502.97,397.39 534.19,397.39 549.81,370.35 		"/>
	</g>
	<g>
		<polygon class="st1" points="534.22,399.91 502.99,399.91 487.38,426.95 502.99,453.99 534.22,453.99 549.83,426.95 		"/>
	</g>
	<g>
		<polygon class="st1" points="436.17,343.3 404.94,343.3 389.33,370.35 404.94,397.39 436.17,397.39 451.78,370.35 		"/>
	</g>
	<g>
		<polygon class="st1" points="436.19,399.91 404.97,399.91 389.35,426.95 404.97,453.99 436.19,453.99 451.81,426.95 		"/>
	</g>
	<g>
		<polygon class="st1" points="338.17,399.91 306.94,399.91 291.33,426.95 306.94,453.99 338.17,453.99 353.78,426.95 		"/>
	</g>
	<g>
		<polygon class="st1" points="534.24,456.51 503.01,456.51 487.4,483.56 503.01,510.6 534.24,510.6 549.85,483.56 		"/>
	</g>
	<g>
		<polygon class="st1" points="436.21,456.51 404.98,456.51 389.37,483.56 404.98,510.6 436.21,510.6 451.82,483.56 		"/>
	</g>
	<g>
		<polygon class="st1" points="583.24,428.21 552.01,428.21 536.4,455.25 552.01,482.3 583.24,482.3 598.85,455.25 		"/>
	</g>
	<g>
		<polygon class="st1" points="583.26,484.81 552.04,484.81 536.42,511.86 552.04,538.9 583.26,538.9 598.88,511.86 		"/>
	</g>
	<g>
		<polygon class="st1" points="485.22,428.21 453.99,428.21 438.38,455.25 453.99,482.3 485.22,482.3 500.83,455.25 		"/>
	</g>
	<g>
		<polygon class="st1" points="485.24,484.81 454.01,484.81 438.4,511.86 454.01,538.9 485.24,538.9 500.85,511.86 		"/>
	</g>
	<g>
		<polygon class="st1" points="338.19,456.51 306.96,456.51 291.35,483.56 306.96,510.6 338.19,510.6 353.8,483.56 		"/>
	</g>
	<g>
		<polygon class="st1" points="387.19,428.21 355.96,428.21 340.35,455.25 355.96,482.3 387.19,482.3 402.8,455.25 		"/>
	</g>
	<g>
		<polygon class="st1" points="387.21,484.81 355.99,484.81 340.37,511.86 355.99,538.9 387.21,538.9 402.83,511.86 		"/>
	</g>
	<g>
		<polygon class="st1" points="681.52,201.49 650.29,201.49 634.68,228.54 650.29,255.58 681.52,255.58 697.13,228.54 		"/>
	</g>
	<g>
		<polygon class="st1" points="632.47,173.19 601.24,173.19 585.63,200.23 601.24,227.27 632.47,227.27 648.08,200.23 		"/>
	</g>
	<g>
		<polygon class="st1" points="730.54,173.19 699.31,173.19 683.7,200.23 699.31,227.27 730.54,227.27 746.15,200.23 		"/>
	</g>
	<g>
		<polygon class="st1" points="632.49,229.79 601.27,229.79 585.65,256.83 601.27,283.88 632.49,283.88 648.11,256.83 		"/>
	</g>
	<g>
		<polygon class="st1" points="632.51,286.4 601.28,286.4 585.67,313.44 601.28,340.48 632.51,340.48 648.12,313.44 		"/>
	</g>
	<g>
		<polygon class="st1" points="681.52,258.09 650.29,258.09 634.68,285.14 650.29,312.18 681.52,312.18 697.13,285.14 		"/>
	</g>
	<g>
		<polygon class="st1" points="681.54,314.7 650.31,314.7 634.7,341.74 650.31,368.78 681.54,368.78 697.15,341.74 		"/>
	</g>
	<g>
		<polygon class="st1" points="877.54,201.49 846.31,201.49 830.7,228.54 846.31,255.58 877.54,255.58 893.15,228.54 		"/>
	</g>
	<g>
		<polygon class="st1" points="779.57,201.49 748.34,201.49 732.73,228.54 748.34,255.58 779.57,255.58 795.18,228.54 		"/>
	</g>
	<g>
		<polygon class="st1" points="828.52,173.19 797.29,173.19 781.68,200.23 797.29,227.27 828.52,227.27 844.13,200.23 		"/>
	</g>
	<g>
		<polygon class="st1" points="828.54,229.79 797.32,229.79 781.7,256.83 797.32,283.88 828.54,283.88 844.16,256.83 		"/>
	</g>
	<g>
		<polygon class="st1" points="730.52,229.79 699.29,229.79 683.68,256.83 699.29,283.88 730.52,283.88 746.13,256.83 		"/>
	</g>
	<g>
		<polygon class="st1" points="828.56,286.4 797.33,286.4 781.72,313.44 797.33,340.48 828.56,340.48 844.17,313.44 		"/>
	</g>
	<g>
		<polygon class="st1" points="877.57,258.09 846.34,258.09 830.73,285.14 846.34,312.18 877.57,312.18 893.18,285.14 		"/>
	</g>
	<g>
		<polygon class="st1" points="877.59,314.7 846.36,314.7 830.75,341.74 846.36,368.78 877.59,368.78 893.2,341.74 		"/>
	</g>
	<g>
		<polygon class="st1" points="730.54,286.4 699.31,286.4 683.7,313.44 699.31,340.48 730.54,340.48 746.15,313.44 		"/>
	</g>
	<g>
		<polygon class="st1" points="779.54,258.09 748.31,258.09 732.7,285.14 748.31,312.18 779.54,312.18 795.15,285.14 		"/>
	</g>
	<g>
		<polygon class="st1" points="779.57,314.7 748.34,314.7 732.73,341.74 748.34,368.78 779.57,368.78 795.18,341.74 		"/>
	</g>
	<g>
		<polygon class="st1" points="681.52,31.68 650.29,31.68 634.68,58.73 650.29,85.77 681.52,85.77 697.13,58.73 		"/>
	</g>
	<g>
		<polygon class="st1" points="632.47,3.38 601.24,3.38 585.63,30.42 601.24,57.47 632.47,57.47 648.08,30.42 		"/>
	</g>
	<g>
		<polygon class="st1" points="730.54,3.38 699.31,3.38 683.7,30.42 699.31,57.47 730.54,57.47 746.15,30.42 		"/>
	</g>
	<g>
		<polygon class="st1" points="632.49,59.98 601.27,59.98 585.65,87.03 601.27,114.07 632.49,114.07 648.11,87.03 		"/>
	</g>
	<g>
		<polygon class="st1" points="632.51,116.59 601.28,116.59 585.67,143.63 601.28,170.68 632.51,170.68 648.12,143.63 		"/>
	</g>
	<g>
		<polygon class="st1" points="681.52,88.29 650.29,88.29 634.68,115.33 650.29,142.37 681.52,142.37 697.13,115.33 		"/>
	</g>
	<g>
		<polygon class="st1" points="681.54,144.89 650.31,144.89 634.7,171.93 650.31,198.98 681.54,198.98 697.15,171.93 		"/>
	</g>
	<g>
		<polygon class="st1" points="877.54,31.68 846.31,31.68 830.7,58.73 846.31,85.77 877.54,85.77 893.15,58.73 		"/>
	</g>
	<g>
		<polygon class="st1" points="779.57,31.68 748.34,31.68 732.73,58.73 748.34,85.77 779.57,85.77 795.18,58.73 		"/>
	</g>
	<g>
		<polygon class="st1" points="828.52,3.38 797.29,3.38 781.68,30.42 797.29,57.47 828.52,57.47 844.13,30.42 		"/>
	</g>
	<g>
		<polygon class="st1" points="828.54,59.98 797.32,59.98 781.7,87.03 797.32,114.07 828.54,114.07 844.16,87.03 		"/>
	</g>
	<g>
		<polygon class="st1" points="730.52,59.98 699.29,59.98 683.68,87.03 699.29,114.07 730.52,114.07 746.13,87.03 		"/>
	</g>
	<g>
		<polygon class="st1" points="828.56,116.59 797.33,116.59 781.72,143.63 797.33,170.68 828.56,170.68 844.17,143.63 		"/>
	</g>
	<g>
		<polygon class="st1" points="877.57,88.29 846.34,88.29 830.73,115.33 846.34,142.37 877.57,142.37 893.18,115.33 		"/>
	</g>
	<g>
		<polygon class="st1" points="877.59,144.89 846.36,144.89 830.75,171.93 846.36,198.98 877.59,198.98 893.2,171.93 		"/>
	</g>
	<g>
		<polygon class="st1" points="730.54,116.59 699.31,116.59 683.7,143.63 699.31,170.68 730.54,170.68 746.15,143.63 		"/>
	</g>
	<g>
		<polygon class="st1" points="779.54,88.29 748.31,88.29 732.7,115.33 748.31,142.37 779.54,142.37 795.15,115.33 		"/>
	</g>
	<g>
		<polygon class="st1" points="779.57,144.89 748.34,144.89 732.73,171.93 748.34,198.98 779.57,198.98 795.18,171.93 		"/>
	</g>
	<g>
		<polygon class="st1" points="681.52,541.42 650.29,541.42 634.68,568.46 650.29,595.5 681.52,595.5 697.13,568.46 		"/>
	</g>
	<g>
		<polygon class="st1" points="632.47,513.11 601.24,513.11 585.63,540.15 601.24,567.2 632.47,567.2 648.08,540.15 		"/>
	</g>
	<g>
		<polygon class="st1" points="730.54,513.11 699.31,513.11 683.7,540.15 699.31,567.2 730.54,567.2 746.15,540.15 		"/>
	</g>
	<g>
		<polygon class="st1" points="632.49,569.71 601.27,569.71 585.65,596.76 601.27,623.8 632.49,623.8 648.11,596.76 		"/>
	</g>
	<g>
		<polygon class="st1" points="632.51,626.32 601.28,626.32 585.67,653.36 601.28,680.41 632.51,680.41 648.12,653.36 		"/>
	</g>
	<g>
		<polygon class="st1" points="681.52,598.02 650.29,598.02 634.68,625.06 650.29,652.1 681.52,652.1 697.13,625.06 		"/>
	</g>
	<g>
		<polygon class="st1" points="681.54,654.62 650.31,654.62 634.7,681.66 650.31,708.71 681.54,708.71 697.15,681.66 		"/>
	</g>
	<g>
		<polygon class="st1" points="877.54,541.42 846.31,541.42 830.7,568.46 846.31,595.5 877.54,595.5 893.15,568.46 		"/>
	</g>
	<g>
		<polygon class="st1" points="779.57,541.42 748.34,541.42 732.73,568.46 748.34,595.5 779.57,595.5 795.18,568.46 		"/>
	</g>
	<g>
		<polygon class="st1" points="828.52,513.11 797.29,513.11 781.68,540.15 797.29,567.2 828.52,567.2 844.13,540.15 		"/>
	</g>
	<g>
		<polygon class="st1" points="828.54,569.71 797.32,569.71 781.7,596.76 797.32,623.8 828.54,623.8 844.16,596.76 		"/>
	</g>
	<g>
		<polygon class="st1" points="730.52,569.71 699.29,569.71 683.68,596.76 699.29,623.8 730.52,623.8 746.13,596.76 		"/>
	</g>
	<g>
		<polygon class="st1" points="828.56,626.32 797.33,626.32 781.72,653.36 797.33,680.41 828.56,680.41 844.17,653.36 		"/>
	</g>
	<g>
		<polygon class="st1" points="877.57,598.02 846.34,598.02 830.73,625.06 846.34,652.1 877.57,652.1 893.18,625.06 		"/>
	</g>
	<g>
		<polygon class="st1" points="877.59,654.62 846.36,654.62 830.75,681.66 846.36,708.71 877.59,708.71 893.2,681.66 		"/>
	</g>
	<g>
		<polygon class="st1" points="730.54,626.32 699.31,626.32 683.7,653.36 699.31,680.41 730.54,680.41 746.15,653.36 		"/>
	</g>
	<g>
		<polygon class="st1" points="779.54,598.02 748.31,598.02 732.7,625.06 748.31,652.1 779.54,652.1 795.15,625.06 		"/>
	</g>
	<g>
		<polygon class="st1" points="779.57,654.62 748.34,654.62 732.73,681.66 748.34,708.71 779.57,708.71 795.18,681.66 		"/>
	</g>
	<g>
		<polygon class="st1" points="681.52,371.61 650.29,371.61 634.68,398.65 650.29,425.69 681.52,425.69 697.13,398.65 		"/>
	</g>
	<g>
		<polygon class="st1" points="632.47,343.3 601.24,343.3 585.63,370.35 601.24,397.39 632.47,397.39 648.08,370.35 		"/>
	</g>
	<g>
		<polygon class="st1" points="730.54,343.3 699.31,343.3 683.7,370.35 699.31,397.39 730.54,397.39 746.15,370.35 		"/>
	</g>
	<g>
		<polygon class="st1" points="632.49,399.91 601.27,399.91 585.65,426.95 601.27,453.99 632.49,453.99 648.11,426.95 		"/>
	</g>
	<g>
		<polygon class="st1" points="632.51,456.51 601.28,456.51 585.67,483.56 601.28,510.6 632.51,510.6 648.12,483.56 		"/>
	</g>
	<g>
		<polygon class="st1" points="681.52,428.21 650.29,428.21 634.68,455.25 650.29,482.3 681.52,482.3 697.13,455.25 		"/>
	</g>
	<g>
		<polygon class="st1" points="681.54,484.81 650.31,484.81 634.7,511.86 650.31,538.9 681.54,538.9 697.15,511.86 		"/>
	</g>
	<g>
		<polygon class="st1" points="877.54,371.61 846.31,371.61 830.7,398.65 846.31,425.69 877.54,425.69 893.15,398.65 		"/>
	</g>
	<g>
		<polygon class="st1" points="779.57,371.61 748.34,371.61 732.73,398.65 748.34,425.69 779.57,425.69 795.18,398.65 		"/>
	</g>
	<g>
		<polygon class="st1" points="828.52,343.3 797.29,343.3 781.68,370.35 797.29,397.39 828.52,397.39 844.13,370.35 		"/>
	</g>
	<g>
		<polygon class="st1" points="828.54,399.91 797.32,399.91 781.7,426.95 797.32,453.99 828.54,453.99 844.16,426.95 		"/>
	</g>
	<g>
		<polygon class="st1" points="730.52,399.91 699.29,399.91 683.68,426.95 699.29,453.99 730.52,453.99 746.13,426.95 		"/>
	</g>
	<g>
		<polygon class="st1" points="828.56,456.51 797.33,456.51 781.72,483.56 797.33,510.6 828.56,510.6 844.17,483.56 		"/>
	</g>
	<g>
		<polygon class="st1" points="877.57,428.21 846.34,428.21 830.73,455.25 846.34,482.3 877.57,482.3 893.18,455.25 		"/>
	</g>
	<g>
		<polygon class="st1" points="877.59,484.81 846.36,484.81 830.75,511.86 846.36,538.9 877.59,538.9 893.2,511.86 		"/>
	</g>
	<g>
		<polygon class="st1" points="730.54,456.51 699.31,456.51 683.7,483.56 699.31,510.6 730.54,510.6 746.15,483.56 		"/>
	</g>
	<g>
		<polygon class="st1" points="779.54,428.21 748.31,428.21 732.7,455.25 748.31,482.3 779.54,482.3 795.15,455.25 		"/>
	</g>
	<g>
		<polygon class="st1" points="779.57,484.81 748.34,484.81 732.73,511.86 748.34,538.9 779.57,538.9 795.18,511.86 		"/>
	</g>
	<g>
		<polygon class="st1" points="1073.6,201.49 1042.37,201.49 1026.76,228.54 1042.37,255.58 1073.6,255.58 1089.21,228.54 		"/>
	</g>
	<g>
		<polygon class="st1" points="1171.65,201.49 1140.42,201.49 1124.81,228.54 1140.42,255.58 1171.65,255.58 1187.26,228.54 		"/>
	</g>
	<g>
		<polygon class="st1" points="975.62,201.49 944.39,201.49 928.78,228.54 944.39,255.58 975.62,255.58 991.23,228.54 		"/>
	</g>
	<g>
		<polygon class="st1" points="1122.6,173.19 1091.37,173.19 1075.76,200.23 1091.37,227.27 1122.6,227.27 1138.21,200.23 		"/>
	</g>
	<g>
		<polygon class="st1" points="1220.67,173.19 1189.44,173.19 1173.83,200.23 1189.44,227.27 1220.67,227.27 1236.28,200.23 		"/>
	</g>
	<g>
		<polygon class="st1" points="1122.62,229.79 1091.4,229.79 1075.78,256.83 1091.4,283.88 1122.62,283.88 1138.24,256.83 		"/>
	</g>
	<g>
		<polygon class="st1" points="1024.58,173.19 993.35,173.19 977.74,200.23 993.35,227.27 1024.58,227.27 1040.19,200.23 		"/>
	</g>
	<g>
		<polygon class="st1" points="1024.6,229.79 993.37,229.79 977.76,256.83 993.37,283.88 1024.6,283.88 1040.21,256.83 		"/>
	</g>
	<g>
		<polygon class="st1" points="926.58,173.19 895.35,173.19 879.74,200.23 895.35,227.27 926.58,227.27 942.19,200.23 		"/>
	</g>
	<g>
		<polygon class="st1" points="926.6,229.79 895.38,229.79 879.76,256.83 895.38,283.88 926.6,283.88 942.22,256.83 		"/>
	</g>
	<g>
		<polygon class="st1" points="1122.64,286.4 1091.42,286.4 1075.8,313.44 1091.42,340.48 1122.64,340.48 1138.26,313.44 		"/>
	</g>
	<g>
		<polygon class="st1" points="1024.6,286.4 993.37,286.4 977.76,313.44 993.37,340.48 1024.6,340.48 1040.21,313.44 		"/>
	</g>
	<g>
		<polygon class="st1" points="1171.65,258.09 1140.42,258.09 1124.81,285.14 1140.42,312.18 1171.65,312.18 1187.26,285.14 		"/>
	</g>
	<g>
		<polygon class="st1" points="1171.67,314.7 1140.44,314.7 1124.83,341.74 1140.44,368.78 1171.67,368.78 1187.28,341.74 		"/>
	</g>
	<g>
		<polygon class="st1" points="1073.62,258.09 1042.4,258.09 1026.78,285.14 1042.4,312.18 1073.62,312.18 1089.24,285.14 		"/>
	</g>
	<g>
		<polygon class="st1" points="1073.65,314.7 1042.42,314.7 1026.81,341.74 1042.42,368.78 1073.65,368.78 1089.26,341.74 		"/>
	</g>
	<g>
		<polygon class="st1" points="926.59,286.4 895.37,286.4 879.75,313.44 895.37,340.48 926.59,340.48 942.21,313.44 		"/>
	</g>
	<g>
		<polygon class="st1" points="975.6,258.09 944.37,258.09 928.76,285.14 944.37,312.18 975.6,312.18 991.21,285.14 		"/>
	</g>
	<g>
		<polygon class="st1" points="975.62,314.7 944.39,314.7 928.78,341.74 944.39,368.78 975.62,368.78 991.23,341.74 		"/>
	</g>
	<g>
		<polygon class="st1" points="1367.67,201.49 1336.44,201.49 1320.83,228.54 1336.44,255.58 1367.67,255.58 1383.28,228.54 		"/>
	</g>
	<g>
		<polygon class="st1" points="1465.72,201.49 1434.5,201.49 1418.88,228.54 1434.5,255.58 1465.72,255.58 1481.34,228.54 		"/>
	</g>
	<g>
		<polygon class="st1" points="1269.7,201.49 1238.47,201.49 1222.86,228.54 1238.47,255.58 1269.7,255.58 1285.31,228.54 		"/>
	</g>
	<g>
		<polygon class="st1" points="1416.68,173.19 1385.45,173.19 1369.84,200.23 1385.45,227.27 1416.68,227.27 1432.29,200.23 		"/>
	</g>
	<g>
		<polygon class="st1" points="1416.7,229.79 1385.47,229.79 1369.86,256.83 1385.47,283.88 1416.7,283.88 1432.31,256.83 		"/>
	</g>
	<g>
		<polygon class="st1" points="1318.65,173.19 1287.42,173.19 1271.81,200.23 1287.42,227.27 1318.65,227.27 1334.26,200.23 		"/>
	</g>
	<g>
		<polygon class="st1" points="1318.68,229.79 1287.45,229.79 1271.84,256.83 1287.45,283.88 1318.68,283.88 1334.29,256.83 		"/>
	</g>
	<g>
		<polygon class="st1" points="1220.65,229.79 1189.42,229.79 1173.81,256.83 1189.42,283.88 1220.65,283.88 1236.26,256.83 		"/>
	</g>
	<g>
		<polygon class="st1" points="1416.72,286.4 1385.49,286.4 1369.88,313.44 1385.49,340.48 1416.72,340.48 1432.33,313.44 		"/>
	</g>
	<g>
		<polygon class="st1" points="1318.69,286.4 1287.47,286.4 1271.85,313.44 1287.47,340.48 1318.69,340.48 1334.31,313.44 		"/>
	</g>
	<g>
		<polygon class="st1" points="1465.72,258.09 1434.5,258.09 1418.88,285.14 1434.5,312.18 1465.72,312.18 1481.34,285.14 		"/>
	</g>
	<g>
		<polygon class="st1" points="1465.75,314.7 1434.52,314.7 1418.91,341.74 1434.52,368.78 1465.75,368.78 1481.36,341.74 		"/>
	</g>
	<g>
		<polygon class="st1" points="1367.7,258.09 1336.47,258.09 1320.86,285.14 1336.47,312.18 1367.7,312.18 1383.31,285.14 		"/>
	</g>
	<g>
		<polygon class="st1" points="1367.72,314.7 1336.5,314.7 1320.88,341.74 1336.5,368.78 1367.72,368.78 1383.34,341.74 		"/>
	</g>
	<g>
		<polygon class="st1" points="1220.67,286.4 1189.44,286.4 1173.83,313.44 1189.44,340.48 1220.67,340.48 1236.28,313.44 		"/>
	</g>
	<g>
		<polygon class="st1" points="1269.67,258.09 1238.45,258.09 1222.83,285.14 1238.45,312.18 1269.67,312.18 1285.29,285.14 		"/>
	</g>
	<g>
		<polygon class="st1" points="1269.7,314.7 1238.47,314.7 1222.86,341.74 1238.47,368.78 1269.7,368.78 1285.31,341.74 		"/>
	</g>
	<g>
		<polygon class="st1" points="1073.6,31.68 1042.37,31.68 1026.76,58.73 1042.37,85.77 1073.6,85.77 1089.21,58.73 		"/>
	</g>
	<g>
		<polygon class="st1" points="1171.65,31.68 1140.42,31.68 1124.81,58.73 1140.42,85.77 1171.65,85.77 1187.26,58.73 		"/>
	</g>
	<g>
		<polygon class="st1" points="975.62,31.68 944.39,31.68 928.78,58.73 944.39,85.77 975.62,85.77 991.23,58.73 		"/>
	</g>
	<g>
		<polygon class="st1" points="1122.6,3.38 1091.37,3.38 1075.76,30.42 1091.37,57.47 1122.6,57.47 1138.21,30.42 		"/>
	</g>
	<g>
		<polygon class="st1" points="1220.67,3.38 1189.44,3.38 1173.83,30.42 1189.44,57.47 1220.67,57.47 1236.28,30.42 		"/>
	</g>
	<g>
		<polygon class="st1" points="1122.62,59.98 1091.4,59.98 1075.78,87.03 1091.4,114.07 1122.62,114.07 1138.24,87.03 		"/>
	</g>
	<g>
		<polygon class="st1" points="1024.58,3.38 993.35,3.38 977.74,30.42 993.35,57.47 1024.58,57.47 1040.19,30.42 		"/>
	</g>
	<g>
		<polygon class="st1" points="1024.6,59.98 993.37,59.98 977.76,87.03 993.37,114.07 1024.6,114.07 1040.21,87.03 		"/>
	</g>
	<g>
		<polygon class="st1" points="926.58,3.38 895.35,3.38 879.74,30.42 895.35,57.47 926.58,57.47 942.19,30.42 		"/>
	</g>
	<g>
		<polygon class="st1" points="926.6,59.98 895.38,59.98 879.76,87.03 895.38,114.07 926.6,114.07 942.22,87.03 		"/>
	</g>
	<g>
		<polygon class="st1" points="1122.64,116.59 1091.42,116.59 1075.8,143.63 1091.42,170.68 1122.64,170.68 1138.26,143.63 		"/>
	</g>
	<g>
		<polygon class="st1" points="1024.6,116.59 993.37,116.59 977.76,143.63 993.37,170.68 1024.6,170.68 1040.21,143.63 		"/>
	</g>
	<g>
		<polygon class="st1" points="1171.65,88.29 1140.42,88.29 1124.81,115.33 1140.42,142.37 1171.65,142.37 1187.26,115.33 		"/>
	</g>
	<g>
		<polygon class="st1" points="1171.67,144.89 1140.44,144.89 1124.83,171.93 1140.44,198.98 1171.67,198.98 1187.28,171.93 		"/>
	</g>
	<g>
		<polygon class="st1" points="1073.62,88.29 1042.4,88.29 1026.78,115.33 1042.4,142.37 1073.62,142.37 1089.24,115.33 		"/>
	</g>
	<g>
		<polygon class="st1" points="1073.65,144.89 1042.42,144.89 1026.81,171.93 1042.42,198.98 1073.65,198.98 1089.26,171.93 		"/>
	</g>
	<g>
		<polygon class="st1" points="926.59,116.59 895.37,116.59 879.75,143.63 895.37,170.68 926.59,170.68 942.21,143.63 		"/>
	</g>
	<g>
		<polygon class="st1" points="975.6,88.29 944.37,88.29 928.76,115.33 944.37,142.37 975.6,142.37 991.21,115.33 		"/>
	</g>
	<g>
		<polygon class="st1" points="975.62,144.89 944.39,144.89 928.78,171.93 944.39,198.98 975.62,198.98 991.23,171.93 		"/>
	</g>
	<g>
		<polygon class="st1" points="1367.67,31.68 1336.44,31.68 1320.83,58.73 1336.44,85.77 1367.67,85.77 1383.28,58.73 		"/>
	</g>
	<g>
		<polygon class="st1" points="1465.72,31.68 1434.5,31.68 1418.88,58.73 1434.5,85.77 1465.72,85.77 1481.34,58.73 		"/>
	</g>
	<g>
		<polygon class="st1" points="1269.7,31.68 1238.47,31.68 1222.86,58.73 1238.47,85.77 1269.7,85.77 1285.31,58.73 		"/>
	</g>
	<g>
		<polygon class="st1" points="1416.68,3.38 1385.45,3.38 1369.84,30.42 1385.45,57.47 1416.68,57.47 1432.29,30.42 		"/>
	</g>
	<g>
		<polygon class="st1" points="1416.7,59.98 1385.47,59.98 1369.86,87.03 1385.47,114.07 1416.7,114.07 1432.31,87.03 		"/>
	</g>
	<g>
		<polygon class="st1" points="1318.65,3.38 1287.42,3.38 1271.81,30.42 1287.42,57.47 1318.65,57.47 1334.26,30.42 		"/>
	</g>
	<g>
		<polygon class="st1" points="1318.68,59.98 1287.45,59.98 1271.84,87.03 1287.45,114.07 1318.68,114.07 1334.29,87.03 		"/>
	</g>
	<g>
		<polygon class="st1" points="1220.65,59.98 1189.42,59.98 1173.81,87.03 1189.42,114.07 1220.65,114.07 1236.26,87.03 		"/>
	</g>
	<g>
		<polygon class="st1" points="1416.72,116.59 1385.49,116.59 1369.88,143.63 1385.49,170.68 1416.72,170.68 1432.33,143.63 		"/>
	</g>
	<g>
		<polygon class="st1" points="1318.69,116.59 1287.47,116.59 1271.85,143.63 1287.47,170.68 1318.69,170.68 1334.31,143.63 		"/>
	</g>
	<g>
		<polygon class="st1" points="1465.72,88.29 1434.5,88.29 1418.88,115.33 1434.5,142.37 1465.72,142.37 1481.34,115.33 		"/>
	</g>
	<g>
		<polygon class="st1" points="1465.75,144.89 1434.52,144.89 1418.91,171.93 1434.52,198.98 1465.75,198.98 1481.36,171.93 		"/>
	</g>
	<g>
		<polygon class="st1" points="1367.7,88.29 1336.47,88.29 1320.86,115.33 1336.47,142.37 1367.7,142.37 1383.31,115.33 		"/>
	</g>
	<g>
		<polygon class="st1" points="1367.72,144.89 1336.5,144.89 1320.88,171.93 1336.5,198.98 1367.72,198.98 1383.34,171.93 		"/>
	</g>
	<g>
		<polygon class="st1" points="1220.67,116.59 1189.44,116.59 1173.83,143.63 1189.44,170.68 1220.67,170.68 1236.28,143.63 		"/>
	</g>
	<g>
		<polygon class="st1" points="1269.67,88.29 1238.45,88.29 1222.83,115.33 1238.45,142.37 1269.67,142.37 1285.29,115.33 		"/>
	</g>
	<g>
		<polygon class="st1" points="1269.7,144.89 1238.47,144.89 1222.86,171.93 1238.47,198.98 1269.7,198.98 1285.31,171.93 		"/>
	</g>
	<g>
		<polygon class="st1" points="1073.6,541.42 1042.37,541.42 1026.76,568.46 1042.37,595.5 1073.6,595.5 1089.21,568.46 		"/>
	</g>
	<g>
		<polygon class="st1" points="1171.65,541.42 1140.42,541.42 1124.81,568.46 1140.42,595.5 1171.65,595.5 1187.26,568.46 		"/>
	</g>
	<g>
		<polygon class="st1" points="975.62,541.42 944.39,541.42 928.78,568.46 944.39,595.5 975.62,595.5 991.23,568.46 		"/>
	</g>
	<g>
		<polygon class="st1" points="1122.6,513.11 1091.37,513.11 1075.76,540.15 1091.37,567.2 1122.6,567.2 1138.21,540.15 		"/>
	</g>
	<g>
		<polygon class="st1" points="1220.67,513.11 1189.44,513.11 1173.83,540.15 1189.44,567.2 1220.67,567.2 1236.28,540.15 		"/>
	</g>
	<g>
		<polygon class="st1" points="1122.62,569.71 1091.4,569.71 1075.78,596.76 1091.4,623.8 1122.62,623.8 1138.24,596.76 		"/>
	</g>
	<g>
		<polygon class="st1" points="1024.58,513.11 993.35,513.11 977.74,540.15 993.35,567.2 1024.58,567.2 1040.19,540.15 		"/>
	</g>
	<g>
		<polygon class="st1" points="1024.6,569.71 993.37,569.71 977.76,596.76 993.37,623.8 1024.6,623.8 1040.21,596.76 		"/>
	</g>
	<g>
		<polygon class="st1" points="926.58,513.11 895.35,513.11 879.74,540.15 895.35,567.2 926.58,567.2 942.19,540.15 		"/>
	</g>
	<g>
		<polygon class="st1" points="926.6,569.71 895.38,569.71 879.76,596.76 895.38,623.8 926.6,623.8 942.22,596.76 		"/>
	</g>
	<g>
		<polygon class="st1" points="1122.64,626.32 1091.42,626.32 1075.8,653.36 1091.42,680.41 1122.64,680.41 1138.26,653.36 		"/>
	</g>
	<g>
		<polygon class="st1" points="1024.6,626.32 993.37,626.32 977.76,653.36 993.37,680.41 1024.6,680.41 1040.21,653.36 		"/>
	</g>
	<g>
		<polygon class="st1" points="1171.65,598.02 1140.42,598.02 1124.81,625.06 1140.42,652.1 1171.65,652.1 1187.26,625.06 		"/>
	</g>
	<g>
		<polygon class="st1" points="1171.67,654.62 1140.44,654.62 1124.83,681.66 1140.44,708.71 1171.67,708.71 1187.28,681.66 		"/>
	</g>
	<g>
		<polygon class="st1" points="1073.62,598.02 1042.4,598.02 1026.78,625.06 1042.4,652.1 1073.62,652.1 1089.24,625.06 		"/>
	</g>
	<g>
		<polygon class="st1" points="1073.65,654.62 1042.42,654.62 1026.81,681.66 1042.42,708.71 1073.65,708.71 1089.26,681.66 		"/>
	</g>
	<g>
		<polygon class="st1" points="926.59,626.32 895.37,626.32 879.75,653.36 895.37,680.41 926.59,680.41 942.21,653.36 		"/>
	</g>
	<g>
		<polygon class="st1" points="975.6,598.02 944.37,598.02 928.76,625.06 944.37,652.1 975.6,652.1 991.21,625.06 		"/>
	</g>
	<g>
		<polygon class="st1" points="975.62,654.62 944.39,654.62 928.78,681.66 944.39,708.71 975.62,708.71 991.23,681.66 		"/>
	</g>
	<g>
		<polygon class="st1" points="1367.67,541.42 1336.44,541.42 1320.83,568.46 1336.44,595.5 1367.67,595.5 1383.28,568.46 		"/>
	</g>
	<g>
		<polygon class="st1" points="1465.72,541.42 1434.5,541.42 1418.88,568.46 1434.5,595.5 1465.72,595.5 1481.34,568.46 		"/>
	</g>
	<g>
		<polygon class="st1" points="1269.7,541.42 1238.47,541.42 1222.86,568.46 1238.47,595.5 1269.7,595.5 1285.31,568.46 		"/>
	</g>
	<g>
		<polygon class="st1" points="1416.68,513.11 1385.45,513.11 1369.84,540.15 1385.45,567.2 1416.68,567.2 1432.29,540.15 		"/>
	</g>
	<g>
		<polygon class="st1" points="1416.7,569.71 1385.47,569.71 1369.86,596.76 1385.47,623.8 1416.7,623.8 1432.31,596.76 		"/>
	</g>
	<g>
		<polygon class="st1" points="1318.65,513.11 1287.42,513.11 1271.81,540.15 1287.42,567.2 1318.65,567.2 1334.26,540.15 		"/>
	</g>
	<g>
		<polygon class="st1" points="1318.68,569.71 1287.45,569.71 1271.84,596.76 1287.45,623.8 1318.68,623.8 1334.29,596.76 		"/>
	</g>
	<g>
		<polygon class="st1" points="1220.65,569.71 1189.42,569.71 1173.81,596.76 1189.42,623.8 1220.65,623.8 1236.26,596.76 		"/>
	</g>
	<g>
		<polygon class="st1" points="1416.72,626.32 1385.49,626.32 1369.88,653.36 1385.49,680.41 1416.72,680.41 1432.33,653.36 		"/>
	</g>
	<g>
		<polygon class="st1" points="1318.69,626.32 1287.47,626.32 1271.85,653.36 1287.47,680.41 1318.69,680.41 1334.31,653.36 		"/>
	</g>
	<g>
		<polygon class="st1" points="1465.72,598.02 1434.5,598.02 1418.88,625.06 1434.5,652.1 1465.72,652.1 1481.34,625.06 		"/>
	</g>
	<g>
		<polygon class="st1" points="1465.75,654.62 1434.52,654.62 1418.91,681.66 1434.52,708.71 1465.75,708.71 1481.36,681.66 		"/>
	</g>
	<g>
		<polygon class="st1" points="1367.7,598.02 1336.47,598.02 1320.86,625.06 1336.47,652.1 1367.7,652.1 1383.31,625.06 		"/>
	</g>
	<g>
		<polygon class="st1" points="1367.72,654.62 1336.5,654.62 1320.88,681.66 1336.5,708.71 1367.72,708.71 1383.34,681.66 		"/>
	</g>
	<g>
		<polygon class="st1" points="1220.67,626.32 1189.44,626.32 1173.83,653.36 1189.44,680.41 1220.67,680.41 1236.28,653.36 		"/>
	</g>
	<g>
		<polygon class="st1" points="1269.67,598.02 1238.45,598.02 1222.83,625.06 1238.45,652.1 1269.67,652.1 1285.29,625.06 		"/>
	</g>
	<g>
		<polygon class="st1" points="1269.7,654.62 1238.47,654.62 1222.86,681.66 1238.47,708.71 1269.7,708.71 1285.31,681.66 		"/>
	</g>
	<g>
		<polygon class="st1" points="1073.6,371.61 1042.37,371.61 1026.76,398.65 1042.37,425.69 1073.6,425.69 1089.21,398.65 		"/>
	</g>
	<g>
		<polygon class="st1" points="1171.65,371.61 1140.42,371.61 1124.81,398.65 1140.42,425.69 1171.65,425.69 1187.26,398.65 		"/>
	</g>
	<g>
		<polygon class="st1" points="975.62,371.61 944.39,371.61 928.78,398.65 944.39,425.69 975.62,425.69 991.23,398.65 		"/>
	</g>
	<g>
		<polygon class="st1" points="1122.6,343.3 1091.37,343.3 1075.76,370.35 1091.37,397.39 1122.6,397.39 1138.21,370.35 		"/>
	</g>
	<g>
		<polygon class="st1" points="1220.67,343.3 1189.44,343.3 1173.83,370.35 1189.44,397.39 1220.67,397.39 1236.28,370.35 		"/>
	</g>
	<g>
		<polygon class="st1" points="1122.62,399.91 1091.4,399.91 1075.78,426.95 1091.4,453.99 1122.62,453.99 1138.24,426.95 		"/>
	</g>
	<g>
		<polygon class="st1" points="1024.58,343.3 993.35,343.3 977.74,370.35 993.35,397.39 1024.58,397.39 1040.19,370.35 		"/>
	</g>
	<g>
		<polygon class="st1" points="1024.6,399.91 993.37,399.91 977.76,426.95 993.37,453.99 1024.6,453.99 1040.21,426.95 		"/>
	</g>
	<g>
		<polygon class="st1" points="926.58,343.3 895.35,343.3 879.74,370.35 895.35,397.39 926.58,397.39 942.19,370.35 		"/>
	</g>
	<g>
		<polygon class="st1" points="926.6,399.91 895.38,399.91 879.76,426.95 895.38,453.99 926.6,453.99 942.22,426.95 		"/>
	</g>
	<g>
		<polygon class="st1" points="1122.64,456.51 1091.42,456.51 1075.8,483.56 1091.42,510.6 1122.64,510.6 1138.26,483.56 		"/>
	</g>
	<g>
		<polygon class="st1" points="1024.6,456.51 993.37,456.51 977.76,483.56 993.37,510.6 1024.6,510.6 1040.21,483.56 		"/>
	</g>
	<g>
		<polygon class="st1" points="1171.65,428.21 1140.42,428.21 1124.81,455.25 1140.42,482.3 1171.65,482.3 1187.26,455.25 		"/>
	</g>
	<g>
		<polygon class="st1" points="1171.67,484.81 1140.44,484.81 1124.83,511.86 1140.44,538.9 1171.67,538.9 1187.28,511.86 		"/>
	</g>
	<g>
		<polygon class="st1" points="1073.62,428.21 1042.4,428.21 1026.78,455.25 1042.4,482.3 1073.62,482.3 1089.24,455.25 		"/>
	</g>
	<g>
		<polygon class="st1" points="1073.65,484.81 1042.42,484.81 1026.81,511.86 1042.42,538.9 1073.65,538.9 1089.26,511.86 		"/>
	</g>
	<g>
		<polygon class="st1" points="926.59,456.51 895.37,456.51 879.75,483.56 895.37,510.6 926.59,510.6 942.21,483.56 		"/>
	</g>
	<g>
		<polygon class="st1" points="975.6,428.21 944.37,428.21 928.76,455.25 944.37,482.3 975.6,482.3 991.21,455.25 		"/>
	</g>
	<g>
		<polygon class="st1" points="975.62,484.81 944.39,484.81 928.78,511.86 944.39,538.9 975.62,538.9 991.23,511.86 		"/>
	</g>
	<g>
		<polygon class="st1" points="1367.67,371.61 1336.44,371.61 1320.83,398.65 1336.44,425.69 1367.67,425.69 1383.28,398.65 		"/>
	</g>
	<g>
		<polygon class="st1" points="1465.72,371.61 1434.5,371.61 1418.88,398.65 1434.5,425.69 1465.72,425.69 1481.34,398.65 		"/>
	</g>
	<g>
		<polygon class="st1" points="1269.7,371.61 1238.47,371.61 1222.86,398.65 1238.47,425.69 1269.7,425.69 1285.31,398.65 		"/>
	</g>
	<g>
		<polygon class="st1" points="1416.68,343.3 1385.45,343.3 1369.84,370.35 1385.45,397.39 1416.68,397.39 1432.29,370.35 		"/>
	</g>
	<g>
		<polygon class="st1" points="1416.7,399.91 1385.47,399.91 1369.86,426.95 1385.47,453.99 1416.7,453.99 1432.31,426.95 		"/>
	</g>
	<g>
		<polygon class="st1" points="1318.65,343.3 1287.42,343.3 1271.81,370.35 1287.42,397.39 1318.65,397.39 1334.26,370.35 		"/>
	</g>
	<g>
		<polygon class="st1" points="1318.68,399.91 1287.45,399.91 1271.84,426.95 1287.45,453.99 1318.68,453.99 1334.29,426.95 		"/>
	</g>
	<g>
		<polygon class="st1" points="1220.65,399.91 1189.42,399.91 1173.81,426.95 1189.42,453.99 1220.65,453.99 1236.26,426.95 		"/>
	</g>
	<g>
		<polygon class="st1" points="1416.72,456.51 1385.49,456.51 1369.88,483.56 1385.49,510.6 1416.72,510.6 1432.33,483.56 		"/>
	</g>
	<g>
		<polygon class="st1" points="1318.69,456.51 1287.47,456.51 1271.85,483.56 1287.47,510.6 1318.69,510.6 1334.31,483.56 		"/>
	</g>
	<g>
		<polygon class="st1" points="1465.72,428.21 1434.5,428.21 1418.88,455.25 1434.5,482.3 1465.72,482.3 1481.34,455.25 		"/>
	</g>
	<g>
		<polygon class="st1" points="1465.75,484.81 1434.52,484.81 1418.91,511.86 1434.52,538.9 1465.75,538.9 1481.36,511.86 		"/>
	</g>
	<g>
		<polygon class="st1" points="1367.7,428.21 1336.47,428.21 1320.86,455.25 1336.47,482.3 1367.7,482.3 1383.31,455.25 		"/>
	</g>
	<g>
		<polygon class="st1" points="1367.72,484.81 1336.5,484.81 1320.88,511.86 1336.5,538.9 1367.72,538.9 1383.34,511.86 		"/>
	</g>
	<g>
		<polygon class="st1" points="1220.67,456.51 1189.44,456.51 1173.83,483.56 1189.44,510.6 1220.67,510.6 1236.28,483.56 		"/>
	</g>
	<g>
		<polygon class="st1" points="1269.67,428.21 1238.45,428.21 1222.83,455.25 1238.45,482.3 1269.67,482.3 1285.29,455.25 		"/>
	</g>
	<g>
		<polygon class="st1" points="1269.7,484.81 1238.47,484.81 1222.86,511.86 1238.47,538.9 1269.7,538.9 1285.31,511.86 		"/>
	</g>
	<g>
		<polygon class="st1" points="1564,201.49 1532.77,201.49 1517.16,228.54 1532.77,255.58 1564,255.58 1579.61,228.54 		"/>
	</g>
	<g>
		<polygon class="st1" points="1514.95,173.19 1483.73,173.19 1468.11,200.23 1483.73,227.27 1514.95,227.27 1530.57,200.23 		"/>
	</g>
	<g>
		<polygon class="st1" points="1613.02,173.19 1581.79,173.19 1566.18,200.23 1581.79,227.27 1613.02,227.27 1628.63,200.23 		"/>
	</g>
	<g>
		<polygon class="st1" points="1514.98,229.79 1483.75,229.79 1468.14,256.83 1483.75,283.88 1514.98,283.88 1530.59,256.83 		"/>
	</g>
	<g>
		<polygon class="st1" points="1514.99,286.4 1483.77,286.4 1468.15,313.44 1483.77,340.48 1514.99,340.48 1530.61,313.44 		"/>
	</g>
	<g>
		<polygon class="st1" points="1564,258.09 1532.77,258.09 1517.16,285.14 1532.77,312.18 1564,312.18 1579.61,285.14 		"/>
	</g>
	<g>
		<polygon class="st1" points="1564.02,314.7 1532.8,314.7 1517.18,341.74 1532.8,368.78 1564.02,368.78 1579.64,341.74 		"/>
	</g>
	<g>
		<polygon class="st1" points="1760.02,201.49 1728.8,201.49 1713.18,228.54 1728.8,255.58 1760.02,255.58 1775.64,228.54 		"/>
	</g>
	<g>
		<polygon class="st1" points="1662.05,201.49 1630.82,201.49 1615.21,228.54 1630.82,255.58 1662.05,255.58 1677.66,228.54 		"/>
	</g>
	<g>
		<polygon class="st1" points="1711,173.19 1679.78,173.19 1664.16,200.23 1679.78,227.27 1711,227.27 1726.62,200.23 		"/>
	</g>
	<g>
		<polygon class="st1" points="1711.03,229.79 1679.8,229.79 1664.19,256.83 1679.8,283.88 1711.03,283.88 1726.64,256.83 		"/>
	</g>
	<g>
		<polygon class="st1" points="1613,229.79 1581.77,229.79 1566.16,256.83 1581.77,283.88 1613,283.88 1628.61,256.83 		"/>
	</g>
	<g>
		<polygon class="st1" points="1711.04,286.4 1679.82,286.4 1664.2,313.44 1679.82,340.48 1711.04,340.48 1726.66,313.44 		"/>
	</g>
	<g>
		<polygon class="st1" points="1760.05,258.09 1728.82,258.09 1713.21,285.14 1728.82,312.18 1760.05,312.18 1775.66,285.14 		"/>
	</g>
	<g>
		<polygon class="st1" points="1760.07,314.7 1728.85,314.7 1713.23,341.74 1728.85,368.78 1760.07,368.78 1775.69,341.74 		"/>
	</g>
	<g>
		<polygon class="st1" points="1613.02,286.4 1581.79,286.4 1566.18,313.44 1581.79,340.48 1613.02,340.48 1628.63,313.44 		"/>
	</g>
	<g>
		<polygon class="st1" points="1662.02,258.09 1630.8,258.09 1615.18,285.14 1630.8,312.18 1662.02,312.18 1677.64,285.14 		"/>
	</g>
	<g>
		<polygon class="st1" points="1662.05,314.7 1630.82,314.7 1615.21,341.74 1630.82,368.78 1662.05,368.78 1677.66,341.74 		"/>
	</g>
	<g>
		<polygon class="st1" points="1564,31.68 1532.77,31.68 1517.16,58.73 1532.77,85.77 1564,85.77 1579.61,58.73 		"/>
	</g>
	<g>
		<polygon class="st1" points="1514.95,3.38 1483.73,3.38 1468.11,30.42 1483.73,57.47 1514.95,57.47 1530.57,30.42 		"/>
	</g>
	<g>
		<polygon class="st1" points="1613.02,3.38 1581.79,3.38 1566.18,30.42 1581.79,57.47 1613.02,57.47 1628.63,30.42 		"/>
	</g>
	<g>
		<polygon class="st1" points="1514.98,59.98 1483.75,59.98 1468.14,87.03 1483.75,114.07 1514.98,114.07 1530.59,87.03 		"/>
	</g>
	<g>
		<polygon class="st1" points="1514.99,116.59 1483.77,116.59 1468.15,143.63 1483.77,170.68 1514.99,170.68 1530.61,143.63 		"/>
	</g>
	<g>
		<polygon class="st1" points="1564,88.29 1532.77,88.29 1517.16,115.33 1532.77,142.37 1564,142.37 1579.61,115.33 		"/>
	</g>
	<g>
		<polygon class="st1" points="1564.02,144.89 1532.8,144.89 1517.18,171.93 1532.8,198.98 1564.02,198.98 1579.64,171.93 		"/>
	</g>
	<g>
		<polygon class="st1" points="1760.02,31.68 1728.8,31.68 1713.18,58.73 1728.8,85.77 1760.02,85.77 1775.64,58.73 		"/>
	</g>
	<g>
		<polygon class="st1" points="1662.05,31.68 1630.82,31.68 1615.21,58.73 1630.82,85.77 1662.05,85.77 1677.66,58.73 		"/>
	</g>
	<g>
		<polygon class="st1" points="1711,3.38 1679.78,3.38 1664.16,30.42 1679.78,57.47 1711,57.47 1726.62,30.42 		"/>
	</g>
	<g>
		<polygon class="st1" points="1711.03,59.98 1679.8,59.98 1664.19,87.03 1679.8,114.07 1711.03,114.07 1726.64,87.03 		"/>
	</g>
	<g>
		<polygon class="st1" points="1613,59.98 1581.77,59.98 1566.16,87.03 1581.77,114.07 1613,114.07 1628.61,87.03 		"/>
	</g>
	<g>
		<polygon class="st1" points="1711.04,116.59 1679.82,116.59 1664.2,143.63 1679.82,170.68 1711.04,170.68 1726.66,143.63 		"/>
	</g>
	<g>
		<polygon class="st1" points="1760.05,88.29 1728.82,88.29 1713.21,115.33 1728.82,142.37 1760.05,142.37 1775.66,115.33 		"/>
	</g>
	<g>
		<polygon class="st1" points="1760.07,144.89 1728.85,144.89 1713.23,171.93 1728.85,198.98 1760.07,198.98 1775.69,171.93 		"/>
	</g>
	<g>
		<polygon class="st1" points="1613.02,116.59 1581.79,116.59 1566.18,143.63 1581.79,170.68 1613.02,170.68 1628.63,143.63 		"/>
	</g>
	<g>
		<polygon class="st1" points="1662.02,88.29 1630.8,88.29 1615.18,115.33 1630.8,142.37 1662.02,142.37 1677.64,115.33 		"/>
	</g>
	<g>
		<polygon class="st1" points="1662.05,144.89 1630.82,144.89 1615.21,171.93 1630.82,198.98 1662.05,198.98 1677.66,171.93 		"/>
	</g>
	<g>
		<polygon class="st1" points="1564,541.42 1532.77,541.42 1517.16,568.46 1532.77,595.5 1564,595.5 1579.61,568.46 		"/>
	</g>
	<g>
		<polygon class="st1" points="1514.95,513.11 1483.73,513.11 1468.11,540.15 1483.73,567.2 1514.95,567.2 1530.57,540.15 		"/>
	</g>
	<g>
		<polygon class="st1" points="1613.02,513.11 1581.79,513.11 1566.18,540.15 1581.79,567.2 1613.02,567.2 1628.63,540.15 		"/>
	</g>
	<g>
		<polygon class="st1" points="1514.98,569.71 1483.75,569.71 1468.14,596.76 1483.75,623.8 1514.98,623.8 1530.59,596.76 		"/>
	</g>
	<g>
		<polygon class="st1" points="1514.99,626.32 1483.77,626.32 1468.15,653.36 1483.77,680.41 1514.99,680.41 1530.61,653.36 		"/>
	</g>
	<g>
		<polygon class="st1" points="1564,598.02 1532.77,598.02 1517.16,625.06 1532.77,652.1 1564,652.1 1579.61,625.06 		"/>
	</g>
	<g>
		<polygon class="st1" points="1564.02,654.62 1532.8,654.62 1517.18,681.66 1532.8,708.71 1564.02,708.71 1579.64,681.66 		"/>
	</g>
	<g>
		<polygon class="st1" points="1760.02,541.42 1728.8,541.42 1713.18,568.46 1728.8,595.5 1760.02,595.5 1775.64,568.46 		"/>
	</g>
	<g>
		<polygon class="st1" points="1662.05,541.42 1630.82,541.42 1615.21,568.46 1630.82,595.5 1662.05,595.5 1677.66,568.46 		"/>
	</g>
	<g>
		<polygon class="st1" points="1711,513.11 1679.78,513.11 1664.16,540.15 1679.78,567.2 1711,567.2 1726.62,540.15 		"/>
	</g>
	<g>
		<polygon class="st1" points="1711.03,569.71 1679.8,569.71 1664.19,596.76 1679.8,623.8 1711.03,623.8 1726.64,596.76 		"/>
	</g>
	<g>
		<polygon class="st1" points="1613,569.71 1581.77,569.71 1566.16,596.76 1581.77,623.8 1613,623.8 1628.61,596.76 		"/>
	</g>
	<g>
		<polygon class="st1" points="1711.04,626.32 1679.82,626.32 1664.2,653.36 1679.82,680.41 1711.04,680.41 1726.66,653.36 		"/>
	</g>
	<g>
		<polygon class="st1" points="1760.05,598.02 1728.82,598.02 1713.21,625.06 1728.82,652.1 1760.05,652.1 1775.66,625.06 		"/>
	</g>
	<g>
		<polygon class="st1" points="1760.07,654.62 1728.85,654.62 1713.23,681.66 1728.85,708.71 1760.07,708.71 1775.69,681.66 		"/>
	</g>
	<g>
		<polygon class="st1" points="1613.02,626.32 1581.79,626.32 1566.18,653.36 1581.79,680.41 1613.02,680.41 1628.63,653.36 		"/>
	</g>
	<g>
		<polygon class="st1" points="1662.02,598.02 1630.8,598.02 1615.18,625.06 1630.8,652.1 1662.02,652.1 1677.64,625.06 		"/>
	</g>
	<g>
		<polygon class="st1" points="1662.05,654.62 1630.82,654.62 1615.21,681.66 1630.82,708.71 1662.05,708.71 1677.66,681.66 		"/>
	</g>
	<g>
		<polygon class="st1" points="1564,371.61 1532.77,371.61 1517.16,398.65 1532.77,425.69 1564,425.69 1579.61,398.65 		"/>
	</g>
	<g>
		<polygon class="st1" points="1514.95,343.3 1483.73,343.3 1468.11,370.35 1483.73,397.39 1514.95,397.39 1530.57,370.35 		"/>
	</g>
	<g>
		<polygon class="st1" points="1613.02,343.3 1581.79,343.3 1566.18,370.35 1581.79,397.39 1613.02,397.39 1628.63,370.35 		"/>
	</g>
	<g>
		<polygon class="st1" points="1514.98,399.91 1483.75,399.91 1468.14,426.95 1483.75,453.99 1514.98,453.99 1530.59,426.95 		"/>
	</g>
	<g>
		<polygon class="st1" points="1514.99,456.51 1483.77,456.51 1468.15,483.56 1483.77,510.6 1514.99,510.6 1530.61,483.56 		"/>
	</g>
	<g>
		<polygon class="st1" points="1564,428.21 1532.77,428.21 1517.16,455.25 1532.77,482.3 1564,482.3 1579.61,455.25 		"/>
	</g>
	<g>
		<polygon class="st1" points="1564.02,484.81 1532.8,484.81 1517.18,511.86 1532.8,538.9 1564.02,538.9 1579.64,511.86 		"/>
	</g>
	<g>
		<polygon class="st1" points="1760.02,371.61 1728.8,371.61 1713.18,398.65 1728.8,425.69 1760.02,425.69 1775.64,398.65 		"/>
	</g>
	<g>
		<polygon class="st1" points="1662.05,371.61 1630.82,371.61 1615.21,398.65 1630.82,425.69 1662.05,425.69 1677.66,398.65 		"/>
	</g>
	<g>
		<polygon class="st1" points="1711,343.3 1679.78,343.3 1664.16,370.35 1679.78,397.39 1711,397.39 1726.62,370.35 		"/>
	</g>
	<g>
		<polygon class="st1" points="1711.03,399.91 1679.8,399.91 1664.19,426.95 1679.8,453.99 1711.03,453.99 1726.64,426.95 		"/>
	</g>
	<g>
		<polygon class="st1" points="1613,399.91 1581.77,399.91 1566.16,426.95 1581.77,453.99 1613,453.99 1628.61,426.95 		"/>
	</g>
	<g>
		<polygon class="st1" points="1711.04,456.51 1679.82,456.51 1664.2,483.56 1679.82,510.6 1711.04,510.6 1726.66,483.56 		"/>
	</g>
	<g>
		<polygon class="st1" points="1760.05,428.21 1728.82,428.21 1713.21,455.25 1728.82,482.3 1760.05,482.3 1775.66,455.25 		"/>
	</g>
	<g>
		<polygon class="st1" points="1760.07,484.81 1728.85,484.81 1713.23,511.86 1728.85,538.9 1760.07,538.9 1775.69,511.86 		"/>
	</g>
	<g>
		<polygon class="st1" points="1613.02,456.51 1581.79,456.51 1566.18,483.56 1581.79,510.6 1613.02,510.6 1628.63,483.56 		"/>
	</g>
	<g>
		<polygon class="st1" points="1662.02,428.21 1630.8,428.21 1615.18,455.25 1630.8,482.3 1662.02,482.3 1677.64,455.25 		"/>
	</g>
	<g>
		<polygon class="st1" points="1662.05,484.81 1630.82,484.81 1615.21,511.86 1630.82,538.9 1662.05,538.9 1677.66,511.86 		"/>
	</g>
	<g>
		<polygon class="st1" points="1809.1,173.19 1777.88,173.19 1762.26,200.23 1777.88,227.27 1809.1,227.27 1824.72,200.23 		"/>
	</g>
	<g>
		<polygon class="st1" points="1858.13,201.49 1826.91,201.49 1811.29,228.54 1826.91,255.58 1858.13,255.58 1873.75,228.54 		"/>
	</g>
	<g>
		<polygon class="st1" points="1907.09,173.19 1875.86,173.19 1860.25,200.23 1875.86,227.27 1907.09,227.27 1922.7,200.23 		"/>
	</g>
	<g>
		<polygon class="st1" points="1907.11,229.79 1875.88,229.79 1860.27,256.83 1875.88,283.88 1907.11,283.88 1922.72,256.83 		"/>
	</g>
	<g>
		<polygon class="st1" points="1809.09,229.79 1777.86,229.79 1762.25,256.83 1777.86,283.88 1809.09,283.88 1824.7,256.83 		"/>
	</g>
	<g>
		<polygon class="st1" points="1907.13,286.4 1875.9,286.4 1860.29,313.44 1875.9,340.48 1907.13,340.48 1922.74,313.44 		"/>
	</g>
	<g>
		<polygon class="st1" points="1809.1,286.4 1777.88,286.4 1762.26,313.44 1777.88,340.48 1809.1,340.48 1824.72,313.44 		"/>
	</g>
	<g>
		<polygon class="st1" points="1858.11,258.09 1826.88,258.09 1811.27,285.14 1826.88,312.18 1858.11,312.18 1873.72,285.14 		"/>
	</g>
	<g>
		<polygon class="st1" points="1858.13,314.7 1826.91,314.7 1811.29,341.74 1826.91,368.78 1858.13,368.78 1873.75,341.74 		"/>
	</g>
	<g>
		<polygon class="st1" points="1809.1,3.38 1777.88,3.38 1762.26,30.42 1777.88,57.47 1809.1,57.47 1824.72,30.42 		"/>
	</g>
	<g>
		<polygon class="st1" points="1858.13,31.68 1826.91,31.68 1811.29,58.73 1826.91,85.77 1858.13,85.77 1873.75,58.73 		"/>
	</g>
	<g>
		<polygon class="st1" points="1907.09,3.38 1875.86,3.38 1860.25,30.42 1875.86,57.47 1907.09,57.47 1922.7,30.42 		"/>
	</g>
	<g>
		<polygon class="st1" points="1907.11,59.98 1875.88,59.98 1860.27,87.03 1875.88,114.07 1907.11,114.07 1922.72,87.03 		"/>
	</g>
	<g>
		<polygon class="st1" points="1809.09,59.98 1777.86,59.98 1762.25,87.03 1777.86,114.07 1809.09,114.07 1824.7,87.03 		"/>
	</g>
	<g>
		<polygon class="st1" points="1907.13,116.59 1875.9,116.59 1860.29,143.63 1875.9,170.68 1907.13,170.68 1922.74,143.63 		"/>
	</g>
	<g>
		<polygon class="st1" points="1809.1,116.59 1777.88,116.59 1762.26,143.63 1777.88,170.68 1809.1,170.68 1824.72,143.63 		"/>
	</g>
	<g>
		<polygon class="st1" points="1858.11,88.29 1826.88,88.29 1811.27,115.33 1826.88,142.37 1858.11,142.37 1873.72,115.33 		"/>
	</g>
	<g>
		<polygon class="st1" points="1858.13,144.89 1826.91,144.89 1811.29,171.93 1826.91,198.98 1858.13,198.98 1873.75,171.93 		"/>
	</g>
	<g>
		<polygon class="st1" points="1809.1,513.11 1777.88,513.11 1762.26,540.15 1777.88,567.2 1809.1,567.2 1824.72,540.15 		"/>
	</g>
	<g>
		<polygon class="st1" points="1858.13,541.42 1826.91,541.42 1811.29,568.46 1826.91,595.5 1858.13,595.5 1873.75,568.46 		"/>
	</g>
	<g>
		<polygon class="st1" points="1907.09,513.11 1875.86,513.11 1860.25,540.15 1875.86,567.2 1907.09,567.2 1922.7,540.15 		"/>
	</g>
	<g>
		<polygon class="st1" points="1907.11,569.71 1875.88,569.71 1860.27,596.76 1875.88,623.8 1907.11,623.8 1922.72,596.76 		"/>
	</g>
	<g>
		<polygon class="st1" points="1809.09,569.71 1777.86,569.71 1762.25,596.76 1777.86,623.8 1809.09,623.8 1824.7,596.76 		"/>
	</g>
	<g>
		<polygon class="st1" points="1907.13,626.32 1875.9,626.32 1860.29,653.36 1875.9,680.41 1907.13,680.41 1922.74,653.36 		"/>
	</g>
	<g>
		<polygon class="st1" points="1809.1,626.32 1777.88,626.32 1762.26,653.36 1777.88,680.41 1809.1,680.41 1824.72,653.36 		"/>
	</g>
	<g>
		<polygon class="st1" points="1858.11,598.02 1826.88,598.02 1811.27,625.06 1826.88,652.1 1858.11,652.1 1873.72,625.06 		"/>
	</g>
	<g>
		<polygon class="st1" points="1858.13,654.62 1826.91,654.62 1811.29,681.66 1826.91,708.71 1858.13,708.71 1873.75,681.66 		"/>
	</g>
	<g>
		<polygon class="st1" points="1809.1,343.3 1777.88,343.3 1762.26,370.35 1777.88,397.39 1809.1,397.39 1824.72,370.35 		"/>
	</g>
	<g>
		<polygon class="st1" points="1858.13,371.61 1826.91,371.61 1811.29,398.65 1826.91,425.69 1858.13,425.69 1873.75,398.65 		"/>
	</g>
	<g>
		<polygon class="st1" points="1907.09,343.3 1875.86,343.3 1860.25,370.35 1875.86,397.39 1907.09,397.39 1922.7,370.35 		"/>
	</g>
	<g>
		<polygon class="st1" points="1907.11,399.91 1875.88,399.91 1860.27,426.95 1875.88,453.99 1907.11,453.99 1922.72,426.95 		"/>
	</g>
	<g>
		<polygon class="st1" points="1809.09,399.91 1777.86,399.91 1762.25,426.95 1777.86,453.99 1809.09,453.99 1824.7,426.95 		"/>
	</g>
	<g>
		<polygon class="st1" points="1907.13,456.51 1875.9,456.51 1860.29,483.56 1875.9,510.6 1907.13,510.6 1922.74,483.56 		"/>
	</g>
	<g>
		<polygon class="st1" points="1809.1,456.51 1777.88,456.51 1762.26,483.56 1777.88,510.6 1809.1,510.6 1824.72,483.56 		"/>
	</g>
	<g>
		<polygon class="st1" points="1858.11,428.21 1826.88,428.21 1811.27,455.25 1826.88,482.3 1858.11,482.3 1873.72,455.25 		"/>
	</g>
	<g>
		<polygon class="st1" points="1858.13,484.81 1826.91,484.81 1811.29,511.86 1826.91,538.9 1858.13,538.9 1873.75,511.86 		"/>
	</g>
	<g>
		<polygon class="st1" points="191.11,881.04 159.89,881.04 144.27,908.08 159.89,935.13 191.11,935.13 206.73,908.08 		"/>
	</g>
	<g>
		<polygon class="st1" points="289.16,881.04 257.94,881.04 242.33,908.08 257.94,935.13 289.16,935.13 304.78,908.08 		"/>
	</g>
	<g>
		<polygon class="st1" points="93.14,881.04 61.91,881.04 46.3,908.08 61.91,935.13 93.14,935.13 108.75,908.08 		"/>
	</g>
	<g>
		<polygon class="st1" points="240.12,852.74 208.89,852.74 193.28,879.78 208.89,906.82 240.12,906.82 255.73,879.78 		"/>
	</g>
	<g>
		<polygon class="st1" points="338.19,852.74 306.96,852.74 291.35,879.78 306.96,906.82 338.19,906.82 353.8,879.78 		"/>
	</g>
	<g>
		<polygon class="st1" points="240.14,909.34 208.92,909.34 193.3,936.38 208.92,963.43 240.14,963.43 255.76,936.38 		"/>
	</g>
	<g>
		<polygon class="st1" points="142.09,852.74 110.87,852.74 95.25,879.78 110.87,906.82 142.09,906.82 157.71,879.78 		"/>
	</g>
	<g>
		<polygon class="st1" points="142.12,909.34 110.89,909.34 95.28,936.38 110.89,963.43 142.12,963.43 157.73,936.38 		"/>
	</g>
	<g>
		<polygon class="st1" points="44.1,852.74 12.87,852.74 -2.74,879.78 12.87,906.82 44.1,906.82 59.71,879.78 		"/>
	</g>
	<g>
		<polygon class="st1" points="44.12,909.34 12.89,909.34 -2.72,936.38 12.89,963.43 44.12,963.43 59.73,936.38 		"/>
	</g>
	<g>
		<polygon class="st1" points="240.16,965.95 208.93,965.95 193.32,992.99 208.93,1020.03 240.16,1020.03 255.77,992.99 		"/>
	</g>
	<g>
		<polygon class="st1" points="142.12,965.95 110.89,965.95 95.28,992.99 110.89,1020.03 142.12,1020.03 157.73,992.99 		"/>
	</g>
	<g>
		<polygon class="st1" points="289.16,937.64 257.94,937.64 242.33,964.69 257.94,991.73 289.16,991.73 304.78,964.69 		"/>
	</g>
	<g>
		<polygon class="st1" points="289.19,994.25 257.96,994.25 242.35,1021.29 257.96,1048.33 289.19,1048.33 304.8,1021.29 		"/>
	</g>
	<g>
		<polygon class="st1" points="191.14,937.64 159.91,937.64 144.3,964.69 159.91,991.73 191.14,991.73 206.75,964.69 		"/>
	</g>
	<g>
		<polygon class="st1" points="191.16,994.25 159.94,994.25 144.32,1021.29 159.94,1048.33 191.16,1048.33 206.78,1021.29 		"/>
	</g>
	<g>
		<polygon class="st1" points="44.11,965.95 12.88,965.95 -2.73,992.99 12.88,1020.03 44.11,1020.03 59.72,992.99 		"/>
	</g>
	<g>
		<polygon class="st1" points="93.11,937.64 61.89,937.64 46.27,964.69 61.89,991.73 93.11,991.73 108.73,964.69 		"/>
	</g>
	<g>
		<polygon class="st1" points="93.14,994.25 61.91,994.25 46.3,1021.29 61.91,1048.33 93.14,1048.33 108.75,1021.29 		"/>
	</g>
	<g>
		<polygon class="st1" points="485.19,881.04 453.96,881.04 438.35,908.08 453.96,935.13 485.19,935.13 500.8,908.08 		"/>
	</g>
	<g>
		<polygon class="st1" points="583.24,881.04 552.01,881.04 536.4,908.08 552.01,935.13 583.24,935.13 598.85,908.08 		"/>
	</g>
	<g>
		<polygon class="st1" points="387.21,881.04 355.99,881.04 340.37,908.08 355.99,935.13 387.21,935.13 402.83,908.08 		"/>
	</g>
	<g>
		<polygon class="st1" points="534.19,852.74 502.97,852.74 487.35,879.78 502.97,906.82 534.19,906.82 549.81,879.78 		"/>
	</g>
	<g>
		<polygon class="st1" points="534.22,909.34 502.99,909.34 487.38,936.38 502.99,963.43 534.22,963.43 549.83,936.38 		"/>
	</g>
	<g>
		<polygon class="st1" points="436.17,852.74 404.94,852.74 389.33,879.78 404.94,906.82 436.17,906.82 451.78,879.78 		"/>
	</g>
	<g>
		<polygon class="st1" points="436.19,909.34 404.97,909.34 389.35,936.38 404.97,963.43 436.19,963.43 451.81,936.38 		"/>
	</g>
	<g>
		<polygon class="st1" points="338.17,909.34 306.94,909.34 291.33,936.38 306.94,963.43 338.17,963.43 353.78,936.38 		"/>
	</g>
	<g>
		<polygon class="st1" points="534.24,965.95 503.01,965.95 487.4,992.99 503.01,1020.03 534.24,1020.03 549.85,992.99 		"/>
	</g>
	<g>
		<polygon class="st1" points="436.21,965.95 404.98,965.95 389.37,992.99 404.98,1020.03 436.21,1020.03 451.82,992.99 		"/>
	</g>
	<g>
		<polygon class="st1" points="583.24,937.64 552.01,937.64 536.4,964.69 552.01,991.73 583.24,991.73 598.85,964.69 		"/>
	</g>
	<g>
		<polygon class="st1" points="583.26,994.25 552.04,994.25 536.42,1021.29 552.04,1048.33 583.26,1048.33 598.88,1021.29 		"/>
	</g>
	<g>
		<polygon class="st1" points="485.22,937.64 453.99,937.64 438.38,964.69 453.99,991.73 485.22,991.73 500.83,964.69 		"/>
	</g>
	<g>
		<polygon class="st1" points="485.24,994.25 454.01,994.25 438.4,1021.29 454.01,1048.33 485.24,1048.33 500.85,1021.29 		"/>
	</g>
	<g>
		<polygon class="st1" points="338.19,965.95 306.96,965.95 291.35,992.99 306.96,1020.03 338.19,1020.03 353.8,992.99 		"/>
	</g>
	<g>
		<polygon class="st1" points="387.19,937.64 355.96,937.64 340.35,964.69 355.96,991.73 387.19,991.73 402.8,964.69 		"/>
	</g>
	<g>
		<polygon class="st1" points="387.21,994.25 355.99,994.25 340.37,1021.29 355.99,1048.33 387.21,1048.33 402.83,1021.29 		"/>
	</g>
	<g>
		<polygon class="st1" points="191.11,711.23 159.89,711.23 144.27,738.28 159.89,765.32 191.11,765.32 206.73,738.28 		"/>
	</g>
	<g>
		<polygon class="st1" points="289.16,711.23 257.94,711.23 242.33,738.28 257.94,765.32 289.16,765.32 304.78,738.28 		"/>
	</g>
	<g>
		<polygon class="st1" points="93.14,711.23 61.91,711.23 46.3,738.28 61.91,765.32 93.14,765.32 108.75,738.28 		"/>
	</g>
	<g>
		<polygon class="st1" points="240.12,682.93 208.89,682.93 193.28,709.97 208.89,737.01 240.12,737.01 255.73,709.97 		"/>
	</g>
	<g>
		<polygon class="st1" points="338.19,682.93 306.96,682.93 291.35,709.97 306.96,737.01 338.19,737.01 353.8,709.97 		"/>
	</g>
	<g>
		<polygon class="st1" points="240.14,739.53 208.92,739.53 193.3,766.57 208.92,793.62 240.14,793.62 255.76,766.57 		"/>
	</g>
	<g>
		<polygon class="st1" points="142.09,682.93 110.87,682.93 95.25,709.97 110.87,737.01 142.09,737.01 157.71,709.97 		"/>
	</g>
	<g>
		<polygon class="st1" points="142.12,739.53 110.89,739.53 95.28,766.57 110.89,793.62 142.12,793.62 157.73,766.57 		"/>
	</g>
	<g>
		<polygon class="st1" points="44.1,682.93 12.87,682.93 -2.74,709.97 12.87,737.01 44.1,737.01 59.71,709.97 		"/>
	</g>
	<g>
		<polygon class="st1" points="44.12,739.53 12.89,739.53 -2.72,766.57 12.89,793.62 44.12,793.62 59.73,766.57 		"/>
	</g>
	<g>
		<polygon class="st1" points="240.16,796.14 208.93,796.14 193.32,823.18 208.93,850.22 240.16,850.22 255.77,823.18 		"/>
	</g>
	<g>
		<polygon class="st1" points="142.12,796.14 110.89,796.14 95.28,823.18 110.89,850.22 142.12,850.22 157.73,823.18 		"/>
	</g>
	<g>
		<polygon class="st1" points="289.16,767.83 257.94,767.83 242.33,794.88 257.94,821.92 289.16,821.92 304.78,794.88 		"/>
	</g>
	<g>
		<polygon class="st1" points="289.19,824.44 257.96,824.44 242.35,851.48 257.96,878.52 289.19,878.52 304.8,851.48 		"/>
	</g>
	<g>
		<polygon class="st1" points="191.14,767.83 159.91,767.83 144.3,794.88 159.91,821.92 191.14,821.92 206.75,794.88 		"/>
	</g>
	<g>
		<polygon class="st1" points="191.16,824.44 159.94,824.44 144.32,851.48 159.94,878.52 191.16,878.52 206.78,851.48 		"/>
	</g>
	<g>
		<polygon class="st1" points="44.11,796.14 12.88,796.14 -2.73,823.18 12.88,850.22 44.11,850.22 59.72,823.18 		"/>
	</g>
	<g>
		<polygon class="st1" points="93.11,767.83 61.89,767.83 46.27,794.88 61.89,821.92 93.11,821.92 108.73,794.88 		"/>
	</g>
	<g>
		<polygon class="st1" points="93.14,824.44 61.91,824.44 46.3,851.48 61.91,878.52 93.14,878.52 108.75,851.48 		"/>
	</g>
	<g>
		<polygon class="st1" points="485.19,711.23 453.96,711.23 438.35,738.28 453.96,765.32 485.19,765.32 500.8,738.28 		"/>
	</g>
	<g>
		<polygon class="st1" points="583.24,711.23 552.01,711.23 536.4,738.28 552.01,765.32 583.24,765.32 598.85,738.28 		"/>
	</g>
	<g>
		<polygon class="st1" points="387.21,711.23 355.99,711.23 340.37,738.28 355.99,765.32 387.21,765.32 402.83,738.28 		"/>
	</g>
	<g>
		<polygon class="st1" points="534.19,682.93 502.97,682.93 487.35,709.97 502.97,737.01 534.19,737.01 549.81,709.97 		"/>
	</g>
	<g>
		<polygon class="st1" points="534.22,739.53 502.99,739.53 487.38,766.57 502.99,793.62 534.22,793.62 549.83,766.57 		"/>
	</g>
	<g>
		<polygon class="st1" points="436.17,682.93 404.94,682.93 389.33,709.97 404.94,737.01 436.17,737.01 451.78,709.97 		"/>
	</g>
	<g>
		<polygon class="st1" points="436.19,739.53 404.97,739.53 389.35,766.57 404.97,793.62 436.19,793.62 451.81,766.57 		"/>
	</g>
	<g>
		<polygon class="st1" points="338.17,739.53 306.94,739.53 291.33,766.57 306.94,793.62 338.17,793.62 353.78,766.57 		"/>
	</g>
	<g>
		<polygon class="st1" points="534.24,796.14 503.01,796.14 487.4,823.18 503.01,850.22 534.24,850.22 549.85,823.18 		"/>
	</g>
	<g>
		<polygon class="st1" points="436.21,796.14 404.98,796.14 389.37,823.18 404.98,850.22 436.21,850.22 451.82,823.18 		"/>
	</g>
	<g>
		<polygon class="st1" points="583.24,767.83 552.01,767.83 536.4,794.88 552.01,821.92 583.24,821.92 598.85,794.88 		"/>
	</g>
	<g>
		<polygon class="st1" points="583.26,824.44 552.04,824.44 536.42,851.48 552.04,878.52 583.26,878.52 598.88,851.48 		"/>
	</g>
	<g>
		<polygon class="st1" points="485.22,767.83 453.99,767.83 438.38,794.88 453.99,821.92 485.22,821.92 500.83,794.88 		"/>
	</g>
	<g>
		<polygon class="st1" points="485.24,824.44 454.01,824.44 438.4,851.48 454.01,878.52 485.24,878.52 500.85,851.48 		"/>
	</g>
	<g>
		<polygon class="st1" points="338.19,796.14 306.96,796.14 291.35,823.18 306.96,850.22 338.19,850.22 353.8,823.18 		"/>
	</g>
	<g>
		<polygon class="st1" points="387.19,767.83 355.96,767.83 340.35,794.88 355.96,821.92 387.19,821.92 402.8,794.88 		"/>
	</g>
	<g>
		<polygon class="st1" points="387.21,824.44 355.99,824.44 340.37,851.48 355.99,878.52 387.21,878.52 402.83,851.48 		"/>
	</g>
	<g>
		<polygon class="st1" points="681.52,881.04 650.29,881.04 634.68,908.08 650.29,935.13 681.52,935.13 697.13,908.08 		"/>
	</g>
	<g>
		<polygon class="st1" points="632.47,852.74 601.24,852.74 585.63,879.78 601.24,906.82 632.47,906.82 648.08,879.78 		"/>
	</g>
	<g>
		<polygon class="st1" points="730.54,852.74 699.31,852.74 683.7,879.78 699.31,906.82 730.54,906.82 746.15,879.78 		"/>
	</g>
	<g>
		<polygon class="st1" points="632.49,909.34 601.27,909.34 585.65,936.38 601.27,963.43 632.49,963.43 648.11,936.38 		"/>
	</g>
	<g>
		<polygon class="st1" points="632.51,965.95 601.28,965.95 585.67,992.99 601.28,1020.03 632.51,1020.03 648.12,992.99 		"/>
	</g>
	<g>
		<polygon class="st1" points="681.52,937.64 650.29,937.64 634.68,964.69 650.29,991.73 681.52,991.73 697.13,964.69 		"/>
	</g>
	<g>
		<polygon class="st1" points="681.54,994.25 650.31,994.25 634.7,1021.29 650.31,1048.33 681.54,1048.33 697.15,1021.29 		"/>
	</g>
	<g>
		<polygon class="st1" points="877.54,881.04 846.31,881.04 830.7,908.08 846.31,935.13 877.54,935.13 893.15,908.08 		"/>
	</g>
	<g>
		<polygon class="st1" points="779.57,881.04 748.34,881.04 732.73,908.08 748.34,935.13 779.57,935.13 795.18,908.08 		"/>
	</g>
	<g>
		<polygon class="st1" points="828.52,852.74 797.29,852.74 781.68,879.78 797.29,906.82 828.52,906.82 844.13,879.78 		"/>
	</g>
	<g>
		<polygon class="st1" points="828.54,909.34 797.32,909.34 781.7,936.38 797.32,963.43 828.54,963.43 844.16,936.38 		"/>
	</g>
	<g>
		<polygon class="st1" points="730.52,909.34 699.29,909.34 683.68,936.38 699.29,963.43 730.52,963.43 746.13,936.38 		"/>
	</g>
	<g>
		<polygon class="st1" points="828.56,965.95 797.33,965.95 781.72,992.99 797.33,1020.03 828.56,1020.03 844.17,992.99 		"/>
	</g>
	<g>
		<polygon class="st1" points="877.57,937.64 846.34,937.64 830.73,964.69 846.34,991.73 877.57,991.73 893.18,964.69 		"/>
	</g>
	<g>
		<polygon class="st1" points="877.59,994.25 846.36,994.25 830.75,1021.29 846.36,1048.33 877.59,1048.33 893.2,1021.29 		"/>
	</g>
	<g>
		<polygon class="st1" points="730.54,965.95 699.31,965.95 683.7,992.99 699.31,1020.03 730.54,1020.03 746.15,992.99 		"/>
	</g>
	<g>
		<polygon class="st1" points="779.54,937.64 748.31,937.64 732.7,964.69 748.31,991.73 779.54,991.73 795.15,964.69 		"/>
	</g>
	<g>
		<polygon class="st1" points="779.57,994.25 748.34,994.25 732.73,1021.29 748.34,1048.33 779.57,1048.33 795.18,1021.29 		"/>
	</g>
	<g>
		<polygon class="st1" points="681.52,711.23 650.29,711.23 634.68,738.28 650.29,765.32 681.52,765.32 697.13,738.28 		"/>
	</g>
	<g>
		<polygon class="st1" points="632.47,682.93 601.24,682.93 585.63,709.97 601.24,737.01 632.47,737.01 648.08,709.97 		"/>
	</g>
	<g>
		<polygon class="st1" points="730.54,682.93 699.31,682.93 683.7,709.97 699.31,737.01 730.54,737.01 746.15,709.97 		"/>
	</g>
	<g>
		<polygon class="st1" points="632.49,739.53 601.27,739.53 585.65,766.57 601.27,793.62 632.49,793.62 648.11,766.57 		"/>
	</g>
	<g>
		<polygon class="st1" points="632.51,796.14 601.28,796.14 585.67,823.18 601.28,850.22 632.51,850.22 648.12,823.18 		"/>
	</g>
	<g>
		<polygon class="st1" points="681.52,767.83 650.29,767.83 634.68,794.88 650.29,821.92 681.52,821.92 697.13,794.88 		"/>
	</g>
	<g>
		<polygon class="st1" points="681.54,824.44 650.31,824.44 634.7,851.48 650.31,878.52 681.54,878.52 697.15,851.48 		"/>
	</g>
	<g>
		<polygon class="st1" points="877.54,711.23 846.31,711.23 830.7,738.28 846.31,765.32 877.54,765.32 893.15,738.28 		"/>
	</g>
	<g>
		<polygon class="st1" points="779.57,711.23 748.34,711.23 732.73,738.28 748.34,765.32 779.57,765.32 795.18,738.28 		"/>
	</g>
	<g>
		<polygon class="st1" points="828.52,682.93 797.29,682.93 781.68,709.97 797.29,737.01 828.52,737.01 844.13,709.97 		"/>
	</g>
	<g>
		<polygon class="st1" points="828.54,739.53 797.32,739.53 781.7,766.57 797.32,793.62 828.54,793.62 844.16,766.57 		"/>
	</g>
	<g>
		<polygon class="st1" points="730.52,739.53 699.29,739.53 683.68,766.57 699.29,793.62 730.52,793.62 746.13,766.57 		"/>
	</g>
	<g>
		<polygon class="st1" points="828.56,796.14 797.33,796.14 781.72,823.18 797.33,850.22 828.56,850.22 844.17,823.18 		"/>
	</g>
	<g>
		<polygon class="st1" points="877.57,767.83 846.34,767.83 830.73,794.88 846.34,821.92 877.57,821.92 893.18,794.88 		"/>
	</g>
	<g>
		<polygon class="st1" points="877.59,824.44 846.36,824.44 830.75,851.48 846.36,878.52 877.59,878.52 893.2,851.48 		"/>
	</g>
	<g>
		<polygon class="st1" points="730.54,796.14 699.31,796.14 683.7,823.18 699.31,850.22 730.54,850.22 746.15,823.18 		"/>
	</g>
	<g>
		<polygon class="st1" points="779.54,767.83 748.31,767.83 732.7,794.88 748.31,821.92 779.54,821.92 795.15,794.88 		"/>
	</g>
	<g>
		<polygon class="st1" points="779.57,824.44 748.34,824.44 732.73,851.48 748.34,878.52 779.57,878.52 795.18,851.48 		"/>
	</g>
	<g>
		<polygon class="st1" points="1073.6,881.04 1042.37,881.04 1026.76,908.08 1042.37,935.13 1073.6,935.13 1089.21,908.08 		"/>
	</g>
	<g>
		<polygon class="st1" points="1171.65,881.04 1140.42,881.04 1124.81,908.08 1140.42,935.13 1171.65,935.13 1187.26,908.08 		"/>
	</g>
	<g>
		<polygon class="st1" points="975.62,881.04 944.39,881.04 928.78,908.08 944.39,935.13 975.62,935.13 991.23,908.08 		"/>
	</g>
	<g>
		<polygon class="st1" points="1122.6,852.74 1091.37,852.74 1075.76,879.78 1091.37,906.82 1122.6,906.82 1138.21,879.78 		"/>
	</g>
	<g>
		<polygon class="st1" points="1220.67,852.74 1189.44,852.74 1173.83,879.78 1189.44,906.82 1220.67,906.82 1236.28,879.78 		"/>
	</g>
	<g>
		<polygon class="st1" points="1122.62,909.34 1091.4,909.34 1075.78,936.38 1091.4,963.43 1122.62,963.43 1138.24,936.38 		"/>
	</g>
	<g>
		<polygon class="st1" points="1024.58,852.74 993.35,852.74 977.74,879.78 993.35,906.82 1024.58,906.82 1040.19,879.78 		"/>
	</g>
	<g>
		<polygon class="st1" points="1024.6,909.34 993.37,909.34 977.76,936.38 993.37,963.43 1024.6,963.43 1040.21,936.38 		"/>
	</g>
	<g>
		<polygon class="st1" points="926.58,852.74 895.35,852.74 879.74,879.78 895.35,906.82 926.58,906.82 942.19,879.78 		"/>
	</g>
	<g>
		<polygon class="st1" points="926.6,909.34 895.38,909.34 879.76,936.38 895.38,963.43 926.6,963.43 942.22,936.38 		"/>
	</g>
	<g>
		<polygon class="st1" points="1122.64,965.95 1091.42,965.95 1075.8,992.99 1091.42,1020.03 1122.64,1020.03 1138.26,992.99 		"/>
	</g>
	<g>
		<polygon class="st1" points="1024.6,965.95 993.37,965.95 977.76,992.99 993.37,1020.03 1024.6,1020.03 1040.21,992.99 		"/>
	</g>
	<g>
		<polygon class="st1" points="1171.65,937.64 1140.42,937.64 1124.81,964.69 1140.42,991.73 1171.65,991.73 1187.26,964.69 		"/>
	</g>
	<g>
		<polygon class="st1" points="1171.67,994.25 1140.44,994.25 1124.83,1021.29 1140.44,1048.33 1171.67,1048.33 1187.28,1021.29 		
			"/>
	</g>
	<g>
		<polygon class="st1" points="1073.62,937.64 1042.4,937.64 1026.78,964.69 1042.4,991.73 1073.62,991.73 1089.24,964.69 		"/>
	</g>
	<g>
		<polygon class="st1" points="1073.65,994.25 1042.42,994.25 1026.81,1021.29 1042.42,1048.33 1073.65,1048.33 1089.26,1021.29 		
			"/>
	</g>
	<g>
		<polygon class="st1" points="926.59,965.95 895.37,965.95 879.75,992.99 895.37,1020.03 926.59,1020.03 942.21,992.99 		"/>
	</g>
	<g>
		<polygon class="st1" points="975.6,937.64 944.37,937.64 928.76,964.69 944.37,991.73 975.6,991.73 991.21,964.69 		"/>
	</g>
	<g>
		<polygon class="st1" points="975.62,994.25 944.39,994.25 928.78,1021.29 944.39,1048.33 975.62,1048.33 991.23,1021.29 		"/>
	</g>
	<g>
		<polygon class="st1" points="1367.67,881.04 1336.44,881.04 1320.83,908.08 1336.44,935.13 1367.67,935.13 1383.28,908.08 		"/>
	</g>
	<g>
		<polygon class="st1" points="1465.72,881.04 1434.5,881.04 1418.88,908.08 1434.5,935.13 1465.72,935.13 1481.34,908.08 		"/>
	</g>
	<g>
		<polygon class="st1" points="1269.7,881.04 1238.47,881.04 1222.86,908.08 1238.47,935.13 1269.7,935.13 1285.31,908.08 		"/>
	</g>
	<g>
		<polygon class="st1" points="1416.68,852.74 1385.45,852.74 1369.84,879.78 1385.45,906.82 1416.68,906.82 1432.29,879.78 		"/>
	</g>
	<g>
		<polygon class="st1" points="1416.7,909.34 1385.47,909.34 1369.86,936.38 1385.47,963.43 1416.7,963.43 1432.31,936.38 		"/>
	</g>
	<g>
		<polygon class="st1" points="1318.65,852.74 1287.42,852.74 1271.81,879.78 1287.42,906.82 1318.65,906.82 1334.26,879.78 		"/>
	</g>
	<g>
		<polygon class="st1" points="1318.68,909.34 1287.45,909.34 1271.84,936.38 1287.45,963.43 1318.68,963.43 1334.29,936.38 		"/>
	</g>
	<g>
		<polygon class="st1" points="1220.65,909.34 1189.42,909.34 1173.81,936.38 1189.42,963.43 1220.65,963.43 1236.26,936.38 		"/>
	</g>
	<g>
		<polygon class="st1" points="1416.72,965.95 1385.49,965.95 1369.88,992.99 1385.49,1020.03 1416.72,1020.03 1432.33,992.99 		"/>
	</g>
	<g>
		<polygon class="st1" points="1318.69,965.95 1287.47,965.95 1271.85,992.99 1287.47,1020.03 1318.69,1020.03 1334.31,992.99 		"/>
	</g>
	<g>
		<polygon class="st1" points="1465.72,937.64 1434.5,937.64 1418.88,964.69 1434.5,991.73 1465.72,991.73 1481.34,964.69 		"/>
	</g>
	<g>
		<polygon class="st1" points="1465.75,994.25 1434.52,994.25 1418.91,1021.29 1434.52,1048.33 1465.75,1048.33 1481.36,1021.29 		
			"/>
	</g>
	<g>
		<polygon class="st1" points="1367.7,937.64 1336.47,937.64 1320.86,964.69 1336.47,991.73 1367.7,991.73 1383.31,964.69 		"/>
	</g>
	<g>
		<polygon class="st1" points="1367.72,994.25 1336.5,994.25 1320.88,1021.29 1336.5,1048.33 1367.72,1048.33 1383.34,1021.29 		"/>
	</g>
	<g>
		<polygon class="st1" points="1220.67,965.95 1189.44,965.95 1173.83,992.99 1189.44,1020.03 1220.67,1020.03 1236.28,992.99 		"/>
	</g>
	<g>
		<polygon class="st1" points="1269.67,937.64 1238.45,937.64 1222.83,964.69 1238.45,991.73 1269.67,991.73 1285.29,964.69 		"/>
	</g>
	<g>
		<polygon class="st1" points="1269.7,994.25 1238.47,994.25 1222.86,1021.29 1238.47,1048.33 1269.7,1048.33 1285.31,1021.29 		"/>
	</g>
	<g>
		<polygon class="st1" points="1073.6,711.23 1042.37,711.23 1026.76,738.28 1042.37,765.32 1073.6,765.32 1089.21,738.28 		"/>
	</g>
	<g>
		<polygon class="st1" points="1171.65,711.23 1140.42,711.23 1124.81,738.28 1140.42,765.32 1171.65,765.32 1187.26,738.28 		"/>
	</g>
	<g>
		<polygon class="st1" points="975.62,711.23 944.39,711.23 928.78,738.28 944.39,765.32 975.62,765.32 991.23,738.28 		"/>
	</g>
	<g>
		<polygon class="st1" points="1122.6,682.93 1091.37,682.93 1075.76,709.97 1091.37,737.01 1122.6,737.01 1138.21,709.97 		"/>
	</g>
	<g>
		<polygon class="st1" points="1220.67,682.93 1189.44,682.93 1173.83,709.97 1189.44,737.01 1220.67,737.01 1236.28,709.97 		"/>
	</g>
	<g>
		<polygon class="st1" points="1122.62,739.53 1091.4,739.53 1075.78,766.57 1091.4,793.62 1122.62,793.62 1138.24,766.57 		"/>
	</g>
	<g>
		<polygon class="st1" points="1024.58,682.93 993.35,682.93 977.74,709.97 993.35,737.01 1024.58,737.01 1040.19,709.97 		"/>
	</g>
	<g>
		<polygon class="st1" points="1024.6,739.53 993.37,739.53 977.76,766.57 993.37,793.62 1024.6,793.62 1040.21,766.57 		"/>
	</g>
	<g>
		<polygon class="st1" points="926.58,682.93 895.35,682.93 879.74,709.97 895.35,737.01 926.58,737.01 942.19,709.97 		"/>
	</g>
	<g>
		<polygon class="st1" points="926.6,739.53 895.38,739.53 879.76,766.57 895.38,793.62 926.6,793.62 942.22,766.57 		"/>
	</g>
	<g>
		<polygon class="st1" points="1122.64,796.14 1091.42,796.14 1075.8,823.18 1091.42,850.22 1122.64,850.22 1138.26,823.18 		"/>
	</g>
	<g>
		<polygon class="st1" points="1024.6,796.14 993.37,796.14 977.76,823.18 993.37,850.22 1024.6,850.22 1040.21,823.18 		"/>
	</g>
	<g>
		<polygon class="st1" points="1171.65,767.83 1140.42,767.83 1124.81,794.88 1140.42,821.92 1171.65,821.92 1187.26,794.88 		"/>
	</g>
	<g>
		<polygon class="st1" points="1171.67,824.44 1140.44,824.44 1124.83,851.48 1140.44,878.52 1171.67,878.52 1187.28,851.48 		"/>
	</g>
	<g>
		<polygon class="st1" points="1073.62,767.83 1042.4,767.83 1026.78,794.88 1042.4,821.92 1073.62,821.92 1089.24,794.88 		"/>
	</g>
	<g>
		<polygon class="st1" points="1073.65,824.44 1042.42,824.44 1026.81,851.48 1042.42,878.52 1073.65,878.52 1089.26,851.48 		"/>
	</g>
	<g>
		<polygon class="st1" points="926.59,796.14 895.37,796.14 879.75,823.18 895.37,850.22 926.59,850.22 942.21,823.18 		"/>
	</g>
	<g>
		<polygon class="st1" points="975.6,767.83 944.37,767.83 928.76,794.88 944.37,821.92 975.6,821.92 991.21,794.88 		"/>
	</g>
	<g>
		<polygon class="st1" points="975.62,824.44 944.39,824.44 928.78,851.48 944.39,878.52 975.62,878.52 991.23,851.48 		"/>
	</g>
	<g>
		<polygon class="st1" points="1367.67,711.23 1336.44,711.23 1320.83,738.28 1336.44,765.32 1367.67,765.32 1383.28,738.28 		"/>
	</g>
	<g>
		<polygon class="st1" points="1465.72,711.23 1434.5,711.23 1418.88,738.28 1434.5,765.32 1465.72,765.32 1481.34,738.28 		"/>
	</g>
	<g>
		<polygon class="st1" points="1269.7,711.23 1238.47,711.23 1222.86,738.28 1238.47,765.32 1269.7,765.32 1285.31,738.28 		"/>
	</g>
	<g>
		<polygon class="st1" points="1416.68,682.93 1385.45,682.93 1369.84,709.97 1385.45,737.01 1416.68,737.01 1432.29,709.97 		"/>
	</g>
	<g>
		<polygon class="st1" points="1416.7,739.53 1385.47,739.53 1369.86,766.57 1385.47,793.62 1416.7,793.62 1432.31,766.57 		"/>
	</g>
	<g>
		<polygon class="st1" points="1318.65,682.93 1287.42,682.93 1271.81,709.97 1287.42,737.01 1318.65,737.01 1334.26,709.97 		"/>
	</g>
	<g>
		<polygon class="st1" points="1318.68,739.53 1287.45,739.53 1271.84,766.57 1287.45,793.62 1318.68,793.62 1334.29,766.57 		"/>
	</g>
	<g>
		<polygon class="st1" points="1220.65,739.53 1189.42,739.53 1173.81,766.57 1189.42,793.62 1220.65,793.62 1236.26,766.57 		"/>
	</g>
	<g>
		<polygon class="st1" points="1416.72,796.14 1385.49,796.14 1369.88,823.18 1385.49,850.22 1416.72,850.22 1432.33,823.18 		"/>
	</g>
	<g>
		<polygon class="st1" points="1318.69,796.14 1287.47,796.14 1271.85,823.18 1287.47,850.22 1318.69,850.22 1334.31,823.18 		"/>
	</g>
	<g>
		<polygon class="st1" points="1465.72,767.83 1434.5,767.83 1418.88,794.88 1434.5,821.92 1465.72,821.92 1481.34,794.88 		"/>
	</g>
	<g>
		<polygon class="st1" points="1465.75,824.44 1434.52,824.44 1418.91,851.48 1434.52,878.52 1465.75,878.52 1481.36,851.48 		"/>
	</g>
	<g>
		<polygon class="st1" points="1367.7,767.83 1336.47,767.83 1320.86,794.88 1336.47,821.92 1367.7,821.92 1383.31,794.88 		"/>
	</g>
	<g>
		<polygon class="st1" points="1367.72,824.44 1336.5,824.44 1320.88,851.48 1336.5,878.52 1367.72,878.52 1383.34,851.48 		"/>
	</g>
	<g>
		<polygon class="st1" points="1220.67,796.14 1189.44,796.14 1173.83,823.18 1189.44,850.22 1220.67,850.22 1236.28,823.18 		"/>
	</g>
	<g>
		<polygon class="st1" points="1269.67,767.83 1238.45,767.83 1222.83,794.88 1238.45,821.92 1269.67,821.92 1285.29,794.88 		"/>
	</g>
	<g>
		<polygon class="st1" points="1269.7,824.44 1238.47,824.44 1222.86,851.48 1238.47,878.52 1269.7,878.52 1285.31,851.48 		"/>
	</g>
	<g>
		<polygon class="st1" points="1564,881.04 1532.77,881.04 1517.16,908.08 1532.77,935.13 1564,935.13 1579.61,908.08 		"/>
	</g>
	<g>
		<polygon class="st1" points="1514.95,852.74 1483.73,852.74 1468.11,879.78 1483.73,906.82 1514.95,906.82 1530.57,879.78 		"/>
	</g>
	<g>
		<polygon class="st1" points="1613.02,852.74 1581.79,852.74 1566.18,879.78 1581.79,906.82 1613.02,906.82 1628.63,879.78 		"/>
	</g>
	<g>
		<polygon class="st1" points="1514.98,909.34 1483.75,909.34 1468.14,936.38 1483.75,963.43 1514.98,963.43 1530.59,936.38 		"/>
	</g>
	<g>
		<polygon class="st1" points="1514.99,965.95 1483.77,965.95 1468.15,992.99 1483.77,1020.03 1514.99,1020.03 1530.61,992.99 		"/>
	</g>
	<g>
		<polygon class="st1" points="1564,937.64 1532.77,937.64 1517.16,964.69 1532.77,991.73 1564,991.73 1579.61,964.69 		"/>
	</g>
	<g>
		<polygon class="st1" points="1564.02,994.25 1532.8,994.25 1517.18,1021.29 1532.8,1048.33 1564.02,1048.33 1579.64,1021.29 		"/>
	</g>
	<g>
		<polygon class="st1" points="1760.02,881.04 1728.8,881.04 1713.18,908.08 1728.8,935.13 1760.02,935.13 1775.64,908.08 		"/>
	</g>
	<g>
		<polygon class="st1" points="1662.05,881.04 1630.82,881.04 1615.21,908.08 1630.82,935.13 1662.05,935.13 1677.66,908.08 		"/>
	</g>
	<g>
		<polygon class="st1" points="1711,852.74 1679.78,852.74 1664.16,879.78 1679.78,906.82 1711,906.82 1726.62,879.78 		"/>
	</g>
	<g>
		<polygon class="st1" points="1711.03,909.34 1679.8,909.34 1664.19,936.38 1679.8,963.43 1711.03,963.43 1726.64,936.38 		"/>
	</g>
	<g>
		<polygon class="st1" points="1613,909.34 1581.77,909.34 1566.16,936.38 1581.77,963.43 1613,963.43 1628.61,936.38 		"/>
	</g>
	<g>
		<polygon class="st1" points="1711.04,965.95 1679.82,965.95 1664.2,992.99 1679.82,1020.03 1711.04,1020.03 1726.66,992.99 		"/>
	</g>
	<g>
		<polygon class="st1" points="1760.05,937.64 1728.82,937.64 1713.21,964.69 1728.82,991.73 1760.05,991.73 1775.66,964.69 		"/>
	</g>
	<g>
		<polygon class="st1" points="1760.07,994.25 1728.85,994.25 1713.23,1021.29 1728.85,1048.33 1760.07,1048.33 1775.69,1021.29 		
			"/>
	</g>
	<g>
		<polygon class="st1" points="1613.02,965.95 1581.79,965.95 1566.18,992.99 1581.79,1020.03 1613.02,1020.03 1628.63,992.99 		"/>
	</g>
	<g>
		<polygon class="st1" points="1662.02,937.64 1630.8,937.64 1615.18,964.69 1630.8,991.73 1662.02,991.73 1677.64,964.69 		"/>
	</g>
	<g>
		<polygon class="st1" points="1662.05,994.25 1630.82,994.25 1615.21,1021.29 1630.82,1048.33 1662.05,1048.33 1677.66,1021.29 		
			"/>
	</g>
	<g>
		<polygon class="st1" points="1564,711.23 1532.77,711.23 1517.16,738.28 1532.77,765.32 1564,765.32 1579.61,738.28 		"/>
	</g>
	<g>
		<polygon class="st1" points="1514.95,682.93 1483.73,682.93 1468.11,709.97 1483.73,737.01 1514.95,737.01 1530.57,709.97 		"/>
	</g>
	<g>
		<polygon class="st1" points="1613.02,682.93 1581.79,682.93 1566.18,709.97 1581.79,737.01 1613.02,737.01 1628.63,709.97 		"/>
	</g>
	<g>
		<polygon class="st1" points="1514.98,739.53 1483.75,739.53 1468.14,766.57 1483.75,793.62 1514.98,793.62 1530.59,766.57 		"/>
	</g>
	<g>
		<polygon class="st1" points="1514.99,796.14 1483.77,796.14 1468.15,823.18 1483.77,850.22 1514.99,850.22 1530.61,823.18 		"/>
	</g>
	<g>
		<polygon class="st1" points="1564,767.83 1532.77,767.83 1517.16,794.88 1532.77,821.92 1564,821.92 1579.61,794.88 		"/>
	</g>
	<g>
		<polygon class="st1" points="1564.02,824.44 1532.8,824.44 1517.18,851.48 1532.8,878.52 1564.02,878.52 1579.64,851.48 		"/>
	</g>
	<g>
		<polygon class="st1" points="1760.02,711.23 1728.8,711.23 1713.18,738.28 1728.8,765.32 1760.02,765.32 1775.64,738.28 		"/>
	</g>
	<g>
		<polygon class="st1" points="1662.05,711.23 1630.82,711.23 1615.21,738.28 1630.82,765.32 1662.05,765.32 1677.66,738.28 		"/>
	</g>
	<g>
		<polygon class="st1" points="1711,682.93 1679.78,682.93 1664.16,709.97 1679.78,737.01 1711,737.01 1726.62,709.97 		"/>
	</g>
	<g>
		<polygon class="st1" points="1711.03,739.53 1679.8,739.53 1664.19,766.57 1679.8,793.62 1711.03,793.62 1726.64,766.57 		"/>
	</g>
	<g>
		<polygon class="st1" points="1613,739.53 1581.77,739.53 1566.16,766.57 1581.77,793.62 1613,793.62 1628.61,766.57 		"/>
	</g>
	<g>
		<polygon class="st1" points="1711.04,796.14 1679.82,796.14 1664.2,823.18 1679.82,850.22 1711.04,850.22 1726.66,823.18 		"/>
	</g>
	<g>
		<polygon class="st1" points="1760.05,767.83 1728.82,767.83 1713.21,794.88 1728.82,821.92 1760.05,821.92 1775.66,794.88 		"/>
	</g>
	<g>
		<polygon class="st1" points="1760.07,824.44 1728.85,824.44 1713.23,851.48 1728.85,878.52 1760.07,878.52 1775.69,851.48 		"/>
	</g>
	<g>
		<polygon class="st1" points="1613.02,796.14 1581.79,796.14 1566.18,823.18 1581.79,850.22 1613.02,850.22 1628.63,823.18 		"/>
	</g>
	<g>
		<polygon class="st1" points="1662.02,767.83 1630.8,767.83 1615.18,794.88 1630.8,821.92 1662.02,821.92 1677.64,794.88 		"/>
	</g>
	<g>
		<polygon class="st1" points="1662.05,824.44 1630.82,824.44 1615.21,851.48 1630.82,878.52 1662.05,878.52 1677.66,851.48 		"/>
	</g>
	<g>
		<polygon class="st1" points="1809.1,852.74 1777.88,852.74 1762.26,879.78 1777.88,906.82 1809.1,906.82 1824.72,879.78 		"/>
	</g>
	<g>
		<polygon class="st1" points="1858.13,881.04 1826.91,881.04 1811.29,908.08 1826.91,935.13 1858.13,935.13 1873.75,908.08 		"/>
	</g>
	<g>
		<polygon class="st1" points="1907.09,852.74 1875.86,852.74 1860.25,879.78 1875.86,906.82 1907.09,906.82 1922.7,879.78 		"/>
	</g>
	<g>
		<polygon class="st1" points="1907.11,909.34 1875.88,909.34 1860.27,936.38 1875.88,963.43 1907.11,963.43 1922.72,936.38 		"/>
	</g>
	<g>
		<polygon class="st1" points="1809.09,909.34 1777.86,909.34 1762.25,936.38 1777.86,963.43 1809.09,963.43 1824.7,936.38 		"/>
	</g>
	<g>
		<polygon class="st1" points="1907.13,965.95 1875.9,965.95 1860.29,992.99 1875.9,1020.03 1907.13,1020.03 1922.74,992.99 		"/>
	</g>
	<g>
		<polygon class="st1" points="1809.1,965.95 1777.88,965.95 1762.26,992.99 1777.88,1020.03 1809.1,1020.03 1824.72,992.99 		"/>
	</g>
	<g>
		<polygon class="st1" points="1858.11,937.64 1826.88,937.64 1811.27,964.69 1826.88,991.73 1858.11,991.73 1873.72,964.69 		"/>
	</g>
	<g>
		<polygon class="st1" points="1858.13,994.25 1826.91,994.25 1811.29,1021.29 1826.91,1048.33 1858.13,1048.33 1873.75,1021.29 		
			"/>
	</g>
	<g>
		<polygon class="st1" points="240.16,1022.53 208.93,1022.53 193.32,1049.58 208.93,1076.62 240.16,1076.62 255.77,1049.58 		"/>
	</g>
	<g>
		<polygon class="st1" points="142.12,1022.53 110.89,1022.53 95.28,1049.58 110.89,1076.62 142.12,1076.62 157.73,1049.58 		"/>
	</g>
	<g>
		<polygon class="st1" points="44.11,1022.53 12.88,1022.53 -2.73,1049.58 12.88,1076.62 44.11,1076.62 59.72,1049.58 		"/>
	</g>
	<g>
		<polygon class="st1" points="534.24,1022.53 503.01,1022.53 487.4,1049.58 503.01,1076.62 534.24,1076.62 549.85,1049.58 		"/>
	</g>
	<g>
		<polygon class="st1" points="436.21,1022.53 404.98,1022.53 389.37,1049.58 404.98,1076.62 436.21,1076.62 451.82,1049.58 		"/>
	</g>
	<g>
		<polygon class="st1" points="338.19,1022.53 306.96,1022.53 291.35,1049.58 306.96,1076.62 338.19,1076.62 353.8,1049.58 		"/>
	</g>
	<g>
		<polygon class="st1" points="632.51,1022.53 601.28,1022.53 585.67,1049.58 601.28,1076.62 632.51,1076.62 648.12,1049.58 		"/>
	</g>
	<g>
		<polygon class="st1" points="828.56,1022.53 797.33,1022.53 781.72,1049.58 797.33,1076.62 828.56,1076.62 844.17,1049.58 		"/>
	</g>
	<g>
		<polygon class="st1" points="730.54,1022.53 699.31,1022.53 683.7,1049.58 699.31,1076.62 730.54,1076.62 746.15,1049.58 		"/>
	</g>
	<g>
		<polygon class="st1" points="1122.64,1022.53 1091.42,1022.53 1075.8,1049.58 1091.42,1076.62 1122.64,1076.62 1138.26,1049.58 		
			"/>
	</g>
	<g>
		<polygon class="st1" points="1024.6,1022.53 993.37,1022.53 977.76,1049.58 993.37,1076.62 1024.6,1076.62 1040.21,1049.58 		"/>
	</g>
	<g>
		<polygon class="st1" points="926.59,1022.53 895.37,1022.53 879.75,1049.58 895.37,1076.62 926.59,1076.62 942.21,1049.58 		"/>
	</g>
	<g>
		<polygon class="st1" points="1416.72,1022.53 1385.49,1022.53 1369.88,1049.58 1385.49,1076.62 1416.72,1076.62 1432.33,1049.58 
					"/>
	</g>
	<g>
		<polygon class="st1" points="1318.69,1022.53 1287.47,1022.53 1271.85,1049.58 1287.47,1076.62 1318.69,1076.62 1334.31,1049.58 
					"/>
	</g>
	<g>
		<polygon class="st1" points="1220.67,1022.53 1189.44,1022.53 1173.83,1049.58 1189.44,1076.62 1220.67,1076.62 1236.28,1049.58 
					"/>
	</g>
	<g>
		<polygon class="st1" points="1514.99,1022.53 1483.77,1022.53 1468.15,1049.58 1483.77,1076.62 1514.99,1076.62 1530.61,1049.58 
					"/>
	</g>
	<g>
		<polygon class="st1" points="1711.04,1022.53 1679.82,1022.53 1664.2,1049.58 1679.82,1076.62 1711.04,1076.62 1726.66,1049.58 		
			"/>
	</g>
	<g>
		<polygon class="st1" points="1613.02,1022.53 1581.79,1022.53 1566.18,1049.58 1581.79,1076.62 1613.02,1076.62 1628.63,1049.58 
					"/>
	</g>
	<g>
		<polygon class="st1" points="1907.13,1022.53 1875.9,1022.53 1860.29,1049.58 1875.9,1076.62 1907.13,1076.62 1922.74,1049.58 		
			"/>
	</g>
	<g>
		<polygon class="st1" points="1809.1,1022.53 1777.88,1022.53 1762.26,1049.58 1777.88,1076.62 1809.1,1076.62 1824.72,1049.58 		
			"/>
	</g>
	<g>
		<polygon class="st1" points="1809.1,682.93 1777.88,682.93 1762.26,709.97 1777.88,737.01 1809.1,737.01 1824.72,709.97 		"/>
	</g>
	<g>
		<polygon class="st1" points="1858.13,711.23 1826.91,711.23 1811.29,738.28 1826.91,765.32 1858.13,765.32 1873.75,738.28 		"/>
	</g>
	<g>
		<polygon class="st1" points="1907.09,682.93 1875.86,682.93 1860.25,709.97 1875.86,737.01 1907.09,737.01 1922.7,709.97 		"/>
	</g>
	<g>
		<polygon class="st1" points="1907.11,739.53 1875.88,739.53 1860.27,766.57 1875.88,793.62 1907.11,793.62 1922.72,766.57 		"/>
	</g>
	<g>
		<polygon class="st1" points="1809.09,739.53 1777.86,739.53 1762.25,766.57 1777.86,793.62 1809.09,793.62 1824.7,766.57 		"/>
	</g>
	<g>
		<polygon class="st1" points="1907.13,796.14 1875.9,796.14 1860.29,823.18 1875.9,850.22 1907.13,850.22 1922.74,823.18 		"/>
	</g>
	<g>
		<polygon class="st1" points="1809.1,796.14 1777.88,796.14 1762.26,823.18 1777.88,850.22 1809.1,850.22 1824.72,823.18 		"/>
	</g>
	<g>
		<polygon class="st1" points="1858.11,767.83 1826.88,767.83 1811.27,794.88 1826.88,821.92 1858.11,821.92 1873.72,794.88 		"/>
	</g>
	<g>
		<polygon class="st1" points="1858.13,824.44 1826.91,824.44 1811.29,851.48 1826.91,878.52 1858.13,878.52 1873.75,851.48 		"/>
	</g>
</g>
</svg>
