<?xml version="1.0" encoding="utf-8"?>
<!-- Generator: Adobe Illustrator 26.1.0, SVG Export Plug-In . SVG Version: 6.00 Build 0)  -->
<svg version="1.1" id="Layer_1" xmlns="http://www.w3.org/2000/svg" xmlns:xlink="http://www.w3.org/1999/xlink" x="0px" y="0px"
	 viewBox="0 0 118.95 118" style="enable-background:new 0 0 118.95 118;" xml:space="preserve">
<style type="text/css">
	.st0{fill:#141414;}
	.st1{fill:url(#SVGID_1_);}
	.st2{fill:#FFFF00;}
	.st3{fill:#2D2D2D;}
	.st4{fill:url(#SVGID_00000067226180923179696680000016493133287077680049_);}
	.st5{fill:#F4E203;}
	.st6{fill:#FFD800;}
	.st7{fill:#FFED00;}
	.st8{fill-rule:evenodd;clip-rule:evenodd;fill:#FFFF00;}
	.st9{fill:none;stroke:#FFFF00;stroke-width:2;stroke-miterlimit:10;}
	.st10{fill:none;stroke:#FFFF00;stroke-width:2;stroke-linecap:round;stroke-miterlimit:10;}
	.st11{opacity:0.7;}
	.st12{fill:#1C1C1C;}
	.st13{opacity:0.7;fill:#FFFF00;}
	.st14{fill:url(#SVGID_00000138560701838877017710000004864350110242549940_);}
	.st15{opacity:0.3;}
	.st16{fill:#FFFFFF;}
	.st17{fill:none;stroke:#FFFF00;stroke-miterlimit:10;}
	.st18{fill:none;stroke:#FFFF00;stroke-miterlimit:10;stroke-dasharray:8;}
	.st19{fill:none;stroke:#FFFF00;stroke-miterlimit:10;stroke-dasharray:8.1071,8.1071;}
	.st20{fill:none;stroke:#FC00C1;stroke-miterlimit:10;}
	.st21{fill:#FC00C1;}
	.st22{fill:none;stroke:#FC00C1;stroke-width:3;stroke-miterlimit:10;}
	.st23{fill:none;stroke:#3FFF00;stroke-miterlimit:10;}
	.st24{fill:#3FFF00;}
	.st25{clip-path:url(#SVGID_00000139267673921788333730000016486382932630814367_);}
</style>
<g>
	<path class="st2" d="M16.77,49.62c0.71,0,1.29-0.58,1.29-1.29c0-0.71-0.58-1.29-1.29-1.29c-0.71,0-1.29,0.58-1.29,1.29
		C15.48,49.04,16.06,49.62,16.77,49.62z"/>
	<path class="st2" d="M76.74,44.2L98.07,43l20.88-20.52l-26.81,4.34L96.48,0L75.95,20.88l-1.2,21.33l-2.23,2.23l-6.99,6.99
		c-6.96-6.71-16.42-10.84-26.83-10.84c-5.97,0-11.7,1.33-17.03,3.95c-0.64,0.31-0.9,1.09-0.59,1.73c0.31,0.64,1.09,0.9,1.73,0.59
		c4.97-2.45,10.31-3.69,15.91-3.69c0,0,0,0,0.01,0c9.69,0,18.5,3.85,24.99,10.08L53.35,63.61c-3.84-3.59-8.98-5.8-14.64-5.8
		c-11.85,0-21.48,9.64-21.48,21.48s9.64,21.48,21.48,21.48c11.85,0,21.49-9.64,21.49-21.48c0-5.18-1.84-9.93-4.9-13.64l10.37-10.37
		c5.7,6.39,9.17,14.8,9.17,24.02c0,19.92-16.2,36.13-36.12,36.13c-14.57,0-36.14-10.31-36.14-36.13c0-9.82,3.88-19,10.93-25.87
		c0.51-0.5,0.52-1.31,0.03-1.82c-0.5-0.51-1.32-0.52-1.82-0.02C4.16,58.93,0,68.77,0,79.29C0,103.6,18.06,118,38.72,118
		c21.34,0,38.7-17.36,38.7-38.71c0-9.93-3.76-18.99-9.92-25.85l7.02-7.02L76.74,44.2z M57.38,79.29c0,10.29-8.38,18.67-18.67,18.67
		c-10.29,0-18.67-8.38-18.67-18.67s8.38-18.67,18.67-18.67c4.88,0,9.32,1.9,12.65,4.98l-9.27,9.27c-0.94-0.72-2.1-1.17-3.38-1.17
		c-3.09,0-5.59,2.5-5.59,5.59c0,3.09,2.5,5.59,5.59,5.59s5.59-2.5,5.59-5.59c0-0.78-0.16-1.52-0.45-2.2l9.44-9.44
		C55.84,70.85,57.38,74.89,57.38,79.29z M96.85,40.25l-17.12,0.96l11.38-11.38l19.56-3.16L96.85,40.25z M77.74,39.22L78.7,22.1
		L92.28,8.28l-3.16,19.56L77.74,39.22z"/>
</g>
</svg>
