<?xml version="1.0" encoding="utf-8"?>
<!-- Generator: Adobe Illustrator 26.1.0, SVG Export Plug-In . SVG Version: 6.00 Build 0)  -->
<svg version="1.1" id="Layer_1" xmlns="http://www.w3.org/2000/svg" xmlns:xlink="http://www.w3.org/1999/xlink" x="0px" y="0px"
	 viewBox="0 0 17.78 24.89" style="enable-background:new 0 0 17.78 24.89;" xml:space="preserve">
<style type="text/css">
	.st0{fill:url(#SVGID_1_);}
	.st1{opacity:0.3;}
	.st2{fill:#FFD800;}
	.st3{fill:#FFED00;}
	.st4{fill-rule:evenodd;clip-rule:evenodd;fill:#FFFF00;}
	.st5{fill:#FFFF00;}
	.st6{fill:#FC00C1;}
	.st7{fill:none;stroke:#FFFF00;stroke-width:2;stroke-miterlimit:10;}
	.st8{fill:none;stroke:#FFFF00;stroke-width:2;stroke-linecap:round;stroke-miterlimit:10;}
	.st9{fill:url(#SVGID_00000017478796119269320920000005374159546528224168_);}
	.st10{opacity:0.7;}
	.st11{fill:#1C1C1C;}
	.st12{fill:#F703BE;}
	.st13{fill:#FFFFFF;}
	.st14{opacity:0.7;fill:#FFFF00;}
	.st15{opacity:0.8;fill:#FF2C8E;}
	.st16{clip-path:url(#SVGID_00000079482251176142849540000000236491203994504891_);}
	.st17{fill:none;stroke:#FFFF00;stroke-miterlimit:10;}
	.st18{fill:none;stroke:#FFFF00;stroke-miterlimit:10;stroke-dasharray:8.041,8.041;}
	.st19{fill:none;stroke:#FFFFFF;stroke-miterlimit:10;}
	.st20{fill:none;stroke:#FFFF00;stroke-miterlimit:10;stroke-dasharray:8.1071,8.1071;}
	.st21{fill:none;stroke:#FFFF00;stroke-miterlimit:10;stroke-dasharray:8;}
	.st22{fill:none;stroke:#FC00C1;stroke-miterlimit:10;}
	.st23{fill:none;stroke:#FC00C1;stroke-width:3;stroke-miterlimit:10;}
	.st24{fill:#282828;stroke:#FC00C1;stroke-miterlimit:10;}
	.st25{fill:none;stroke:#FFFFFF;stroke-width:2;stroke-miterlimit:10;}
	.st26{fill:none;}
</style>
<g>
	<path class="st6" d="M8.85,24.89c-0.44,0-0.88-0.14-1.25-0.43c-3.1-2.4-8.31-10.73-7.52-17.15c0.38-3.06,2.02-5.25,4.87-6.5l0,0
		c2.47-1.08,5.34-1.08,7.85,0.02c2.83,1.23,4.47,3.34,4.88,6.28c0.9,6.48-4.52,14.85-7.56,17.33C9.75,24.74,9.3,24.89,8.85,24.89z
		 M5.35,1.72c-2.51,1.1-3.95,3.02-4.28,5.71C0.33,13.5,5.27,21.39,8.21,23.67c0.38,0.29,0.92,0.29,1.28-0.01
		c3-2.46,8.02-10.55,7.2-16.42c-0.36-2.57-1.8-4.42-4.29-5.5C10.15,0.76,7.58,0.75,5.35,1.72L5.35,1.72z M8.78,14.49
		c-1.2,0-2.33-0.46-3.19-1.32c-1.03-1.03-1.49-2.45-1.27-3.91C4.61,7.34,6.16,5.8,8.07,5.5c1.46-0.22,2.88,0.24,3.91,1.27
		c1.03,1.03,1.49,2.45,1.27,3.91c-0.29,1.92-1.84,3.46-3.75,3.75C9.25,14.47,9.02,14.49,8.78,14.49z M8.78,6.45
		c-0.19,0-0.37,0.01-0.56,0.04C6.76,6.71,5.53,7.94,5.31,9.41c-0.17,1.14,0.19,2.25,0.99,3.05s1.91,1.16,3.05,0.99c0,0,0,0,0,0
		c1.47-0.22,2.69-1.45,2.92-2.92c0.17-1.14-0.19-2.25-0.99-3.05C10.6,6.81,9.72,6.45,8.78,6.45z"/>
</g>
</svg>
